<?xml version="1.0" encoding="UTF-8"?>
<!-- Generated by jsxcad -->
<!DOCTYPE svg PUBLIC "-//W3C//DTD SVG 1.1 Tiny//EN" "http://www.w3.org/Graphics/SVG/1.1/DTD/svg11-tiny.dtd">
<svg baseProfile="tiny" height="61.933780981432854mm" width="69.98026728428273mm" viewBox="-34.990133642141366 -30.966890490716427 69.98026728428273 61.933780981432854" version="1.1" stroke="black" stroke-width=".1" fill="none" xmlns="http://www.w3.org/2000/svg">
<path fill="#000000" stroke="#000000" d="M31.243449435824267 -4.842915805643155 L30.62666616782152 -4.9605735065723895 L30.62666616782152 -4.9605735065723895 L31.243449435824267 -4.842915805643155 z"/>
<path fill="#000000" stroke="#000000" d="M30.626666167821515 -4.9605735065723895 L29.999999999999996 -5 L29.999999999999996 -5 L30.626666167821515 -4.9605735065723895 z"/>
<path fill="#000000" stroke="#000000" d="M29.999999999999996 -4.999999999999999 L29.37333383217848 -4.960573506572389 L29.37333383217848 -4.960573506572389 L29.999999999999996 -4.999999999999999 z"/>
<path fill="#000000" stroke="#000000" d="M31.840622763423386 -4.648882429441257 L31.243449435824267 -4.842915805643156 L31.243449435824267 -4.842915805643156 L31.840622763423386 -4.648882429441257 z"/>
<path fill="#000000" stroke="#000000" d="M32.40876837050857 -4.381533400219319 L31.840622763423386 -4.648882429441257 L31.840622763423386 -4.648882429441257 L32.40876837050857 -4.381533400219319 z"/>
<path fill="#000000" stroke="#000000" d="M32.93892626146236 -4.045084971874738 L32.40876837050857 -4.38153340021932 L32.40876837050857 -4.38153340021932 L32.93892626146236 -4.045084971874738 z"/>
<path fill="#000000" stroke="#000000" d="M33.42273552964343 -3.644843137107062 L32.938926261462356 -4.045084971874739 L32.938926261462356 -4.045084971874739 L33.42273552964343 -3.644843137107062 z"/>
<path fill="#000000" stroke="#000000" d="M34.22163962751007 -2.679133974894984 L33.852566213878944 -3.1871199487434496 L33.852566213878944 -3.1871199487434496 L34.22163962751007 -2.679133974894984 z"/>
<path fill="#000000" stroke="#000000" d="M33.852566213878944 -3.1871199487434496 L33.42273552964344 -3.6448431371070584 L33.42273552964344 -3.6448431371070584 L33.852566213878944 -3.1871199487434496 z"/>
<path fill="#000000" stroke="#000000" d="M34.75528258147576 -1.5450849718747381 L34.52413526233009 -2.128896457825364 L34.52413526233009 -2.128896457825364 L34.75528258147576 -1.5450849718747381 z"/>
<path fill="#000000" stroke="#000000" d="M34.91143625364344 -0.9369065729286242 L34.75528258147576 -1.5450849718747381 L34.75528258147576 -1.5450849718747381 L34.91143625364344 -0.9369065729286242 z"/>
<path fill="#000000" stroke="#000000" d="M34.91143625364344 0.9369065729286217 L34.99013364214135 0.3139525976465654 L34.99013364214135 0.3139525976465654 L34.91143625364344 0.9369065729286217 z"/>
<path fill="#000000" stroke="#000000" d="M34.99013364214135 -0.31395259764656813 L34.91143625364344 -0.9369065729286242 L34.91143625364344 -0.9369065729286242 L34.99013364214135 -0.31395259764656813 z"/>
<path fill="#000000" stroke="#000000" d="M34.99013364214135 0.31395259764656547 L34.99013364214135 -0.3139525976465682 L34.99013364214135 -0.3139525976465682 L34.99013364214135 0.31395259764656547 z"/>
<path fill="#000000" stroke="#000000" d="M34.75528258147577 1.5450849718747355 L34.91143625364344 0.9369065729286218 L34.91143625364344 0.9369065729286218 L34.75528258147577 1.5450849718747355 z"/>
<path fill="#000000" stroke="#000000" d="M34.5241352623301 2.1288964578253617 L34.75528258147577 1.5450849718747355 L34.75528258147577 1.5450849718747355 L34.5241352623301 2.1288964578253617 z"/>
<path fill="#000000" stroke="#000000" d="M34.22163962751007 2.679133974894982 L34.5241352623301 2.1288964578253617 L34.5241352623301 2.1288964578253617 L34.22163962751007 2.679133974894982 z"/>
<path fill="#000000" stroke="#000000" d="M34.52413526233009 -2.128896457825364 L34.22163962751007 -2.679133974894984 L34.22163962751007 -2.679133974894984 L34.52413526233009 -2.128896457825364 z"/>
<path fill="#000000" stroke="#000000" d="M33.852566213878944 3.187119948743448 L34.22163962751007 2.679133974894982 L34.22163962751007 2.679133974894982 L33.852566213878944 3.187119948743448 z"/>
<path fill="#000000" stroke="#000000" d="M33.42273552964344 3.6448431371070567 L33.852566213878944 3.187119948743448 L33.852566213878944 3.187119948743448 L33.42273552964344 3.6448431371070567 z"/>
<path fill="#000000" stroke="#000000" d="M32.938926261462356 4.045084971874739 L33.42273552964344 3.6448431371070584 L33.42273552964344 3.6448431371070584 L32.938926261462356 4.045084971874739 z"/>
<path fill="#000000" stroke="#000000" d="M32.408768370508575 4.381533400219318 L32.93892626146236 4.045084971874738 L32.93892626146236 4.045084971874738 L32.408768370508575 4.381533400219318 z"/>
<path fill="#000000" stroke="#000000" d="M31.840622763423386 4.648882429441257 L32.40876837050857 4.381533400219319 L32.40876837050857 4.381533400219319 L31.840622763423386 4.648882429441257 z"/>
<path fill="#000000" stroke="#000000" d="M31.243449435824274 4.842915805643155 L31.840622763423386 4.648882429441256 L31.840622763423386 4.648882429441256 L31.243449435824274 4.842915805643155 z"/>
<path fill="#000000" stroke="#000000" d="M30.62666616782152 4.960573506572389 L31.243449435824274 4.842915805643155 L31.243449435824274 4.842915805643155 L30.62666616782152 4.960573506572389 z"/>
<path fill="#000000" stroke="#000000" d="M29.999999999999996 5 L30.626666167821522 4.960573506572389 L30.626666167821522 4.960573506572389 L29.999999999999996 5 z"/>
<path fill="#000000" stroke="#000000" d="M29.373333832178474 4.960573506572389 L30 4.999999999999999 L30 4.999999999999999 L29.373333832178474 4.960573506572389 z"/>
<path fill="#000000" stroke="#000000" d="M28.756550564175726 4.842915805643155 L29.373333832178478 4.960573506572389 L29.373333832178478 4.960573506572389 L28.756550564175726 4.842915805643155 z"/>
<path fill="#000000" stroke="#000000" d="M28.159377236576606 4.648882429441256 L28.756550564175726 4.842915805643155 L28.756550564175726 4.842915805643155 L28.159377236576606 4.648882429441256 z"/>
<path fill="#000000" stroke="#000000" d="M27.59123162949142 4.381533400219317 L28.159377236576606 4.648882429441256 L28.159377236576606 4.648882429441256 L27.59123162949142 4.381533400219317 z"/>
<path fill="#000000" stroke="#000000" d="M27.06107373853763 4.0450849718747355 L27.591231629491418 4.381533400219316 L27.591231629491418 4.381533400219316 L27.06107373853763 4.0450849718747355 z"/>
<path fill="#000000" stroke="#000000" d="M26.577264470356553 3.6448431371070553 L27.06107373853763 4.045084971874734 L27.06107373853763 4.045084971874734 L26.577264470356553 3.6448431371070553 z"/>
<path fill="#000000" stroke="#000000" d="M25.77836037248992 2.6791339748949827 L26.147433786121052 3.1871199487434487 L26.147433786121052 3.1871199487434487 L25.77836037248992 2.6791339748949827 z"/>
<path fill="#000000" stroke="#000000" d="M25.475864737669898 2.128896457825362 L25.77836037248992 2.6791339748949827 L25.77836037248992 2.6791339748949827 L25.475864737669898 2.128896457825362 z"/>
<path fill="#000000" stroke="#000000" d="M25.24471741852423 1.5450849718747353 L25.475864737669898 2.128896457825362 L25.475864737669898 2.128896457825362 L25.24471741852423 1.5450849718747353 z"/>
<path fill="#000000" stroke="#000000" d="M26.147433786121052 3.1871199487434487 L26.577264470356553 3.644843137107056 L26.577264470356553 3.644843137107056 L26.147433786121052 3.1871199487434487 z"/>
<path fill="#000000" stroke="#000000" d="M25.088563746356552 0.9369065729286205 L25.24471741852423 1.545084971874735 L25.24471741852423 1.545084971874735 L25.088563746356552 0.9369065729286205 z"/>
<path fill="#000000" stroke="#000000" d="M25.00986635785864 0.3139525976465634 L25.088563746356552 0.9369065729286205 L25.088563746356552 0.9369065729286205 L25.00986635785864 0.3139525976465634 z"/>
<path fill="#000000" stroke="#000000" d="M25.244717418524232 -1.5450849718747404 L25.088563746356556 -0.936906572928626 L25.088563746356556 -0.936906572928626 L25.244717418524232 -1.5450849718747404 z"/>
<path fill="#000000" stroke="#000000" d="M25.088563746356556 -0.9369065729286259 L25.00986635785864 -0.3139525976465689 L25.00986635785864 -0.3139525976465689 L25.088563746356556 -0.9369065729286259 z"/>
<path fill="#000000" stroke="#000000" d="M25.00986635785864 -0.31395259764656896 L25.00986635785864 0.31395259764656347 L25.00986635785864 0.31395259764656347 L25.00986635785864 -0.31395259764656896 z"/>
<path fill="#000000" stroke="#000000" d="M26.147433786121056 -3.1871199487434527 L25.778360372489924 -2.679133974894987 L25.778360372489924 -2.679133974894987 L26.147433786121056 -3.1871199487434527 z"/>
<path fill="#000000" stroke="#000000" d="M25.778360372489924 -2.679133974894987 L25.4758647376699 -2.128896457825367 L25.4758647376699 -2.128896457825367 L25.778360372489924 -2.679133974894987 z"/>
<path fill="#000000" stroke="#000000" d="M25.4758647376699 -2.128896457825367 L25.244717418524232 -1.5450849718747401 L25.244717418524232 -1.5450849718747401 L25.4758647376699 -2.128896457825367 z"/>
<path fill="#000000" stroke="#000000" d="M26.57726447035656 -3.6448431371070624 L26.147433786121056 -3.1871199487434527 L26.147433786121056 -3.1871199487434527 L26.57726447035656 -3.6448431371070624 z"/>
<path fill="#000000" stroke="#000000" d="M27.061073738537637 -4.04508497187474 L26.57726447035656 -3.6448431371070624 L26.57726447035656 -3.6448431371070624 L27.061073738537637 -4.04508497187474 z"/>
<path fill="#000000" stroke="#000000" d="M28.75655056417573 -4.842915805643156 L28.159377236576617 -4.64888242944126 L28.159377236576617 -4.64888242944126 L28.75655056417573 -4.842915805643156 z"/>
<path fill="#000000" stroke="#000000" d="M29.37333383217848 -4.960573506572389 L28.75655056417573 -4.842915805643156 L28.75655056417573 -4.842915805643156 L29.37333383217848 -4.960573506572389 z"/>
<path fill="#000000" stroke="#000000" d="M27.59123162949143 -4.381533400219322 L27.061073738537637 -4.045084971874739 L27.061073738537637 -4.045084971874739 L27.59123162949143 -4.381533400219322 z"/>
<path fill="#000000" stroke="#000000" d="M28.159377236576614 -4.648882429441259 L27.59123162949143 -4.381533400219322 L27.59123162949143 -4.381533400219322 L28.159377236576614 -4.648882429441259 z"/>
<path fill="#000000" stroke="#000000" d="M30.62666616782152 -4.960573506572389 L30 -4.999999999999999 L29.373333832178485 -4.960573506572389 L28.756550564175736 -4.842915805643157 L28.159377236576617 -4.64888242944126 L27.59123162949143 -4.381533400219322 L27.06107373853764 -4.045084971874741 L26.57726447035656 -3.644843137107062 L26.147433786121056 -3.1871199487434527 L25.778360372489924 -2.679133974894987 L25.4758647376699 -2.128896457825367 L25.244717418524232 -1.5450849718747404 L25.088563746356556 -0.936906572928626 L25.00986635785864 -0.3139525976465689 L25.00986635785864 0.3139525976465634 L25.088563746356556 0.9369065729286206 L25.244717418524232 1.5450849718747353 L25.4758647376699 2.128896457825362 L25.778360372489924 2.6791339748949827 L26.147433786121052 3.1871199487434487 L26.577264470356553 3.6448431371070567 L27.061073738537633 4.045084971874736 L27.591231629491425 4.381533400219317 L28.15937723657661 4.648882429441257 L28.756550564175726 4.842915805643155 L29.37333383217848 4.960573506572389 L30 4.999999999999999 L30.626666167821522 4.960573506572388 L31.243449435824274 4.8429158056431545 L31.84062276342339 4.648882429441255 L32.408768370508575 4.3815334002193165 L32.93892626146236 4.0450849718747355 L33.42273552964344 3.6448431371070567 L33.852566213878944 3.187119948743448 L34.22163962751007 2.679133974894982 L34.5241352623301 2.1288964578253617 L34.75528258147577 1.5450849718747357 L34.91143625364344 0.9369065729286218 L34.99013364214135 0.3139525976465654 L34.99013364214135 -0.31395259764656813 L34.91143625364344 -0.9369065729286242 L34.75528258147576 -1.5450849718747381 L34.52413526233009 -2.128896457825364 L34.22163962751007 -2.679133974894984 L33.852566213878944 -3.1871199487434496 L33.42273552964344 -3.6448431371070584 L32.93892626146236 -4.045084971874737 L32.408768370508575 -4.381533400219317 L31.840622763423386 -4.648882429441256 L31.24344943582427 -4.8429158056431545 z"/>
<path fill="#000000" stroke="#000000" d="M30.62666616782152 -4.960573506572389 L31.24344943582427 -4.8429158056431545 L31.840622763423386 -4.648882429441256 L32.408768370508575 -4.381533400219317 L32.93892626146236 -4.045084971874737 L33.42273552964344 -3.6448431371070584 L33.852566213878944 -3.1871199487434496 L34.22163962751007 -2.679133974894984 L34.52413526233009 -2.128896457825364 L34.75528258147576 -1.5450849718747381 L34.91143625364344 -0.9369065729286242 L34.99013364214135 -0.31395259764656813 L34.99013364214135 0.3139525976465654 L34.91143625364344 0.9369065729286218 L34.75528258147577 1.5450849718747357 L34.5241352623301 2.1288964578253617 L34.22163962751007 2.679133974894982 L33.852566213878944 3.187119948743448 L33.42273552964344 3.6448431371070567 L32.93892626146236 4.0450849718747355 L32.408768370508575 4.3815334002193165 L31.84062276342339 4.648882429441255 L31.243449435824274 4.8429158056431545 L30.626666167821522 4.960573506572388 L30 4.999999999999999 L29.37333383217848 4.960573506572389 L28.756550564175726 4.842915805643155 L28.15937723657661 4.648882429441257 L27.591231629491425 4.381533400219317 L27.061073738537633 4.045084971874736 L26.577264470356553 3.6448431371070567 L26.147433786121052 3.1871199487434487 L25.778360372489924 2.6791339748949827 L25.4758647376699 2.128896457825362 L25.244717418524232 1.5450849718747353 L25.088563746356556 0.9369065729286206 L25.00986635785864 0.3139525976465634 L25.00986635785864 -0.3139525976465689 L25.088563746356556 -0.936906572928626 L25.244717418524232 -1.5450849718747404 L25.4758647376699 -2.128896457825367 L25.778360372489924 -2.679133974894987 L26.147433786121056 -3.1871199487434527 L26.57726447035656 -3.644843137107062 L27.06107373853764 -4.045084971874741 L27.59123162949143 -4.381533400219322 L28.159377236576617 -4.64888242944126 L28.756550564175736 -4.842915805643157 L29.373333832178485 -4.960573506572389 L30 -4.999999999999999 z"/>
<path fill="#000000" stroke="#000000" d="M19.831598250786243 24.623457859709063 L19.624721172934482 24.030611497709913 L19.624721172934482 24.030611497709913 L19.831598250786243 24.623457859709063 z"/>
<path fill="#000000" stroke="#000000" d="M19.624721172934482 24.030611497709916 L19.34517203107658 23.46836847946725 L19.34517203107658 23.46836847946725 L19.624721172934482 24.030611497709916 z"/>
<path fill="#000000" stroke="#000000" d="M19.34517203107658 23.468368479467255 L18.997359482174204 22.945595713246465 L18.997359482174204 22.945595713246465 L19.34517203107658 23.468368479467255 z"/>
<path fill="#000000" stroke="#000000" d="M19.96254068953177 25.237558024186715 L19.831598250786246 24.623457859709063 L19.831598250786246 24.623457859709063 L19.96254068953177 25.237558024186715 z"/>
<path fill="#000000" stroke="#000000" d="M20.015483448690826 25.863227264703408 L19.962540689531775 25.23755802418672 L19.962540689531775 25.23755802418672 L20.015483448690826 25.863227264703408 z"/>
<path fill="#000000" stroke="#000000" d="M19.989591589324995 26.490598403579504 L20.015483448690826 25.86322726470341 L20.015483448690826 25.86322726470341 L19.989591589324995 26.490598403579504 z"/>
<path fill="#000000" stroke="#000000" d="M19.885273441523527 27.10977742318157 L19.989591589324995 26.490598403579504 L19.989591589324995 26.490598403579504 L19.885273441523527 27.10977742318157 z"/>
<path fill="#000000" stroke="#000000" d="M19.449149802913574 28.284783004195575 L19.70417416479389 27.710999500490875 L19.70417416479389 27.710999500490875 L19.449149802913574 28.284783004195575 z"/>
<path fill="#000000" stroke="#000000" d="M19.70417416479389 27.710999500490875 L19.885273441523527 27.109777423181576 L19.885273441523527 27.109777423181576 L19.70417416479389 27.710999500490875 z"/>
<path fill="#000000" stroke="#000000" d="M18.73451578502538 29.31441408572207 L19.124222242413605 28.822079025680612 L19.124222242413605 28.822079025680612 L18.73451578502538 29.31441408572207 z"/>
<path fill="#000000" stroke="#000000" d="M18.28617633438126 29.7540237663164 L18.734515785025376 29.314414085722074 L18.734515785025376 29.314414085722074 L18.28617633438126 29.7540237663164 z"/>
<path fill="#000000" stroke="#000000" d="M16.664007351286198 30.691970191157264 L17.24269394721579 30.448276206891077 L17.24269394721579 30.448276206891077 L16.664007351286198 30.691970191157264 z"/>
<path fill="#000000" stroke="#000000" d="M17.786274471442923 30.133975160190516 L18.286176334381263 29.7540237663164 L18.286176334381263 29.7540237663164 L17.786274471442923 30.133975160190516 z"/>
<path fill="#000000" stroke="#000000" d="M17.242693947215795 30.448276206891077 L17.786274471442923 30.133975160190516 L17.786274471442923 30.133975160190516 L17.242693947215795 30.448276206891077 z"/>
<path fill="#000000" stroke="#000000" d="M16.05934091696257 30.86121391328147 L16.664007351286198 30.691970191157264 L16.664007351286198 30.691970191157264 L16.05934091696257 30.86121391328147 z"/>
<path fill="#000000" stroke="#000000" d="M15.438230595124407 30.953338298664498 L16.05934091696257 30.861213913281468 L16.05934091696257 30.861213913281468 L15.438230595124407 30.953338298664498 z"/>
<path fill="#000000" stroke="#000000" d="M14.810471666580417 30.96689049071642 L15.438230595124407 30.953338298664498 L15.438230595124407 30.953338298664498 L14.810471666580417 30.96689049071642 z"/>
<path fill="#000000" stroke="#000000" d="M19.124222242413605 28.822079025680615 L19.449149802913574 28.284783004195578 L19.449149802913574 28.284783004195578 L19.124222242413605 28.822079025680615 z"/>
<path fill="#000000" stroke="#000000" d="M14.18596426463875 30.90165676327289 L14.810471666580415 30.96689049071642 L14.810471666580415 30.96689049071642 L14.18596426463875 30.90165676327289 z"/>
<path fill="#000000" stroke="#000000" d="M13.574557244090663 30.758665891184425 L14.185964264638748 30.901656763272886 L14.185964264638748 30.901656763272886 L13.574557244090663 30.758665891184425 z"/>
<path fill="#000000" stroke="#000000" d="M12.98589285888705 30.540172925922477 L13.574557244090661 30.758665891184425 L13.574557244090661 30.758665891184425 L12.98589285888705 30.540172925922477 z"/>
<path fill="#000000" stroke="#000000" d="M12.429254698033628 30.249623632070588 L12.985892858887048 30.540172925922477 L12.985892858887048 30.540172925922477 L12.429254698033628 30.249623632070588 z"/>
<path fill="#000000" stroke="#000000" d="M11.91342127784658 29.891600145558545 L12.429254698033628 30.249623632070588 L12.429254698033628 30.249623632070588 L11.91342127784658 29.891600145558545 z"/>
<path fill="#000000" stroke="#000000" d="M11.446527599506199 29.471748710641506 L11.91342127784658 29.891600145558545 L11.91342127784658 29.891600145558545 L11.446527599506199 29.471748710641506 z"/>
<path fill="#000000" stroke="#000000" d="M11.035936855228682 28.9966906352552 L11.446527599506199 29.471748710641503 L11.446527599506199 29.471748710641503 L11.035936855228682 28.9966906352552 z"/>
<path fill="#000000" stroke="#000000" d="M10.688124306326301 28.473917869034402 L11.035936855228682 28.9966906352552 L11.035936855228682 28.9966906352552 L10.688124306326301 28.473917869034402 z"/>
<path fill="#000000" stroke="#000000" d="M10.4085751644684 27.91167485079174 L10.688124306326301 28.473917869034402 L10.688124306326301 28.473917869034402 L10.4085751644684 27.91167485079174 z"/>
<path fill="#000000" stroke="#000000" d="M10.201698086616636 27.318828488792594 L10.408575164468402 27.911674850791744 L10.408575164468402 27.911674850791744 L10.201698086616636 27.318828488792594 z"/>
<path fill="#000000" stroke="#000000" d="M10.07075564787111 26.70472832431494 L10.201698086616638 27.318828488792597 L10.201698086616638 27.318828488792597 L10.07075564787111 26.70472832431494 z"/>
<path fill="#000000" stroke="#000000" d="M10.017812888712058 26.079059083798246 L10.07075564787111 26.70472832431494 L10.07075564787111 26.70472832431494 L10.017812888712058 26.079059083798246 z"/>
<path fill="#000000" stroke="#000000" d="M10.04370474807789 25.45168794492215 L10.017812888712058 26.079059083798246 L10.017812888712058 26.079059083798246 L10.04370474807789 25.45168794492215 z"/>
<path fill="#000000" stroke="#000000" d="M10.148022895879357 24.83250892532008 L10.04370474807789 25.45168794492215 L10.04370474807789 25.45168794492215 L10.148022895879357 24.83250892532008 z"/>
<path fill="#000000" stroke="#000000" d="M10.58414653448931 23.657503344306075 L10.329122172608997 24.23128684801078 L10.329122172608997 24.23128684801078 L10.58414653448931 23.657503344306075 z"/>
<path fill="#000000" stroke="#000000" d="M10.909074094989284 23.120207322821038 L10.58414653448931 23.657503344306075 L10.58414653448931 23.657503344306075 L10.909074094989284 23.120207322821038 z"/>
<path fill="#000000" stroke="#000000" d="M11.29878055237751 22.62787226277958 L10.909074094989284 23.120207322821038 L10.909074094989284 23.120207322821038 L11.29878055237751 22.62787226277958 z"/>
<path fill="#000000" stroke="#000000" d="M10.329122172608995 24.231286848010782 L10.14802289587936 24.83250892532008 L10.14802289587936 24.83250892532008 L10.329122172608995 24.231286848010782 z"/>
<path fill="#000000" stroke="#000000" d="M11.747120003021621 22.188262582185263 L11.298780552377506 22.627872262779583 L11.298780552377506 22.627872262779583 L11.747120003021621 22.188262582185263 z"/>
<path fill="#000000" stroke="#000000" d="M12.247021865959963 21.808311188311144 L11.747120003021621 22.18826258218526 L11.747120003021621 22.18826258218526 L12.247021865959963 21.808311188311144 z"/>
<path fill="#000000" stroke="#000000" d="M13.973955420440317 21.081072435220193 L13.369288986116686 21.250316157344397 L13.369288986116686 21.250316157344397 L13.973955420440317 21.081072435220193 z"/>
<path fill="#000000" stroke="#000000" d="M13.369288986116686 21.250316157344397 L12.790602390187091 21.494010141610584 L12.790602390187091 21.494010141610584 L13.369288986116686 21.250316157344397 z"/>
<path fill="#000000" stroke="#000000" d="M12.790602390187091 21.494010141610584 L12.247021865959962 21.808311188311144 L12.247021865959962 21.808311188311144 L12.790602390187091 21.494010141610584 z"/>
<path fill="#000000" stroke="#000000" d="M15.84733207276414 21.040629585228775 L15.22282467082247 20.97539585778524 L15.22282467082247 20.97539585778524 L15.84733207276414 21.040629585228775 z"/>
<path fill="#000000" stroke="#000000" d="M15.222824670822469 20.97539585778524 L14.595065742278482 20.988948049837163 L14.595065742278482 20.988948049837163 L15.222824670822469 20.97539585778524 z"/>
<path fill="#000000" stroke="#000000" d="M14.59506574227848 20.988948049837163 L13.973955420440316 21.081072435220193 L13.973955420440316 21.081072435220193 L14.59506574227848 20.988948049837163 z"/>
<path fill="#000000" stroke="#000000" d="M16.45873909331223 21.18362045731724 L15.84733207276414 21.040629585228775 L15.84733207276414 21.040629585228775 L16.45873909331223 21.18362045731724 z"/>
<path fill="#000000" stroke="#000000" d="M17.04740347851584 21.402113422579188 L16.458739093312225 21.183620457317236 L16.458739093312225 21.183620457317236 L17.04740347851584 21.402113422579188 z"/>
<path fill="#000000" stroke="#000000" d="M18.58676873789669 22.470537637860165 L18.11987505955631 22.050686202943123 L18.11987505955631 22.050686202943123 L18.58676873789669 22.470537637860165 z"/>
<path fill="#000000" stroke="#000000" d="M18.997359482174204 22.945595713246465 L18.58676873789669 22.47053763786016 L18.58676873789669 22.47053763786016 L18.997359482174204 22.945595713246465 z"/>
<path fill="#000000" stroke="#000000" d="M17.604041639369264 21.692662716431077 L17.04740347851584 21.402113422579188 L17.04740347851584 21.402113422579188 L17.604041639369264 21.692662716431077 z"/>
<path fill="#000000" stroke="#000000" d="M18.11987505955631 22.050686202943123 L17.60404163936926 21.692662716431077 L17.60404163936926 21.692662716431077 L18.11987505955631 22.050686202943123 z"/>
<path fill="#000000" stroke="#000000" d="M19.624721172934482 24.03061149770992 L19.34517203107658 23.46836847946726 L18.997359482174204 22.94559571324647 L18.58676873789669 22.470537637860165 L18.11987505955631 22.05068620294312 L17.604041639369264 21.692662716431077 L17.047403478515843 21.40211342257919 L16.45873909331223 21.183620457317236 L15.84733207276414 21.04062958522877 L15.22282467082247 20.975395857785237 L14.595065742278482 20.98894804983716 L13.973955420440317 21.08107243522019 L13.369288986116686 21.250316157344397 L12.790602390187093 21.494010141610584 L12.247021865959963 21.80831118831114 L11.747120003021623 22.18826258218526 L11.298780552377508 22.627872262779583 L10.90907409498928 23.12020732282104 L10.58414653448931 23.657503344306075 L10.329122172608995 24.231286848010782 L10.148022895879357 24.83250892532008 L10.043704748077888 25.45168794492215 L10.017812888712058 26.07905908379825 L10.07075564787111 26.704728324314942 L10.201698086616638 27.318828488792597 L10.408575164468402 27.91167485079174 L10.688124306326305 28.473917869034402 L11.035936855228682 28.996690635255195 L11.4465275995062 29.471748710641503 L11.913421277846581 29.89160014555854 L12.42925469803363 30.249623632070588 L12.98589285888705 30.54017292592247 L13.574557244090663 30.758665891184425 L14.18596426463875 30.901656763272886 L14.810471666580419 30.966890490716416 L15.438230595124407 30.953338298664498 L16.05934091696257 30.861213913281468 L16.6640073512862 30.69197019115726 L17.242693947215795 30.448276206891073 L17.786274471442923 30.133975160190513 L18.286176334381263 29.754023766316397 L18.734515785025376 29.31441408572207 L19.1242222424136 28.822079025680612 L19.449149802913574 28.284783004195575 L19.704174164793887 27.71099950049087 L19.885273441523527 27.109777423181573 L19.989591589324995 26.490598403579504 L20.015483448690826 25.86322726470341 L19.962540689531775 25.237558024186722 L19.831598250786246 24.623457859709063 z"/>
<path fill="#000000" stroke="#000000" d="M19.624721172934482 24.03061149770992 L19.831598250786246 24.623457859709063 L19.962540689531775 25.237558024186722 L20.015483448690826 25.86322726470341 L19.989591589324995 26.490598403579504 L19.885273441523527 27.109777423181573 L19.704174164793887 27.71099950049087 L19.449149802913574 28.284783004195575 L19.1242222424136 28.822079025680612 L18.734515785025376 29.31441408572207 L18.286176334381263 29.754023766316397 L17.786274471442923 30.133975160190513 L17.242693947215795 30.448276206891073 L16.6640073512862 30.69197019115726 L16.05934091696257 30.861213913281468 L15.438230595124407 30.953338298664498 L14.810471666580419 30.966890490716416 L14.18596426463875 30.901656763272886 L13.574557244090663 30.758665891184425 L12.98589285888705 30.54017292592247 L12.42925469803363 30.249623632070588 L11.913421277846581 29.89160014555854 L11.4465275995062 29.471748710641503 L11.035936855228682 28.996690635255195 L10.688124306326305 28.473917869034402 L10.408575164468402 27.91167485079174 L10.201698086616638 27.318828488792597 L10.07075564787111 26.704728324314942 L10.017812888712058 26.07905908379825 L10.043704748077888 25.45168794492215 L10.148022895879357 24.83250892532008 L10.329122172608995 24.231286848010782 L10.58414653448931 23.657503344306075 L10.90907409498928 23.12020732282104 L11.298780552377508 22.627872262779583 L11.747120003021623 22.18826258218526 L12.247021865959963 21.80831118831114 L12.790602390187093 21.494010141610584 L13.369288986116686 21.250316157344397 L13.973955420440317 21.08107243522019 L14.595065742278482 20.98894804983716 L15.22282467082247 20.975395857785237 L15.84733207276414 21.04062958522877 L16.45873909331223 21.183620457317236 L17.047403478515843 21.40211342257919 L17.604041639369264 21.692662716431077 L18.11987505955631 22.05068620294312 L18.58676873789669 22.470537637860165 L18.997359482174204 22.94559571324647 L19.34517203107658 23.46836847946726 z"/>
<path fill="#000000" stroke="#000000" d="M-11.446527599506197 29.471748710641503 L-11.03593685522868 28.996690635255195 L-11.03593685522868 28.996690635255195 L-11.446527599506197 29.471748710641503 z"/>
<path fill="#000000" stroke="#000000" d="M-11.035936855228679 28.996690635255195 L-10.688124306326303 28.473917869034402 L-10.688124306326303 28.473917869034402 L-11.035936855228679 28.996690635255195 z"/>
<path fill="#000000" stroke="#000000" d="M-10.688124306326303 28.473917869034405 L-10.408575164468402 27.911674850791744 L-10.408575164468402 27.911674850791744 L-10.688124306326303 28.473917869034405 z"/>
<path fill="#000000" stroke="#000000" d="M-11.913421277846577 29.891600145558545 L-11.446527599506199 29.471748710641503 L-11.446527599506199 29.471748710641503 L-11.913421277846577 29.891600145558545 z"/>
<path fill="#000000" stroke="#000000" d="M-12.429254698033626 30.249623632070588 L-11.913421277846576 29.891600145558545 L-11.913421277846576 29.891600145558545 L-12.429254698033626 30.249623632070588 z"/>
<path fill="#000000" stroke="#000000" d="M-12.985892858887047 30.540172925922473 L-12.429254698033626 30.249623632070588 L-12.429254698033626 30.249623632070588 L-12.985892858887047 30.540172925922473 z"/>
<path fill="#000000" stroke="#000000" d="M-13.57455724409066 30.758665891184425 L-12.985892858887047 30.540172925922473 L-12.985892858887047 30.540172925922473 L-13.57455724409066 30.758665891184425 z"/>
<path fill="#000000" stroke="#000000" d="M-14.810471666580415 30.96689049071642 L-14.185964264638747 30.901656763272886 L-14.185964264638747 30.901656763272886 L-14.810471666580415 30.96689049071642 z"/>
<path fill="#000000" stroke="#000000" d="M-14.185964264638748 30.901656763272886 L-13.574557244090661 30.758665891184425 L-13.574557244090661 30.758665891184425 L-14.185964264638748 30.901656763272886 z"/>
<path fill="#000000" stroke="#000000" d="M-16.059340916962565 30.86121391328147 L-15.438230595124402 30.953338298664498 L-15.438230595124402 30.953338298664498 L-16.059340916962565 30.86121391328147 z"/>
<path fill="#000000" stroke="#000000" d="M-16.664007351286198 30.691970191157264 L-16.059340916962565 30.86121391328147 L-16.059340916962565 30.86121391328147 L-16.664007351286198 30.691970191157264 z"/>
<path fill="#000000" stroke="#000000" d="M-18.28617633438126 29.7540237663164 L-17.78627447144292 30.13397516019052 L-17.78627447144292 30.13397516019052 L-18.28617633438126 29.7540237663164 z"/>
<path fill="#000000" stroke="#000000" d="M-17.242693947215788 30.448276206891077 L-16.664007351286195 30.691970191157264 L-16.664007351286195 30.691970191157264 L-17.242693947215788 30.448276206891077 z"/>
<path fill="#000000" stroke="#000000" d="M-17.78627447144292 30.13397516019052 L-17.24269394721579 30.448276206891077 L-17.24269394721579 30.448276206891077 L-17.78627447144292 30.13397516019052 z"/>
<path fill="#000000" stroke="#000000" d="M-18.734515785025373 29.31441408572208 L-18.28617633438126 29.7540237663164 L-18.28617633438126 29.7540237663164 L-18.734515785025373 29.31441408572208 z"/>
<path fill="#000000" stroke="#000000" d="M-19.124222242413605 28.822079025680615 L-18.734515785025376 29.314414085722074 L-18.734515785025376 29.314414085722074 L-19.124222242413605 28.822079025680615 z"/>
<path fill="#000000" stroke="#000000" d="M-19.449149802913574 28.28478300419558 L-19.124222242413605 28.822079025680615 L-19.124222242413605 28.822079025680615 L-19.449149802913574 28.28478300419558 z"/>
<path fill="#000000" stroke="#000000" d="M-15.438230595124404 30.953338298664498 L-14.810471666580415 30.96689049071642 L-14.810471666580415 30.96689049071642 L-15.438230595124404 30.953338298664498 z"/>
<path fill="#000000" stroke="#000000" d="M-19.70417416479389 27.710999500490875 L-19.449149802913574 28.28478300419558 L-19.449149802913574 28.28478300419558 L-19.70417416479389 27.710999500490875 z"/>
<path fill="#000000" stroke="#000000" d="M-19.885273441523527 27.109777423181573 L-19.704174164793887 27.71099950049088 L-19.704174164793887 27.71099950049088 L-19.885273441523527 27.109777423181573 z"/>
<path fill="#000000" stroke="#000000" d="M-19.989591589324995 26.49059840357951 L-19.885273441523527 27.109777423181576 L-19.885273441523527 27.109777423181576 L-19.989591589324995 26.49059840357951 z"/>
<path fill="#000000" stroke="#000000" d="M-20.015483448690826 25.86322726470341 L-19.989591589324995 26.490598403579504 L-19.989591589324995 26.490598403579504 L-20.015483448690826 25.86322726470341 z"/>
<path fill="#000000" stroke="#000000" d="M-19.962540689531775 25.237558024186722 L-20.015483448690826 25.86322726470341 L-20.015483448690826 25.86322726470341 L-19.962540689531775 25.237558024186722 z"/>
<path fill="#000000" stroke="#000000" d="M-19.831598250786246 24.623457859709067 L-19.96254068953177 25.23755802418672 L-19.96254068953177 25.23755802418672 L-19.831598250786246 24.623457859709067 z"/>
<path fill="#000000" stroke="#000000" d="M-19.624721172934482 24.030611497709916 L-19.831598250786246 24.623457859709067 L-19.831598250786246 24.623457859709067 L-19.624721172934482 24.030611497709916 z"/>
<path fill="#000000" stroke="#000000" d="M-19.34517203107658 23.468368479467255 L-19.62472117293448 24.030611497709916 L-19.62472117293448 24.030611497709916 L-19.34517203107658 23.468368479467255 z"/>
<path fill="#000000" stroke="#000000" d="M-18.9973594821742 22.945595713246465 L-19.34517203107658 23.468368479467255 L-19.34517203107658 23.468368479467255 L-18.9973594821742 22.945595713246465 z"/>
<path fill="#000000" stroke="#000000" d="M-18.586768737896683 22.470537637860154 L-18.997359482174204 22.945595713246465 L-18.997359482174204 22.945595713246465 L-18.586768737896683 22.470537637860154 z"/>
<path fill="#000000" stroke="#000000" d="M-18.119875059556307 22.050686202943115 L-18.586768737896687 22.470537637860158 L-18.586768737896687 22.470537637860158 L-18.119875059556307 22.050686202943115 z"/>
<path fill="#000000" stroke="#000000" d="M-17.604041639369253 21.692662716431073 L-18.119875059556303 22.050686202943115 L-18.119875059556303 22.050686202943115 L-17.604041639369253 21.692662716431073 z"/>
<path fill="#000000" stroke="#000000" d="M-17.047403478515832 21.402113422579188 L-17.604041639369257 21.692662716431073 L-17.604041639369257 21.692662716431073 L-17.047403478515832 21.402113422579188 z"/>
<path fill="#000000" stroke="#000000" d="M-16.458739093312218 21.183620457317236 L-17.047403478515832 21.402113422579188 L-17.047403478515832 21.402113422579188 L-16.458739093312218 21.183620457317236 z"/>
<path fill="#000000" stroke="#000000" d="M-15.222824670822465 20.97539585778524 L-15.847332072764132 21.040629585228775 L-15.847332072764132 21.040629585228775 L-15.222824670822465 20.97539585778524 z"/>
<path fill="#000000" stroke="#000000" d="M-14.595065742278475 20.988948049837163 L-15.222824670822463 20.97539585778524 L-15.222824670822463 20.97539585778524 L-14.595065742278475 20.988948049837163 z"/>
<path fill="#000000" stroke="#000000" d="M-13.97395542044031 21.081072435220193 L-14.595065742278475 20.988948049837163 L-14.595065742278475 20.988948049837163 L-13.97395542044031 21.081072435220193 z"/>
<path fill="#000000" stroke="#000000" d="M-15.847332072764134 21.040629585228775 L-16.458739093312218 21.183620457317236 L-16.458739093312218 21.183620457317236 L-15.847332072764134 21.040629585228775 z"/>
<path fill="#000000" stroke="#000000" d="M-13.369288986116679 21.2503161573444 L-13.97395542044031 21.081072435220193 L-13.97395542044031 21.081072435220193 L-13.369288986116679 21.2503161573444 z"/>
<path fill="#000000" stroke="#000000" d="M-12.790602390187086 21.494010141610588 L-13.369288986116679 21.2503161573444 L-13.369288986116679 21.2503161573444 L-12.790602390187086 21.494010141610588 z"/>
<path fill="#000000" stroke="#000000" d="M-11.298780552377503 22.62787226277959 L-11.747120003021617 22.188262582185263 L-11.747120003021617 22.188262582185263 L-11.298780552377503 22.62787226277959 z"/>
<path fill="#000000" stroke="#000000" d="M-11.747120003021616 22.188262582185267 L-12.247021865959958 21.808311188311148 L-12.247021865959958 21.808311188311148 L-11.747120003021616 22.188262582185267 z"/>
<path fill="#000000" stroke="#000000" d="M-12.247021865959956 21.808311188311148 L-12.790602390187086 21.494010141610588 L-12.790602390187086 21.494010141610588 L-12.247021865959956 21.808311188311148 z"/>
<path fill="#000000" stroke="#000000" d="M-10.329122172608994 24.23128684801079 L-10.584146534489308 23.65750334430608 L-10.584146534489308 23.65750334430608 L-10.329122172608994 24.23128684801079 z"/>
<path fill="#000000" stroke="#000000" d="M-10.584146534489308 23.657503344306082 L-10.90907409498928 23.120207322821045 L-10.90907409498928 23.120207322821045 L-10.584146534489308 23.657503344306082 z"/>
<path fill="#000000" stroke="#000000" d="M-10.909074094989277 23.12020732282105 L-11.298780552377506 22.627872262779587 L-11.298780552377506 22.627872262779587 L-10.909074094989277 23.12020732282105 z"/>
<path fill="#000000" stroke="#000000" d="M-10.148022895879356 24.83250892532009 L-10.329122172608995 24.231286848010786 L-10.329122172608995 24.231286848010786 L-10.148022895879356 24.83250892532009 z"/>
<path fill="#000000" stroke="#000000" d="M-10.043704748077888 25.45168794492216 L-10.148022895879357 24.832508925320088 L-10.148022895879357 24.832508925320088 L-10.043704748077888 25.45168794492216 z"/>
<path fill="#000000" stroke="#000000" d="M-10.20169808661664 27.318828488792605 L-10.07075564787111 26.704728324314946 L-10.07075564787111 26.704728324314946 L-10.20169808661664 27.318828488792605 z"/>
<path fill="#000000" stroke="#000000" d="M-10.408575164468402 27.911674850791744 L-10.20169808661664 27.318828488792605 L-10.20169808661664 27.318828488792605 L-10.408575164468402 27.911674850791744 z"/>
<path fill="#000000" stroke="#000000" d="M-10.017812888712056 26.079059083798253 L-10.043704748077888 25.45168794492216 L-10.043704748077888 25.45168794492216 L-10.017812888712056 26.079059083798253 z"/>
<path fill="#000000" stroke="#000000" d="M-10.070755647871112 26.704728324314946 L-10.017812888712056 26.079059083798253 L-10.017812888712056 26.079059083798253 L-10.070755647871112 26.704728324314946 z"/>
<path fill="#000000" stroke="#000000" d="M-11.03593685522868 28.996690635255195 L-10.688124306326303 28.473917869034402 L-10.408575164468404 27.911674850791748 L-10.20169808661664 27.3188284887926 L-10.070755647871112 26.70472832431495 L-10.017812888712056 26.079059083798253 L-10.043704748077888 25.45168794492216 L-10.148022895879356 24.832508925320088 L-10.329122172608994 24.23128684801079 L-10.584146534489307 23.657503344306082 L-10.909074094989277 23.12020732282105 L-11.298780552377504 22.627872262779587 L-11.747120003021617 22.18826258218526 L-12.247021865959958 21.808311188311144 L-12.790602390187088 21.494010141610588 L-13.36928898611668 21.2503161573444 L-13.973955420440312 21.08107243522019 L-14.595065742278477 20.98894804983716 L-15.222824670822465 20.975395857785237 L-15.847332072764134 21.04062958522877 L-16.458739093312218 21.183620457317236 L-17.047403478515836 21.402113422579184 L-17.604041639369257 21.692662716431073 L-18.119875059556307 22.050686202943115 L-18.586768737896687 22.470537637860158 L-18.997359482174204 22.945595713246465 L-19.34517203107658 23.46836847946726 L-19.624721172934482 24.03061149770992 L-19.831598250786246 24.623457859709067 L-19.962540689531775 25.237558024186722 L-20.015483448690826 25.86322726470341 L-19.989591589324995 26.490598403579504 L-19.885273441523527 27.109777423181573 L-19.704174164793887 27.71099950049088 L-19.449149802913574 28.28478300419558 L-19.1242222424136 28.82207902568062 L-18.734515785025376 29.31441408572207 L-18.28617633438126 29.754023766316397 L-17.786274471442923 30.133975160190513 L-17.24269394721579 30.448276206891073 L-16.664007351286198 30.69197019115726 L-16.05934091696257 30.861213913281468 L-15.438230595124404 30.953338298664498 L-14.810471666580415 30.966890490716416 L-14.185964264638748 30.901656763272886 L-13.574557244090661 30.75866589118442 L-12.985892858887048 30.54017292592247 L-12.429254698033628 30.249623632070584 L-11.91342127784658 29.89160014555854 L-11.446527599506199 29.4717487106415 z"/>
<path fill="#000000" stroke="#000000" d="M-11.03593685522868 28.996690635255195 L-11.446527599506199 29.4717487106415 L-11.91342127784658 29.89160014555854 L-12.429254698033628 30.249623632070584 L-12.985892858887048 30.54017292592247 L-13.574557244090661 30.75866589118442 L-14.185964264638748 30.901656763272886 L-14.810471666580415 30.966890490716416 L-15.438230595124404 30.953338298664498 L-16.05934091696257 30.861213913281468 L-16.664007351286198 30.69197019115726 L-17.24269394721579 30.448276206891073 L-17.786274471442923 30.133975160190513 L-18.28617633438126 29.754023766316397 L-18.734515785025376 29.31441408572207 L-19.1242222424136 28.82207902568062 L-19.449149802913574 28.28478300419558 L-19.704174164793887 27.71099950049088 L-19.885273441523527 27.109777423181573 L-19.989591589324995 26.490598403579504 L-20.015483448690826 25.86322726470341 L-19.962540689531775 25.237558024186722 L-19.831598250786246 24.623457859709067 L-19.624721172934482 24.03061149770992 L-19.34517203107658 23.46836847946726 L-18.997359482174204 22.945595713246465 L-18.586768737896687 22.470537637860158 L-18.119875059556307 22.050686202943115 L-17.604041639369257 21.692662716431073 L-17.047403478515836 21.402113422579184 L-16.458739093312218 21.183620457317236 L-15.847332072764134 21.04062958522877 L-15.222824670822465 20.975395857785237 L-14.595065742278477 20.98894804983716 L-13.973955420440312 21.08107243522019 L-13.36928898611668 21.2503161573444 L-12.790602390187088 21.494010141610588 L-12.247021865959958 21.808311188311144 L-11.747120003021617 22.18826258218526 L-11.298780552377504 22.627872262779587 L-10.909074094989277 23.12020732282105 L-10.584146534489307 23.657503344306082 L-10.329122172608994 24.23128684801079 L-10.148022895879356 24.832508925320088 L-10.043704748077888 25.45168794492216 L-10.017812888712056 26.079059083798253 L-10.070755647871112 26.70472832431495 L-10.20169808661664 27.3188284887926 L-10.408575164468404 27.911674850791748 L-10.688124306326303 28.473917869034402 z"/>
<path fill="#000000" stroke="#000000" d="M-31.243449435824267 4.842915805643155 L-30.62666616782152 4.9605735065723895 L-30.62666616782152 4.9605735065723895 L-31.243449435824267 4.842915805643155 z"/>
<path fill="#000000" stroke="#000000" d="M-30.626666167821515 4.9605735065723895 L-29.999999999999996 5 L-29.999999999999996 5 L-30.626666167821515 4.9605735065723895 z"/>
<path fill="#000000" stroke="#000000" d="M-29.999999999999996 4.999999999999999 L-29.37333383217848 4.960573506572389 L-29.37333383217848 4.960573506572389 L-29.999999999999996 4.999999999999999 z"/>
<path fill="#000000" stroke="#000000" d="M-31.840622763423386 4.648882429441257 L-31.243449435824267 4.842915805643156 L-31.243449435824267 4.842915805643156 L-31.840622763423386 4.648882429441257 z"/>
<path fill="#000000" stroke="#000000" d="M-32.40876837050857 4.381533400219319 L-31.840622763423386 4.648882429441257 L-31.840622763423386 4.648882429441257 L-32.40876837050857 4.381533400219319 z"/>
<path fill="#000000" stroke="#000000" d="M-32.93892626146236 4.045084971874738 L-32.40876837050857 4.38153340021932 L-32.40876837050857 4.38153340021932 L-32.93892626146236 4.045084971874738 z"/>
<path fill="#000000" stroke="#000000" d="M-33.42273552964343 3.644843137107062 L-32.938926261462356 4.045084971874739 L-32.938926261462356 4.045084971874739 L-33.42273552964343 3.644843137107062 z"/>
<path fill="#000000" stroke="#000000" d="M-34.22163962751007 2.679133974894984 L-33.852566213878944 3.1871199487434496 L-33.852566213878944 3.1871199487434496 L-34.22163962751007 2.679133974894984 z"/>
<path fill="#000000" stroke="#000000" d="M-33.852566213878944 3.1871199487434496 L-33.42273552964344 3.6448431371070584 L-33.42273552964344 3.6448431371070584 L-33.852566213878944 3.1871199487434496 z"/>
<path fill="#000000" stroke="#000000" d="M-34.75528258147576 1.5450849718747381 L-34.52413526233009 2.128896457825364 L-34.52413526233009 2.128896457825364 L-34.75528258147576 1.5450849718747381 z"/>
<path fill="#000000" stroke="#000000" d="M-34.91143625364344 0.9369065729286242 L-34.75528258147576 1.5450849718747381 L-34.75528258147576 1.5450849718747381 L-34.91143625364344 0.9369065729286242 z"/>
<path fill="#000000" stroke="#000000" d="M-34.91143625364344 -0.9369065729286217 L-34.99013364214135 -0.3139525976465654 L-34.99013364214135 -0.3139525976465654 L-34.91143625364344 -0.9369065729286217 z"/>
<path fill="#000000" stroke="#000000" d="M-34.99013364214135 0.31395259764656813 L-34.91143625364344 0.9369065729286242 L-34.91143625364344 0.9369065729286242 L-34.99013364214135 0.31395259764656813 z"/>
<path fill="#000000" stroke="#000000" d="M-34.99013364214135 -0.31395259764656547 L-34.99013364214135 0.3139525976465682 L-34.99013364214135 0.3139525976465682 L-34.99013364214135 -0.31395259764656547 z"/>
<path fill="#000000" stroke="#000000" d="M-34.75528258147577 -1.5450849718747355 L-34.91143625364344 -0.9369065729286218 L-34.91143625364344 -0.9369065729286218 L-34.75528258147577 -1.5450849718747355 z"/>
<path fill="#000000" stroke="#000000" d="M-34.5241352623301 -2.1288964578253617 L-34.75528258147577 -1.5450849718747355 L-34.75528258147577 -1.5450849718747355 L-34.5241352623301 -2.1288964578253617 z"/>
<path fill="#000000" stroke="#000000" d="M-34.22163962751007 -2.679133974894982 L-34.5241352623301 -2.1288964578253617 L-34.5241352623301 -2.1288964578253617 L-34.22163962751007 -2.679133974894982 z"/>
<path fill="#000000" stroke="#000000" d="M-34.52413526233009 2.128896457825364 L-34.22163962751007 2.679133974894984 L-34.22163962751007 2.679133974894984 L-34.52413526233009 2.128896457825364 z"/>
<path fill="#000000" stroke="#000000" d="M-33.852566213878944 -3.187119948743448 L-34.22163962751007 -2.679133974894982 L-34.22163962751007 -2.679133974894982 L-33.852566213878944 -3.187119948743448 z"/>
<path fill="#000000" stroke="#000000" d="M-33.42273552964344 -3.6448431371070567 L-33.852566213878944 -3.187119948743448 L-33.852566213878944 -3.187119948743448 L-33.42273552964344 -3.6448431371070567 z"/>
<path fill="#000000" stroke="#000000" d="M-32.938926261462356 -4.045084971874739 L-33.42273552964344 -3.6448431371070584 L-33.42273552964344 -3.6448431371070584 L-32.938926261462356 -4.045084971874739 z"/>
<path fill="#000000" stroke="#000000" d="M-32.408768370508575 -4.381533400219318 L-32.93892626146236 -4.045084971874738 L-32.93892626146236 -4.045084971874738 L-32.408768370508575 -4.381533400219318 z"/>
<path fill="#000000" stroke="#000000" d="M-31.840622763423386 -4.648882429441257 L-32.40876837050857 -4.381533400219319 L-32.40876837050857 -4.381533400219319 L-31.840622763423386 -4.648882429441257 z"/>
<path fill="#000000" stroke="#000000" d="M-31.243449435824274 -4.842915805643155 L-31.840622763423386 -4.648882429441256 L-31.840622763423386 -4.648882429441256 L-31.243449435824274 -4.842915805643155 z"/>
<path fill="#000000" stroke="#000000" d="M-30.62666616782152 -4.960573506572389 L-31.243449435824274 -4.842915805643155 L-31.243449435824274 -4.842915805643155 L-30.62666616782152 -4.960573506572389 z"/>
<path fill="#000000" stroke="#000000" d="M-29.999999999999996 -5 L-30.626666167821522 -4.960573506572389 L-30.626666167821522 -4.960573506572389 L-29.999999999999996 -5 z"/>
<path fill="#000000" stroke="#000000" d="M-29.373333832178474 -4.960573506572389 L-30 -4.999999999999999 L-30 -4.999999999999999 L-29.373333832178474 -4.960573506572389 z"/>
<path fill="#000000" stroke="#000000" d="M-28.756550564175726 -4.842915805643155 L-29.373333832178478 -4.960573506572389 L-29.373333832178478 -4.960573506572389 L-28.756550564175726 -4.842915805643155 z"/>
<path fill="#000000" stroke="#000000" d="M-28.159377236576606 -4.648882429441256 L-28.756550564175726 -4.842915805643155 L-28.756550564175726 -4.842915805643155 L-28.159377236576606 -4.648882429441256 z"/>
<path fill="#000000" stroke="#000000" d="M-27.59123162949142 -4.381533400219317 L-28.159377236576606 -4.648882429441256 L-28.159377236576606 -4.648882429441256 L-27.59123162949142 -4.381533400219317 z"/>
<path fill="#000000" stroke="#000000" d="M-27.06107373853763 -4.0450849718747355 L-27.591231629491418 -4.381533400219316 L-27.591231629491418 -4.381533400219316 L-27.06107373853763 -4.0450849718747355 z"/>
<path fill="#000000" stroke="#000000" d="M-26.577264470356553 -3.6448431371070553 L-27.06107373853763 -4.045084971874734 L-27.06107373853763 -4.045084971874734 L-26.577264470356553 -3.6448431371070553 z"/>
<path fill="#000000" stroke="#000000" d="M-25.77836037248992 -2.6791339748949827 L-26.147433786121052 -3.1871199487434487 L-26.147433786121052 -3.1871199487434487 L-25.77836037248992 -2.6791339748949827 z"/>
<path fill="#000000" stroke="#000000" d="M-25.475864737669898 -2.128896457825362 L-25.77836037248992 -2.6791339748949827 L-25.77836037248992 -2.6791339748949827 L-25.475864737669898 -2.128896457825362 z"/>
<path fill="#000000" stroke="#000000" d="M-25.24471741852423 -1.5450849718747353 L-25.475864737669898 -2.128896457825362 L-25.475864737669898 -2.128896457825362 L-25.24471741852423 -1.5450849718747353 z"/>
<path fill="#000000" stroke="#000000" d="M-26.147433786121052 -3.1871199487434487 L-26.577264470356553 -3.644843137107056 L-26.577264470356553 -3.644843137107056 L-26.147433786121052 -3.1871199487434487 z"/>
<path fill="#000000" stroke="#000000" d="M-25.088563746356552 -0.9369065729286205 L-25.24471741852423 -1.545084971874735 L-25.24471741852423 -1.545084971874735 L-25.088563746356552 -0.9369065729286205 z"/>
<path fill="#000000" stroke="#000000" d="M-25.00986635785864 -0.3139525976465634 L-25.088563746356552 -0.9369065729286205 L-25.088563746356552 -0.9369065729286205 L-25.00986635785864 -0.3139525976465634 z"/>
<path fill="#000000" stroke="#000000" d="M-25.244717418524232 1.5450849718747404 L-25.088563746356556 0.936906572928626 L-25.088563746356556 0.936906572928626 L-25.244717418524232 1.5450849718747404 z"/>
<path fill="#000000" stroke="#000000" d="M-25.088563746356556 0.9369065729286259 L-25.00986635785864 0.3139525976465689 L-25.00986635785864 0.3139525976465689 L-25.088563746356556 0.9369065729286259 z"/>
<path fill="#000000" stroke="#000000" d="M-25.00986635785864 0.31395259764656896 L-25.00986635785864 -0.31395259764656347 L-25.00986635785864 -0.31395259764656347 L-25.00986635785864 0.31395259764656896 z"/>
<path fill="#000000" stroke="#000000" d="M-26.147433786121056 3.1871199487434527 L-25.778360372489924 2.679133974894987 L-25.778360372489924 2.679133974894987 L-26.147433786121056 3.1871199487434527 z"/>
<path fill="#000000" stroke="#000000" d="M-25.778360372489924 2.679133974894987 L-25.4758647376699 2.128896457825367 L-25.4758647376699 2.128896457825367 L-25.778360372489924 2.679133974894987 z"/>
<path fill="#000000" stroke="#000000" d="M-25.4758647376699 2.128896457825367 L-25.244717418524232 1.5450849718747401 L-25.244717418524232 1.5450849718747401 L-25.4758647376699 2.128896457825367 z"/>
<path fill="#000000" stroke="#000000" d="M-26.57726447035656 3.6448431371070624 L-26.147433786121056 3.1871199487434527 L-26.147433786121056 3.1871199487434527 L-26.57726447035656 3.6448431371070624 z"/>
<path fill="#000000" stroke="#000000" d="M-27.061073738537637 4.04508497187474 L-26.57726447035656 3.6448431371070624 L-26.57726447035656 3.6448431371070624 L-27.061073738537637 4.04508497187474 z"/>
<path fill="#000000" stroke="#000000" d="M-28.75655056417573 4.842915805643156 L-28.159377236576617 4.64888242944126 L-28.159377236576617 4.64888242944126 L-28.75655056417573 4.842915805643156 z"/>
<path fill="#000000" stroke="#000000" d="M-29.37333383217848 4.960573506572389 L-28.75655056417573 4.842915805643156 L-28.75655056417573 4.842915805643156 L-29.37333383217848 4.960573506572389 z"/>
<path fill="#000000" stroke="#000000" d="M-27.59123162949143 4.381533400219322 L-27.061073738537637 4.045084971874739 L-27.061073738537637 4.045084971874739 L-27.59123162949143 4.381533400219322 z"/>
<path fill="#000000" stroke="#000000" d="M-28.159377236576614 4.648882429441259 L-27.59123162949143 4.381533400219322 L-27.59123162949143 4.381533400219322 L-28.159377236576614 4.648882429441259 z"/>
<path fill="#000000" stroke="#000000" d="M-30.62666616782152 4.960573506572389 L-30 4.999999999999999 L-29.373333832178485 4.960573506572389 L-28.756550564175736 4.842915805643157 L-28.159377236576617 4.64888242944126 L-27.59123162949143 4.381533400219322 L-27.06107373853764 4.045084971874741 L-26.57726447035656 3.644843137107062 L-26.147433786121056 3.1871199487434527 L-25.778360372489924 2.679133974894987 L-25.4758647376699 2.128896457825367 L-25.244717418524232 1.5450849718747404 L-25.088563746356556 0.936906572928626 L-25.00986635785864 0.3139525976465689 L-25.00986635785864 -0.3139525976465634 L-25.088563746356556 -0.9369065729286206 L-25.244717418524232 -1.5450849718747353 L-25.4758647376699 -2.128896457825362 L-25.778360372489924 -2.6791339748949827 L-26.147433786121052 -3.1871199487434487 L-26.577264470356553 -3.6448431371070567 L-27.061073738537633 -4.045084971874736 L-27.591231629491425 -4.381533400219317 L-28.15937723657661 -4.648882429441257 L-28.756550564175726 -4.842915805643155 L-29.37333383217848 -4.960573506572389 L-30 -4.999999999999999 L-30.626666167821522 -4.960573506572388 L-31.243449435824274 -4.8429158056431545 L-31.84062276342339 -4.648882429441255 L-32.408768370508575 -4.3815334002193165 L-32.93892626146236 -4.0450849718747355 L-33.42273552964344 -3.6448431371070567 L-33.852566213878944 -3.187119948743448 L-34.22163962751007 -2.679133974894982 L-34.5241352623301 -2.1288964578253617 L-34.75528258147577 -1.5450849718747357 L-34.91143625364344 -0.9369065729286218 L-34.99013364214135 -0.3139525976465654 L-34.99013364214135 0.31395259764656813 L-34.91143625364344 0.9369065729286242 L-34.75528258147576 1.5450849718747381 L-34.52413526233009 2.128896457825364 L-34.22163962751007 2.679133974894984 L-33.852566213878944 3.1871199487434496 L-33.42273552964344 3.6448431371070584 L-32.93892626146236 4.045084971874737 L-32.408768370508575 4.381533400219317 L-31.840622763423386 4.648882429441256 L-31.24344943582427 4.8429158056431545 z"/>
<path fill="#000000" stroke="#000000" d="M-30.62666616782152 4.960573506572389 L-31.24344943582427 4.8429158056431545 L-31.840622763423386 4.648882429441256 L-32.408768370508575 4.381533400219317 L-32.93892626146236 4.045084971874737 L-33.42273552964344 3.6448431371070584 L-33.852566213878944 3.1871199487434496 L-34.22163962751007 2.679133974894984 L-34.52413526233009 2.128896457825364 L-34.75528258147576 1.5450849718747381 L-34.91143625364344 0.9369065729286242 L-34.99013364214135 0.31395259764656813 L-34.99013364214135 -0.3139525976465654 L-34.91143625364344 -0.9369065729286218 L-34.75528258147577 -1.5450849718747357 L-34.5241352623301 -2.1288964578253617 L-34.22163962751007 -2.679133974894982 L-33.852566213878944 -3.187119948743448 L-33.42273552964344 -3.6448431371070567 L-32.93892626146236 -4.0450849718747355 L-32.408768370508575 -4.3815334002193165 L-31.84062276342339 -4.648882429441255 L-31.243449435824274 -4.8429158056431545 L-30.626666167821522 -4.960573506572388 L-30 -4.999999999999999 L-29.37333383217848 -4.960573506572389 L-28.756550564175726 -4.842915805643155 L-28.15937723657661 -4.648882429441257 L-27.591231629491425 -4.381533400219317 L-27.061073738537633 -4.045084971874736 L-26.577264470356553 -3.6448431371070567 L-26.147433786121052 -3.1871199487434487 L-25.778360372489924 -2.6791339748949827 L-25.4758647376699 -2.128896457825362 L-25.244717418524232 -1.5450849718747353 L-25.088563746356556 -0.9369065729286206 L-25.00986635785864 -0.3139525976465634 L-25.00986635785864 0.3139525976465689 L-25.088563746356556 0.936906572928626 L-25.244717418524232 1.5450849718747404 L-25.4758647376699 2.128896457825367 L-25.778360372489924 2.679133974894987 L-26.147433786121056 3.1871199487434527 L-26.57726447035656 3.644843137107062 L-27.06107373853764 4.045084971874741 L-27.59123162949143 4.381533400219322 L-28.159377236576617 4.64888242944126 L-28.756550564175736 4.842915805643157 L-29.373333832178485 4.960573506572389 L-30 4.999999999999999 z"/>
<path fill="#000000" stroke="#000000" d="M-19.831598250786243 -24.623457859709063 L-19.624721172934482 -24.030611497709913 L-19.624721172934482 -24.030611497709913 L-19.831598250786243 -24.623457859709063 z"/>
<path fill="#000000" stroke="#000000" d="M-19.624721172934482 -24.030611497709916 L-19.34517203107658 -23.46836847946725 L-19.34517203107658 -23.46836847946725 L-19.624721172934482 -24.030611497709916 z"/>
<path fill="#000000" stroke="#000000" d="M-19.34517203107658 -23.468368479467255 L-18.997359482174204 -22.945595713246465 L-18.997359482174204 -22.945595713246465 L-19.34517203107658 -23.468368479467255 z"/>
<path fill="#000000" stroke="#000000" d="M-19.96254068953177 -25.237558024186715 L-19.831598250786246 -24.623457859709063 L-19.831598250786246 -24.623457859709063 L-19.96254068953177 -25.237558024186715 z"/>
<path fill="#000000" stroke="#000000" d="M-20.015483448690826 -25.863227264703408 L-19.962540689531775 -25.23755802418672 L-19.962540689531775 -25.23755802418672 L-20.015483448690826 -25.863227264703408 z"/>
<path fill="#000000" stroke="#000000" d="M-19.989591589324995 -26.490598403579504 L-20.015483448690826 -25.86322726470341 L-20.015483448690826 -25.86322726470341 L-19.989591589324995 -26.490598403579504 z"/>
<path fill="#000000" stroke="#000000" d="M-19.885273441523527 -27.10977742318157 L-19.989591589324995 -26.490598403579504 L-19.989591589324995 -26.490598403579504 L-19.885273441523527 -27.10977742318157 z"/>
<path fill="#000000" stroke="#000000" d="M-19.449149802913574 -28.284783004195575 L-19.70417416479389 -27.710999500490875 L-19.70417416479389 -27.710999500490875 L-19.449149802913574 -28.284783004195575 z"/>
<path fill="#000000" stroke="#000000" d="M-19.70417416479389 -27.710999500490875 L-19.885273441523527 -27.109777423181576 L-19.885273441523527 -27.109777423181576 L-19.70417416479389 -27.710999500490875 z"/>
<path fill="#000000" stroke="#000000" d="M-18.73451578502538 -29.31441408572207 L-19.124222242413605 -28.822079025680612 L-19.124222242413605 -28.822079025680612 L-18.73451578502538 -29.31441408572207 z"/>
<path fill="#000000" stroke="#000000" d="M-18.28617633438126 -29.7540237663164 L-18.734515785025376 -29.314414085722074 L-18.734515785025376 -29.314414085722074 L-18.28617633438126 -29.7540237663164 z"/>
<path fill="#000000" stroke="#000000" d="M-16.664007351286198 -30.691970191157264 L-17.24269394721579 -30.448276206891077 L-17.24269394721579 -30.448276206891077 L-16.664007351286198 -30.691970191157264 z"/>
<path fill="#000000" stroke="#000000" d="M-17.786274471442923 -30.133975160190516 L-18.286176334381263 -29.7540237663164 L-18.286176334381263 -29.7540237663164 L-17.786274471442923 -30.133975160190516 z"/>
<path fill="#000000" stroke="#000000" d="M-17.242693947215795 -30.448276206891077 L-17.786274471442923 -30.133975160190516 L-17.786274471442923 -30.133975160190516 L-17.242693947215795 -30.448276206891077 z"/>
<path fill="#000000" stroke="#000000" d="M-16.05934091696257 -30.86121391328147 L-16.664007351286198 -30.691970191157264 L-16.664007351286198 -30.691970191157264 L-16.05934091696257 -30.86121391328147 z"/>
<path fill="#000000" stroke="#000000" d="M-15.438230595124407 -30.953338298664498 L-16.05934091696257 -30.861213913281468 L-16.05934091696257 -30.861213913281468 L-15.438230595124407 -30.953338298664498 z"/>
<path fill="#000000" stroke="#000000" d="M-14.810471666580417 -30.96689049071642 L-15.438230595124407 -30.953338298664498 L-15.438230595124407 -30.953338298664498 L-14.810471666580417 -30.96689049071642 z"/>
<path fill="#000000" stroke="#000000" d="M-19.124222242413605 -28.822079025680615 L-19.449149802913574 -28.284783004195578 L-19.449149802913574 -28.284783004195578 L-19.124222242413605 -28.822079025680615 z"/>
<path fill="#000000" stroke="#000000" d="M-14.18596426463875 -30.90165676327289 L-14.810471666580415 -30.96689049071642 L-14.810471666580415 -30.96689049071642 L-14.18596426463875 -30.90165676327289 z"/>
<path fill="#000000" stroke="#000000" d="M-13.574557244090663 -30.758665891184425 L-14.185964264638748 -30.901656763272886 L-14.185964264638748 -30.901656763272886 L-13.574557244090663 -30.758665891184425 z"/>
<path fill="#000000" stroke="#000000" d="M-12.98589285888705 -30.540172925922477 L-13.574557244090661 -30.758665891184425 L-13.574557244090661 -30.758665891184425 L-12.98589285888705 -30.540172925922477 z"/>
<path fill="#000000" stroke="#000000" d="M-12.429254698033628 -30.249623632070588 L-12.985892858887048 -30.540172925922477 L-12.985892858887048 -30.540172925922477 L-12.429254698033628 -30.249623632070588 z"/>
<path fill="#000000" stroke="#000000" d="M-11.91342127784658 -29.891600145558545 L-12.429254698033628 -30.249623632070588 L-12.429254698033628 -30.249623632070588 L-11.91342127784658 -29.891600145558545 z"/>
<path fill="#000000" stroke="#000000" d="M-11.446527599506199 -29.471748710641506 L-11.91342127784658 -29.891600145558545 L-11.91342127784658 -29.891600145558545 L-11.446527599506199 -29.471748710641506 z"/>
<path fill="#000000" stroke="#000000" d="M-11.035936855228682 -28.9966906352552 L-11.446527599506199 -29.471748710641503 L-11.446527599506199 -29.471748710641503 L-11.035936855228682 -28.9966906352552 z"/>
<path fill="#000000" stroke="#000000" d="M-10.688124306326301 -28.473917869034402 L-11.035936855228682 -28.9966906352552 L-11.035936855228682 -28.9966906352552 L-10.688124306326301 -28.473917869034402 z"/>
<path fill="#000000" stroke="#000000" d="M-10.4085751644684 -27.91167485079174 L-10.688124306326301 -28.473917869034402 L-10.688124306326301 -28.473917869034402 L-10.4085751644684 -27.91167485079174 z"/>
<path fill="#000000" stroke="#000000" d="M-10.201698086616636 -27.318828488792594 L-10.408575164468402 -27.911674850791744 L-10.408575164468402 -27.911674850791744 L-10.201698086616636 -27.318828488792594 z"/>
<path fill="#000000" stroke="#000000" d="M-10.07075564787111 -26.70472832431494 L-10.201698086616638 -27.318828488792597 L-10.201698086616638 -27.318828488792597 L-10.07075564787111 -26.70472832431494 z"/>
<path fill="#000000" stroke="#000000" d="M-10.017812888712058 -26.079059083798246 L-10.07075564787111 -26.70472832431494 L-10.07075564787111 -26.70472832431494 L-10.017812888712058 -26.079059083798246 z"/>
<path fill="#000000" stroke="#000000" d="M-10.04370474807789 -25.45168794492215 L-10.017812888712058 -26.079059083798246 L-10.017812888712058 -26.079059083798246 L-10.04370474807789 -25.45168794492215 z"/>
<path fill="#000000" stroke="#000000" d="M-10.148022895879357 -24.83250892532008 L-10.04370474807789 -25.45168794492215 L-10.04370474807789 -25.45168794492215 L-10.148022895879357 -24.83250892532008 z"/>
<path fill="#000000" stroke="#000000" d="M-10.58414653448931 -23.657503344306075 L-10.329122172608997 -24.23128684801078 L-10.329122172608997 -24.23128684801078 L-10.58414653448931 -23.657503344306075 z"/>
<path fill="#000000" stroke="#000000" d="M-10.909074094989284 -23.120207322821038 L-10.58414653448931 -23.657503344306075 L-10.58414653448931 -23.657503344306075 L-10.909074094989284 -23.120207322821038 z"/>
<path fill="#000000" stroke="#000000" d="M-11.29878055237751 -22.62787226277958 L-10.909074094989284 -23.120207322821038 L-10.909074094989284 -23.120207322821038 L-11.29878055237751 -22.62787226277958 z"/>
<path fill="#000000" stroke="#000000" d="M-10.329122172608995 -24.231286848010782 L-10.14802289587936 -24.83250892532008 L-10.14802289587936 -24.83250892532008 L-10.329122172608995 -24.231286848010782 z"/>
<path fill="#000000" stroke="#000000" d="M-11.747120003021621 -22.188262582185263 L-11.298780552377506 -22.627872262779583 L-11.298780552377506 -22.627872262779583 L-11.747120003021621 -22.188262582185263 z"/>
<path fill="#000000" stroke="#000000" d="M-12.247021865959963 -21.808311188311144 L-11.747120003021621 -22.18826258218526 L-11.747120003021621 -22.18826258218526 L-12.247021865959963 -21.808311188311144 z"/>
<path fill="#000000" stroke="#000000" d="M-13.973955420440317 -21.081072435220193 L-13.369288986116686 -21.250316157344397 L-13.369288986116686 -21.250316157344397 L-13.973955420440317 -21.081072435220193 z"/>
<path fill="#000000" stroke="#000000" d="M-13.369288986116686 -21.250316157344397 L-12.790602390187091 -21.494010141610584 L-12.790602390187091 -21.494010141610584 L-13.369288986116686 -21.250316157344397 z"/>
<path fill="#000000" stroke="#000000" d="M-12.790602390187091 -21.494010141610584 L-12.247021865959962 -21.808311188311144 L-12.247021865959962 -21.808311188311144 L-12.790602390187091 -21.494010141610584 z"/>
<path fill="#000000" stroke="#000000" d="M-15.84733207276414 -21.040629585228775 L-15.22282467082247 -20.97539585778524 L-15.22282467082247 -20.97539585778524 L-15.84733207276414 -21.040629585228775 z"/>
<path fill="#000000" stroke="#000000" d="M-15.222824670822469 -20.97539585778524 L-14.595065742278482 -20.988948049837163 L-14.595065742278482 -20.988948049837163 L-15.222824670822469 -20.97539585778524 z"/>
<path fill="#000000" stroke="#000000" d="M-14.59506574227848 -20.988948049837163 L-13.973955420440316 -21.081072435220193 L-13.973955420440316 -21.081072435220193 L-14.59506574227848 -20.988948049837163 z"/>
<path fill="#000000" stroke="#000000" d="M-16.45873909331223 -21.18362045731724 L-15.84733207276414 -21.040629585228775 L-15.84733207276414 -21.040629585228775 L-16.45873909331223 -21.18362045731724 z"/>
<path fill="#000000" stroke="#000000" d="M-17.04740347851584 -21.402113422579188 L-16.458739093312225 -21.183620457317236 L-16.458739093312225 -21.183620457317236 L-17.04740347851584 -21.402113422579188 z"/>
<path fill="#000000" stroke="#000000" d="M-18.58676873789669 -22.470537637860165 L-18.11987505955631 -22.050686202943123 L-18.11987505955631 -22.050686202943123 L-18.58676873789669 -22.470537637860165 z"/>
<path fill="#000000" stroke="#000000" d="M-18.997359482174204 -22.945595713246465 L-18.58676873789669 -22.47053763786016 L-18.58676873789669 -22.47053763786016 L-18.997359482174204 -22.945595713246465 z"/>
<path fill="#000000" stroke="#000000" d="M-17.604041639369264 -21.692662716431077 L-17.04740347851584 -21.402113422579188 L-17.04740347851584 -21.402113422579188 L-17.604041639369264 -21.692662716431077 z"/>
<path fill="#000000" stroke="#000000" d="M-18.11987505955631 -22.050686202943123 L-17.60404163936926 -21.692662716431077 L-17.60404163936926 -21.692662716431077 L-18.11987505955631 -22.050686202943123 z"/>
<path fill="#000000" stroke="#000000" d="M-19.624721172934482 -24.03061149770992 L-19.34517203107658 -23.46836847946726 L-18.997359482174204 -22.94559571324647 L-18.58676873789669 -22.470537637860165 L-18.11987505955631 -22.05068620294312 L-17.604041639369264 -21.692662716431077 L-17.047403478515843 -21.40211342257919 L-16.45873909331223 -21.183620457317236 L-15.84733207276414 -21.04062958522877 L-15.22282467082247 -20.975395857785237 L-14.595065742278482 -20.98894804983716 L-13.973955420440317 -21.08107243522019 L-13.369288986116686 -21.250316157344397 L-12.790602390187093 -21.494010141610584 L-12.247021865959963 -21.80831118831114 L-11.747120003021623 -22.18826258218526 L-11.298780552377508 -22.627872262779583 L-10.90907409498928 -23.12020732282104 L-10.58414653448931 -23.657503344306075 L-10.329122172608995 -24.231286848010782 L-10.148022895879357 -24.83250892532008 L-10.043704748077888 -25.45168794492215 L-10.017812888712058 -26.07905908379825 L-10.07075564787111 -26.704728324314942 L-10.201698086616638 -27.318828488792597 L-10.408575164468402 -27.91167485079174 L-10.688124306326305 -28.473917869034402 L-11.035936855228682 -28.996690635255195 L-11.4465275995062 -29.471748710641503 L-11.913421277846581 -29.89160014555854 L-12.42925469803363 -30.249623632070588 L-12.98589285888705 -30.54017292592247 L-13.574557244090663 -30.758665891184425 L-14.18596426463875 -30.901656763272886 L-14.810471666580419 -30.966890490716416 L-15.438230595124407 -30.953338298664498 L-16.05934091696257 -30.861213913281468 L-16.6640073512862 -30.69197019115726 L-17.242693947215795 -30.448276206891073 L-17.786274471442923 -30.133975160190513 L-18.286176334381263 -29.754023766316397 L-18.734515785025376 -29.31441408572207 L-19.1242222424136 -28.822079025680612 L-19.449149802913574 -28.284783004195575 L-19.704174164793887 -27.71099950049087 L-19.885273441523527 -27.109777423181573 L-19.989591589324995 -26.490598403579504 L-20.015483448690826 -25.86322726470341 L-19.962540689531775 -25.237558024186722 L-19.831598250786246 -24.623457859709063 z"/>
<path fill="#000000" stroke="#000000" d="M-19.624721172934482 -24.03061149770992 L-19.831598250786246 -24.623457859709063 L-19.962540689531775 -25.237558024186722 L-20.015483448690826 -25.86322726470341 L-19.989591589324995 -26.490598403579504 L-19.885273441523527 -27.109777423181573 L-19.704174164793887 -27.71099950049087 L-19.449149802913574 -28.284783004195575 L-19.1242222424136 -28.822079025680612 L-18.734515785025376 -29.31441408572207 L-18.286176334381263 -29.754023766316397 L-17.786274471442923 -30.133975160190513 L-17.242693947215795 -30.448276206891073 L-16.6640073512862 -30.69197019115726 L-16.05934091696257 -30.861213913281468 L-15.438230595124407 -30.953338298664498 L-14.810471666580419 -30.966890490716416 L-14.18596426463875 -30.901656763272886 L-13.574557244090663 -30.758665891184425 L-12.98589285888705 -30.54017292592247 L-12.42925469803363 -30.249623632070588 L-11.913421277846581 -29.89160014555854 L-11.4465275995062 -29.471748710641503 L-11.035936855228682 -28.996690635255195 L-10.688124306326305 -28.473917869034402 L-10.408575164468402 -27.91167485079174 L-10.201698086616638 -27.318828488792597 L-10.07075564787111 -26.704728324314942 L-10.017812888712058 -26.07905908379825 L-10.043704748077888 -25.45168794492215 L-10.148022895879357 -24.83250892532008 L-10.329122172608995 -24.231286848010782 L-10.58414653448931 -23.657503344306075 L-10.90907409498928 -23.12020732282104 L-11.298780552377508 -22.627872262779583 L-11.747120003021623 -22.18826258218526 L-12.247021865959963 -21.80831118831114 L-12.790602390187093 -21.494010141610584 L-13.369288986116686 -21.250316157344397 L-13.973955420440317 -21.08107243522019 L-14.595065742278482 -20.98894804983716 L-15.22282467082247 -20.975395857785237 L-15.84733207276414 -21.04062958522877 L-16.45873909331223 -21.183620457317236 L-17.047403478515843 -21.40211342257919 L-17.604041639369264 -21.692662716431077 L-18.11987505955631 -22.05068620294312 L-18.58676873789669 -22.470537637860165 L-18.997359482174204 -22.94559571324647 L-19.34517203107658 -23.46836847946726 z"/>
</svg>