<?xml version="1.0" encoding="UTF-8"?>
<!-- Generated by jsxcad -->
<!DOCTYPE svg PUBLIC "-//W3C//DTD SVG 1.1 Tiny//EN" "http://www.w3.org/Graphics/SVG/1.1/DTD/svg11-tiny.dtd">
<svg baseProfile="tiny" height="53.05202669760921mm" width="61.933780981432854mm" viewBox="-30.966890490716427 -26.426182553542336 61.933780981432854 53.05202669760921" version="1.1" stroke="black" stroke-width=".1" fill="none" xmlns="http://www.w3.org/2000/svg">
<path fill="#000000" stroke="#000000" d="M4.842915805643155 -23.974637147312535 L4.842915805643155 -20.441642223454668 L4.9605735065723895 -20.00519761655323 L4.9605735065723895 -23.538192540411096 z"/>
<path fill="#000000" stroke="#000000" d="M4.9605735065723895 -23.538192540411096 L4.9605735065723895 -20.00519761655323 L5 -19.561759729272417 L5 -23.094754653130284 z"/>
<path fill="#000000" stroke="#000000" d="M4.999999999999999 -23.094754653130284 L4.999999999999999 -19.561759729272417 L4.960573506572389 -19.11832184199161 L4.960573506572389 -22.651316765849476 z"/>
<path fill="#000000" stroke="#000000" d="M4.648882429441259 -24.397205481664393 L4.648882429441257 -20.86421055780653 L4.842915805643155 -20.441642223454668 L4.842915805643156 -23.974637147312535 z"/>
<path fill="#000000" stroke="#000000" d="M4.381533400219319 -24.799233388403863 L4.381533400219318 -21.266238464545996 L4.648882429441258 -20.86421055780653 L4.648882429441257 -24.3972054816644 z"/>
<path fill="#000000" stroke="#000000" d="M4.045084971874741 -25.174380647281822 L4.045084971874739 -21.64138572342396 L4.381533400219318 -21.266238464545996 L4.38153340021932 -24.799233388403863 z"/>
<path fill="#000000" stroke="#000000" d="M3.6448431371070615 -25.516730961923663 L3.64484313710706 -21.983736038065796 L4.04508497187474 -21.64138572342396 L4.04508497187474 -25.174380647281822 z"/>
<path fill="#000000" stroke="#000000" d="M2.6791339748949925 -26.082046856556193 L2.679133974894987 -22.54905193269833 L3.1871199487434554 -22.287890339499445 L3.187119948743454 -25.820885263357315 z"/>
<path fill="#000000" stroke="#000000" d="M3.1871199487434576 -25.82088526335731 L3.187119948743458 -22.28789033949944 L3.6448431371070615 -21.983736038065796 L3.6448431371070646 -25.516730961923663 z"/>
<path fill="#000000" stroke="#000000" d="M1.5450849718747381 -26.459660195555273 L1.5450849718747381 -22.92666527169741 L2.128896457825364 -22.763102143327323 L2.128896457825364 -26.29609706718519 z"/>
<path fill="#000000" stroke="#000000" d="M0.9369065729286242 -26.570156753424175 L0.9369065729286242 -23.037161829566312 L1.5450849718747381 -22.926665271697406 L1.5450849718747381 -26.45966019555527 z"/>
<path fill="#000000" stroke="#000000" d="M-0.9369065729286218 -26.570156753424172 L-0.9369065729286218 -23.03716182956631 L-0.3139525976465654 -23.092849220208993 L-0.3139525976465654 -26.62584414406686 z"/>
<path fill="#000000" stroke="#000000" d="M0.31395259764656813 -26.625844144066864 L0.31395259764656813 -23.092849220208993 L0.9369065729286241 -23.03716182956631 L0.9369065729286241 -26.570156753424175 z"/>
<path fill="#000000" stroke="#000000" d="M-0.31395259764656547 -26.62584414406686 L-0.31395259764656547 -23.092849220208993 L0.3139525976465682 -23.092849220208993 L0.3139525976465682 -26.62584414406686 z"/>
<path fill="#000000" stroke="#000000" d="M-1.5450849718747357 -26.459660195555273 L-1.5450849718747357 -22.926665271697406 L-0.9369065729286218 -23.03716182956631 L-0.9369065729286218 -26.570156753424175 z"/>
<path fill="#000000" stroke="#000000" d="M-2.1288964578253617 -26.296097067185187 L-2.1288964578253617 -22.763102143327323 L-1.5450849718747357 -22.92666527169741 L-1.5450849718747357 -26.45966019555527 z"/>
<path fill="#000000" stroke="#000000" d="M-2.679133974894982 -26.082046856556197 L-2.679133974894982 -22.549051932698333 L-2.1288964578253617 -22.763102143327323 L-2.1288964578253617 -26.29609706718519 z"/>
<path fill="#000000" stroke="#000000" d="M2.128896457825364 -26.296097067185187 L2.128896457825364 -22.76310214332732 L2.679133974894984 -22.54905193269833 L2.679133974894984 -26.082046856556197 z"/>
<path fill="#000000" stroke="#000000" d="M-3.1871199487434536 -25.82088526335731 L-3.1871199487434514 -22.287890339499448 L-2.6791339748949867 -22.549051932698326 L-2.6791339748949854 -26.082046856556197 z"/>
<path fill="#000000" stroke="#000000" d="M-3.6448431371070615 -25.516730961923663 L-3.64484313710706 -21.9837360380658 L-3.1871199487434567 -22.287890339499445 L-3.187119948743455 -25.82088526335731 z"/>
<path fill="#000000" stroke="#000000" d="M-4.045084971874737 -25.174380647281826 L-4.04508497187474 -21.64138572342396 L-3.64484313710706 -21.983736038065796 L-3.6448431371070575 -25.516730961923667 z"/>
<path fill="#000000" stroke="#000000" d="M-4.381533400219319 -24.799233388403866 L-4.381533400219319 -21.266238464545996 L-4.045084971874738 -21.641385723423955 L-4.045084971874738 -25.174380647281826 z"/>
<path fill="#000000" stroke="#000000" d="M-4.648882429441257 -24.3972054816644 L-4.648882429441258 -20.86421055780653 L-4.381533400219318 -21.266238464545996 L-4.381533400219317 -24.799233388403866 z"/>
<path fill="#000000" stroke="#000000" d="M-4.842915805643155 -23.97463714731254 L-4.842915805643155 -20.44164222345467 L-4.648882429441257 -20.864210557806533 L-4.648882429441256 -24.397205481664397 z"/>
<path fill="#000000" stroke="#000000" d="M-4.960573506572389 -23.538192540411096 L-4.960573506572389 -20.005197616553232 L-4.842915805643155 -20.44164222345467 L-4.842915805643155 -23.97463714731254 z"/>
<path fill="#000000" stroke="#000000" d="M-5 -23.094754653130288 L-5 -19.561759729272417 L-4.960573506572389 -20.00519761655323 L-4.960573506572389 -23.5381925404111 z"/>
<path fill="#000000" stroke="#000000" d="M-4.960573506572389 -22.651316765849472 L-4.960573506572389 -19.118321841991605 L-4.999999999999999 -19.561759729272417 L-4.999999999999999 -23.094754653130284 z"/>
<path fill="#000000" stroke="#000000" d="M-4.842915805643155 -22.214872158948033 L-4.842915805643155 -18.681877235090166 L-4.960573506572389 -19.118321841991605 L-4.960573506572389 -22.651316765849472 z"/>
<path fill="#000000" stroke="#000000" d="M-4.648882429441257 -21.79230382459617 L-4.648882429441256 -18.259308900738304 L-4.8429158056431545 -18.681877235090163 L-4.8429158056431545 -22.214872158948033 z"/>
<path fill="#000000" stroke="#000000" d="M-4.3815334002193165 -21.390275917856698 L-4.381533400219317 -17.857280993998835 L-4.648882429441256 -18.2593089007383 L-4.648882429441256 -21.792303824596168 z"/>
<path fill="#000000" stroke="#000000" d="M-4.0450849718747355 -21.015128658978742 L-4.0450849718747355 -17.482133735120875 L-4.381533400219317 -17.857280993998835 L-4.381533400219316 -21.3902759178567 z"/>
<path fill="#000000" stroke="#000000" d="M-3.6448431371070535 -20.6727783443369 L-3.6448431371070544 -17.139783420479034 L-4.0450849718747355 -17.482133735120872 L-4.045084971874735 -21.01512865897874 z"/>
<path fill="#000000" stroke="#000000" d="M-2.6791339748949765 -20.107462449704368 L-2.679133974894979 -16.574467525846504 L-3.187119948743442 -16.835629119045382 L-3.1871199487434474 -20.368624042903253 z"/>
<path fill="#000000" stroke="#000000" d="M-2.128896457825362 -19.893412239075385 L-2.128896457825362 -16.360417315217514 L-2.6791339748949827 -16.574467525846504 L-2.6791339748949827 -20.107462449704375 z"/>
<path fill="#000000" stroke="#000000" d="M-1.5450849718747353 -19.729849110705302 L-1.5450849718747353 -16.196854186847432 L-2.128896457825362 -16.360417315217514 L-2.128896457825362 -19.893412239075385 z"/>
<path fill="#000000" stroke="#000000" d="M-3.1871199487434483 -20.368624042903257 L-3.1871199487434447 -16.835629119045382 L-3.6448431371070544 -17.139783420479034 L-3.6448431371070535 -20.6727783443369 z"/>
<path fill="#000000" stroke="#000000" d="M-0.9369065729286206 -19.6193525528364 L-0.9369065729286206 -16.08635762897853 L-1.545084971874735 -16.196854186847435 L-1.545084971874735 -19.729849110705302 z"/>
<path fill="#000000" stroke="#000000" d="M-0.3139525976465634 -19.56366516219371 L-0.3139525976465634 -16.030670238335844 L-0.9369065729286206 -16.08635762897853 L-0.9369065729286206 -19.619352552836396 z"/>
<path fill="#000000" stroke="#000000" d="M1.5450849718747404 -19.729849110705302 L1.5450849718747404 -16.196854186847435 L0.936906572928626 -16.08635762897853 L0.936906572928626 -19.6193525528364 z"/>
<path fill="#000000" stroke="#000000" d="M0.9369065729286259 -19.6193525528364 L0.9369065729286259 -16.086357628978533 L0.3139525976465689 -16.030670238335844 L0.3139525976465689 -19.56366516219371 z"/>
<path fill="#000000" stroke="#000000" d="M0.31395259764656896 -19.56366516219371 L0.31395259764656896 -16.030670238335844 L-0.31395259764656347 -16.030670238335844 L-0.31395259764656347 -19.56366516219371 z"/>
<path fill="#000000" stroke="#000000" d="M3.1871199487434483 -20.368624042903257 L3.1871199487434465 -16.835629119045386 L2.679133974894984 -16.574467525846504 L2.679133974894986 -20.107462449704375 z"/>
<path fill="#000000" stroke="#000000" d="M2.679133974894987 -20.10746244970438 L2.679133974894987 -16.574467525846508 L2.128896457825367 -16.360417315217518 L2.128896457825367 -19.89341223907539 z"/>
<path fill="#000000" stroke="#000000" d="M2.128896457825367 -19.89341223907539 L2.128896457825367 -16.360417315217518 L1.5450849718747404 -16.196854186847435 L1.5450849718747404 -19.729849110705306 z"/>
<path fill="#000000" stroke="#000000" d="M3.644843137107061 -20.67277834433691 L3.644843137107061 -17.139783420479038 L3.1871199487434505 -16.835629119045386 L3.1871199487434505 -20.368624042903257 z"/>
<path fill="#000000" stroke="#000000" d="M4.045084971874738 -21.015128658978746 L4.04508497187474 -17.48213373512088 L3.6448431371070598 -17.139783420479038 L3.64484313710706 -20.672778344336905 z"/>
<path fill="#000000" stroke="#000000" d="M4.842915805643157 -22.21487215894804 L4.842915805643156 -18.68187723509017 L4.64888242944126 -18.259308900738308 L4.64888242944126 -21.792303824596175 z"/>
<path fill="#000000" stroke="#000000" d="M4.960573506572389 -22.651316765849476 L4.960573506572389 -19.11832184199161 L4.842915805643157 -18.68187723509017 L4.842915805643157 -22.21487215894804 z"/>
<path fill="#000000" stroke="#000000" d="M4.38153340021932 -21.390275917856705 L4.38153340021932 -17.857280993998838 L4.045084971874739 -17.482133735120875 L4.04508497187474 -21.015128658978746 z"/>
<path fill="#000000" stroke="#000000" d="M4.64888242944126 -21.79230382459618 L4.64888242944126 -18.259308900738308 L4.381533400219321 -17.85728099399884 L4.381533400219321 -21.39027591785671 z"/>
<path fill="#000000" stroke="#000000" d="M4.842915805643155 -23.974637147312535 L4.9605735065723895 -23.538192540411096 L5 -23.094754653130284 L4.9605735065723895 -22.651316765849476 L4.842915805643158 -22.214872158948037 L4.648882429441261 -21.792303824596175 L4.381533400219323 -21.390275917856705 L4.045084971874742 -21.015128658978746 L3.644843137107063 -20.672778344336905 L3.187119948743453 -20.368624042903253 L2.6791339748949876 -20.10746244970437 L2.1288964578253675 -19.893412239075385 L1.5450849718747406 -19.7298491107053 L0.9369065729286261 -19.619352552836396 L0.31395259764656896 -19.563665162193708 L-0.31395259764656347 -19.563665162193708 L-0.9369065729286207 -19.619352552836393 L-1.5450849718747355 -19.7298491107053 L-2.1288964578253626 -19.89341223907538 L-2.679133974894983 -20.10746244970437 L-3.187119948743449 -20.368624042903253 L-3.644843137107057 -20.6727783443369 L-4.045084971874737 -21.015128658978742 L-4.381533400219318 -21.3902759178567 L-4.648882429441258 -21.792303824596168 L-4.842915805643156 -22.214872158948033 L-4.9605735065723895 -22.651316765849472 L-5 -23.094754653130284 L-4.960573506572389 -23.5381925404111 L-4.842915805643155 -23.97463714731254 L-4.648882429441256 -24.397205481664397 L-4.381533400219317 -24.799233388403863 L-4.045084971874736 -25.174380647281826 L-3.644843137107057 -25.516730961923663 L-3.1871199487434483 -25.820885263357315 L-2.6791339748949823 -26.082046856556193 L-2.128896457825362 -26.296097067185187 L-1.545084971874736 -26.45966019555527 L-0.9369065729286219 -26.570156753424172 L-0.31395259764656547 -26.625844144066857 L0.3139525976465682 -26.625844144066857 L0.9369065729286243 -26.570156753424172 L1.5450849718747384 -26.45966019555527 L2.1288964578253644 -26.296097067185183 L2.6791339748949845 -26.082046856556193 L3.18711994874345 -25.82088526335731 L3.644843137107059 -25.51673096192366 L4.045084971874738 -25.174380647281822 L4.381533400219318 -24.799233388403863 L4.648882429441257 -24.397205481664397 z"/>
<path fill="#000000" stroke="#000000" d="M5 -19.561759729272413 L4.9605735065723895 -20.00519761655323 L4.842915805643155 -20.441642223454668 L4.648882429441257 -20.86421055780653 L4.381533400219318 -21.266238464545996 L4.045084971874738 -21.641385723423955 L3.644843137107059 -21.983736038065793 L3.18711994874345 -22.287890339499445 L2.6791339748949845 -22.549051932698323 L2.1288964578253644 -22.763102143327316 L1.5450849718747384 -22.926665271697402 L0.9369065729286243 -23.0371618295663 L0.3139525976465682 -23.09284922020899 L-0.31395259764656547 -23.09284922020899 L-0.9369065729286219 -23.0371618295663 L-1.545084971874736 -22.926665271697402 L-2.128896457825362 -22.763102143327316 L-2.6791339748949823 -22.549051932698326 L-3.1871199487434483 -22.287890339499445 L-3.644843137107057 -21.983736038065796 L-4.045084971874736 -21.64138572342396 L-4.381533400219317 -21.266238464545996 L-4.648882429441256 -20.86421055780653 L-4.842915805643155 -20.44164222345467 L-4.960573506572389 -20.00519761655323 L-5 -19.561759729272417 L-4.9605735065723895 -19.118321841991605 L-4.842915805643156 -18.681877235090166 L-4.648882429441258 -18.2593089007383 L-4.381533400219318 -17.857280993998835 L-4.045084971874737 -17.482133735120875 L-3.644843137107057 -17.139783420479034 L-3.187119948743449 -16.835629119045386 L-2.679133974894983 -16.574467525846504 L-2.1288964578253626 -16.360417315217514 L-1.5450849718747355 -16.196854186847432 L-0.9369065729286207 -16.086357628978526 L-0.31395259764656347 -16.03067023833584 L0.31395259764656896 -16.03067023833584 L0.9369065729286261 -16.086357628978526 L1.5450849718747406 -16.196854186847432 L2.1288964578253675 -16.360417315217518 L2.6791339748949876 -16.574467525846508 L3.187119948743453 -16.83562911904539 L3.644843137107063 -17.13978342047904 L4.045084971874742 -17.48213373512088 L4.381533400219323 -17.85728099399884 L4.648882429441261 -18.259308900738304 L4.842915805643158 -18.68187723509017 L4.9605735065723895 -19.11832184199161 z"/>
<path fill="#000000" stroke="#000000" d="M-24.623457859709063 -15.89944904987954 L-24.623457859709063 -12.366454126021674 L-24.030611497709916 -12.220064965348904 L-24.030611497709916 -15.753059889206769 z"/>
<path fill="#000000" stroke="#000000" d="M-24.030611497709916 -15.753059889206767 L-24.030611497709916 -12.2200649653489 L-23.468368479467255 -12.022252019282954 L-23.468368479467255 -15.555246943140821 z"/>
<path fill="#000000" stroke="#000000" d="M-23.468368479467255 -15.555246943140821 L-23.468368479467255 -12.022252019282952 L-22.94559571324647 -11.776134916151019 L-22.94559571324647 -15.309129840008888 z"/>
<path fill="#000000" stroke="#000000" d="M-25.23755802418672 -15.99210578064668 L-25.23755802418672 -12.459110856788813 L-24.623457859709063 -12.366454126021672 L-24.623457859709063 -15.89944904987954 z"/>
<path fill="#000000" stroke="#000000" d="M-25.86322726470341 -16.029568829513543 L-25.86322726470341 -12.496573905655673 L-25.237558024186715 -12.459110856788811 L-25.237558024186715 -15.99210578064668 z"/>
<path fill="#000000" stroke="#000000" d="M-26.490598403579504 -16.01124738182016 L-26.490598403579504 -12.478252457962293 L-25.863227264703408 -12.496573905655678 L-25.863227264703408 -16.029568829513543 z"/>
<path fill="#000000" stroke="#000000" d="M-27.109777423181573 -15.937430377741354 L-27.109777423181573 -12.404435453883483 L-26.490598403579504 -12.47825245796229 L-26.490598403579504 -16.01124738182016 z"/>
<path fill="#000000" stroke="#000000" d="M-28.28478300419558 -15.628823092349334 L-28.28478300419558 -12.095828168491465 L-27.710999500490875 -12.276287031669721 L-27.710999500490875 -15.809281955527588 z"/>
<path fill="#000000" stroke="#000000" d="M-27.710999500490875 -15.809281955527588 L-27.710999500490875 -12.276287031669723 L-27.109777423181573 -12.404435453883487 L-27.109777423181573 -15.937430377741352 z"/>
<path fill="#000000" stroke="#000000" d="M-29.314414085722078 -15.123137904056872 L-29.314414085722078 -11.590142980199005 L-28.82207902568062 -11.865904808421941 L-28.82207902568062 -15.398899732279808 z"/>
<path fill="#000000" stroke="#000000" d="M-29.7540237663164 -14.805886536443728 L-29.7540237663164 -11.272891612585857 L-29.314414085722074 -11.590142980199007 L-29.314414085722078 -15.123137904056872 z"/>
<path fill="#000000" stroke="#000000" d="M-30.691970191157264 -13.658016707796763 L-30.691970191157264 -10.125021783938896 L-30.448276206891077 -10.534508644205825 L-30.448276206891077 -14.067503568063694 z"/>
<path fill="#000000" stroke="#000000" d="M-30.13397516019052 -14.452148873024417 L-30.13397516019052 -10.91915394916655 L-29.7540237663164 -11.27289161258586 L-29.7540237663164 -14.805886536443728 z"/>
<path fill="#000000" stroke="#000000" d="M-30.448276206891077 -14.067503568063696 L-30.448276206891077 -10.534508644205827 L-30.133975160190516 -10.919153949166548 L-30.133975160190516 -14.452148873024417 z"/>
<path fill="#000000" stroke="#000000" d="M-30.861213913281468 -13.230146144625628 L-30.86121391328147 -9.697151220767761 L-30.691970191157264 -10.125021783938898 L-30.691970191157264 -13.658016707796765 z"/>
<path fill="#000000" stroke="#000000" d="M-30.953338298664498 -12.790639652928977 L-30.953338298664498 -9.25764472907111 L-30.86121391328147 -9.69715122076776 L-30.861213913281468 -13.230146144625628 z"/>
<path fill="#000000" stroke="#000000" d="M-30.96689049071642 -12.346428512629322 L-30.96689049071642 -8.813433588771456 L-30.953338298664498 -9.25764472907111 L-30.953338298664498 -12.790639652928977 z"/>
<path fill="#000000" stroke="#000000" d="M-28.822079025680615 -15.398899732279812 L-28.822079025680615 -11.865904808421947 L-28.284783004195578 -12.09582816849147 L-28.284783004195578 -15.628823092349334 z"/>
<path fill="#000000" stroke="#000000" d="M-30.90165676327289 -11.904518198768061 L-30.90165676327289 -8.371523274910194 L-30.96689049071642 -8.813433588771455 L-30.96689049071642 -12.346428512629323 z"/>
<path fill="#000000" stroke="#000000" d="M-30.758665891184425 -11.471877900979212 L-30.758665891184425 -7.938882977121345 L-30.90165676327289 -8.371523274910194 L-30.90165676327289 -11.904518198768063 z"/>
<path fill="#000000" stroke="#000000" d="M-30.540172925922477 -11.05533061520569 L-30.540172925922477 -7.522335691347824 L-30.758665891184425 -7.938882977121344 L-30.758665891184425 -11.47187790097921 z"/>
<path fill="#000000" stroke="#000000" d="M-30.249623632070588 -10.661445540977432 L-30.249623632070588 -7.128450617119565 L-30.540172925922477 -7.5223356913478225 L-30.540172925922477 -11.055330615205689 z"/>
<path fill="#000000" stroke="#000000" d="M-29.891600145558545 -10.296434481210557 L-29.891600145558545 -6.763439557352688 L-30.249623632070588 -7.128450617119564 L-30.249623632070588 -10.661445540977432 z"/>
<path fill="#000000" stroke="#000000" d="M-29.471748710641506 -9.966053878364624 L-29.471748710641503 -6.433058954506755 L-29.891600145558545 -6.763439557352689 L-29.891600145558545 -10.296434481210555 z"/>
<path fill="#000000" stroke="#000000" d="M-28.996690635255195 -9.675514031906319 L-28.9966906352552 -6.14251910804845 L-29.471748710641503 -6.4330589545067545 L-29.471748710641503 -9.966053878364622 z"/>
<path fill="#000000" stroke="#000000" d="M-28.473917869034402 -9.42939692877438 L-28.473917869034402 -5.896402004916512 L-28.9966906352552 -6.14251910804845 L-28.9966906352552 -9.675514031906317 z"/>
<path fill="#000000" stroke="#000000" d="M-27.911674850791744 -9.231583982708436 L-27.911674850791744 -5.698589058850568 L-28.473917869034405 -5.8964020049165144 L-28.473917869034405 -9.429396928774382 z"/>
<path fill="#000000" stroke="#000000" d="M-27.318828488792597 -9.085194822035664 L-27.318828488792597 -5.552199898177797 L-27.911674850791744 -5.698589058850569 L-27.911674850791744 -9.231583982708436 z"/>
<path fill="#000000" stroke="#000000" d="M-26.704728324314942 -8.992538091268525 L-26.704728324314942 -5.459543167410658 L-27.318828488792594 -5.552199898177798 L-27.318828488792594 -9.085194822035664 z"/>
<path fill="#000000" stroke="#000000" d="M-26.079059083798246 -8.955075042401662 L-26.079059083798246 -5.422080118543794 L-26.70472832431494 -5.459543167410656 L-26.70472832431494 -8.992538091268523 z"/>
<path fill="#000000" stroke="#000000" d="M-25.451687944922153 -8.973396490095046 L-25.451687944922153 -5.440401566237181 L-26.079059083798246 -5.422080118543796 L-26.079059083798246 -8.955075042401662 z"/>
<path fill="#000000" stroke="#000000" d="M-24.83250892532008 -9.047213494173853 L-24.83250892532008 -5.514218570315987 L-25.451687944922153 -5.440401566237181 L-25.451687944922153 -8.973396490095046 z"/>
<path fill="#000000" stroke="#000000" d="M-23.657503344306075 -9.355820779565871 L-23.657503344306075 -5.822825855708005 L-24.231286848010782 -5.642366992529752 L-24.231286848010782 -9.175361916387617 z"/>
<path fill="#000000" stroke="#000000" d="M-23.12020732282104 -9.585744139635397 L-23.12020732282104 -6.052749215777528 L-23.65750334430608 -5.822825855708005 L-23.65750334430608 -9.355820779565873 z"/>
<path fill="#000000" stroke="#000000" d="M-22.627872262779587 -9.86150596785833 L-22.627872262779587 -6.328511044000461 L-23.120207322821045 -6.052749215777523 L-23.120207322821045 -9.585744139635391 z"/>
<path fill="#000000" stroke="#000000" d="M-24.231286848010782 -9.175361916387617 L-24.231286848010782 -5.642366992529749 L-24.83250892532008 -5.514218570315986 L-24.83250892532008 -9.047213494173853 z"/>
<path fill="#000000" stroke="#000000" d="M-22.188262582185263 -10.178757335471474 L-22.18826258218526 -6.645762411613607 L-22.627872262779587 -6.328511044000463 L-22.627872262779587 -9.86150596785833 z"/>
<path fill="#000000" stroke="#000000" d="M-21.808311188311144 -10.532494998890787 L-21.808311188311144 -6.99950007503292 L-22.188262582185263 -6.645762411613607 L-22.18826258218526 -10.178757335471474 z"/>
<path fill="#000000" stroke="#000000" d="M-21.081072435220193 -11.754497727289575 L-21.081072435220193 -8.22150280343171 L-21.250316157344397 -7.793632240260571 L-21.250316157344397 -11.326627164118438 z"/>
<path fill="#000000" stroke="#000000" d="M-21.250316157344397 -11.32662716411844 L-21.2503161573444 -7.793632240260571 L-21.494010141610584 -7.384145379993639 L-21.494010141610584 -10.917140303851507 z"/>
<path fill="#000000" stroke="#000000" d="M-21.494010141610584 -10.917140303851507 L-21.494010141610584 -7.38414537999364 L-21.808311188311144 -6.999500075032921 L-21.808311188311144 -10.532494998890787 z"/>
<path fill="#000000" stroke="#000000" d="M-21.040629585228775 -13.080125673147144 L-21.040629585228775 -9.547130749289277 L-20.97539585778524 -9.105220435428015 L-20.97539585778524 -12.638215359285882 z"/>
<path fill="#000000" stroke="#000000" d="M-20.97539585778524 -12.638215359285882 L-20.97539585778524 -9.105220435428015 L-20.988948049837163 -8.661009295128359 L-20.988948049837163 -12.194004218986226 z"/>
<path fill="#000000" stroke="#000000" d="M-20.988948049837163 -12.194004218986228 L-20.988948049837163 -8.661009295128359 L-21.081072435220193 -8.221502803431708 L-21.081072435220193 -11.754497727289577 z"/>
<path fill="#000000" stroke="#000000" d="M-21.18362045731724 -13.512765970935995 L-21.183620457317236 -9.979771047078128 L-21.040629585228775 -9.547130749289275 L-21.040629585228775 -13.080125673147142 z"/>
<path fill="#000000" stroke="#000000" d="M-21.40211342257919 -13.929313256709516 L-21.402113422579188 -10.396318332851648 L-21.183620457317236 -9.979771047078126 L-21.18362045731724 -13.512765970935995 z"/>
<path fill="#000000" stroke="#000000" d="M-22.47053763786016 -15.018589993550583 L-22.47053763786016 -11.485595069692717 L-22.05068620294312 -11.155214466846783 L-22.05068620294312 -14.68820939070465 z"/>
<path fill="#000000" stroke="#000000" d="M-22.94559571324647 -15.309129840008886 L-22.945595713246465 -11.776134916151017 L-22.470537637860165 -11.485595069692717 L-22.47053763786016 -15.018589993550583 z"/>
<path fill="#000000" stroke="#000000" d="M-21.692662716431077 -14.323198330937775 L-21.692662716431077 -10.790203407079908 L-21.402113422579188 -10.39631833285165 L-21.402113422579188 -13.929313256709516 z"/>
<path fill="#000000" stroke="#000000" d="M-22.050686202943123 -14.688209390704651 L-22.05068620294312 -11.155214466846783 L-21.692662716431077 -10.790203407079908 L-21.692662716431077 -14.323198330937775 z"/>
<path fill="#000000" stroke="#000000" d="M-24.623457859709067 -15.89944904987954 L-24.03061149770992 -15.753059889206767 L-23.46836847946726 -15.55524694314082 L-22.94559571324647 -15.309129840008888 L-22.470537637860165 -15.018589993550583 L-22.050686202943123 -14.688209390704651 L-21.692662716431077 -14.323198330937775 L-21.40211342257919 -13.929313256709516 L-21.18362045731724 -13.512765970935995 L-21.040629585228775 -13.080125673147144 L-20.97539585778524 -12.638215359285882 L-20.988948049837163 -12.194004218986228 L-21.081072435220193 -11.754497727289575 L-21.250316157344397 -11.326627164118438 L-21.494010141610584 -10.917140303851507 L-21.80831118831114 -10.532494998890787 L-22.18826258218526 -10.178757335471476 L-22.627872262779583 -9.86150596785833 L-23.120207322821045 -9.585744139635391 L-23.65750334430608 -9.35582077956587 L-24.231286848010782 -9.175361916387613 L-24.832508925320084 -9.047213494173853 L-25.451687944922153 -8.973396490095045 L-26.07905908379825 -8.95507504240166 L-26.704728324314942 -8.992538091268521 L-27.318828488792597 -9.085194822035662 L-27.911674850791744 -9.231583982708434 L-28.473917869034405 -9.42939692877438 L-28.9966906352552 -9.675514031906319 L-29.471748710641506 -9.966053878364622 L-29.891600145558545 -10.296434481210555 L-30.24962363207059 -10.661445540977432 L-30.540172925922477 -11.05533061520569 L-30.758665891184425 -11.471877900979212 L-30.90165676327289 -11.904518198768063 L-30.96689049071642 -12.346428512629322 L-30.953338298664498 -12.790639652928979 L-30.861213913281468 -13.230146144625628 L-30.69197019115726 -13.658016707796765 L-30.448276206891077 -14.067503568063696 L-30.133975160190516 -14.452148873024417 L-29.754023766316397 -14.80588653644373 L-29.314414085722074 -15.123137904056874 L-28.822079025680615 -15.39889973227981 L-28.28478300419558 -15.628823092349332 L-27.710999500490875 -15.809281955527585 L-27.109777423181576 -15.937430377741348 L-26.490598403579508 -16.011247381820155 L-25.86322726470341 -16.02956882951354 L-25.237558024186722 -15.992105780646677 z"/>
<path fill="#000000" stroke="#000000" d="M-23.46836847946726 -12.022252019282952 L-24.03061149770992 -12.220064965348898 L-24.623457859709067 -12.366454126021669 L-25.237558024186722 -12.45911085678881 L-25.86322726470341 -12.496573905655673 L-26.490598403579508 -12.478252457962288 L-27.109777423181576 -12.404435453883481 L-27.710999500490875 -12.276287031669717 L-28.28478300419558 -12.095828168491463 L-28.822079025680615 -11.865904808421943 L-29.314414085722074 -11.590142980199005 L-29.754023766316397 -11.272891612585859 L-30.133975160190516 -10.919153949166548 L-30.448276206891077 -10.534508644205827 L-30.69197019115726 -10.125021783938896 L-30.861213913281468 -9.69715122076776 L-30.953338298664498 -9.257644729071108 L-30.96689049071642 -8.813433588771455 L-30.90165676327289 -8.371523274910194 L-30.758665891184425 -7.938882977121345 L-30.540172925922477 -7.5223356913478225 L-30.24962363207059 -7.128450617119565 L-29.891600145558545 -6.763439557352689 L-29.471748710641506 -6.433058954506755 L-28.9966906352552 -6.142519108048451 L-28.473917869034405 -5.896402004916514 L-27.911674850791744 -5.698589058850567 L-27.318828488792597 -5.552199898177796 L-26.704728324314942 -5.459543167410655 L-26.07905908379825 -5.422080118543793 L-25.451687944922153 -5.4404015662371785 L-24.832508925320084 -5.514218570315984 L-24.231286848010782 -5.642366992529747 L-23.65750334430608 -5.822825855708001 L-23.120207322821045 -6.052749215777524 L-22.627872262779583 -6.328511044000462 L-22.18826258218526 -6.645762411613607 L-21.80831118831114 -6.999500075032921 L-21.494010141610584 -7.38414537999364 L-21.250316157344397 -7.793632240260571 L-21.081072435220193 -8.22150280343171 L-20.988948049837163 -8.661009295128359 L-20.97539585778524 -9.105220435428015 L-21.040629585228775 -9.547130749289277 L-21.18362045731724 -9.979771047078128 L-21.40211342257919 -10.396318332851648 L-21.692662716431077 -10.790203407079908 L-22.050686202943123 -11.155214466846783 L-22.470537637860165 -11.485595069692716 L-22.94559571324647 -11.776134916151017 z"/>
<path fill="#000000" stroke="#000000" d="M-29.471748710641503 6.233397363982221 L-29.471748710641503 9.76639228784009 L-28.996690635255195 9.475852441381784 L-28.996690635255195 5.942857517523917 z"/>
<path fill="#000000" stroke="#000000" d="M-28.99669063525519 5.942857517523913 L-28.99669063525519 9.475852441381782 L-28.473917869034402 9.229735338249846 L-28.473917869034402 5.696740414391978 z"/>
<path fill="#000000" stroke="#000000" d="M-28.473917869034402 5.6967404143919795 L-28.473917869034402 9.229735338249847 L-27.911674850791744 9.031922392183903 L-27.911674850791744 5.498927468326035 z"/>
<path fill="#000000" stroke="#000000" d="M-29.891600145558545 6.563777966828154 L-29.891600145558545 10.096772890686022 L-29.471748710641503 9.76639228784009 L-29.471748710641503 6.233397363982221 z"/>
<path fill="#000000" stroke="#000000" d="M-30.249623632070588 6.928789026595031 L-30.249623632070588 10.461783950452899 L-29.891600145558545 10.096772890686022 L-29.891600145558545 6.563777966828155 z"/>
<path fill="#000000" stroke="#000000" d="M-30.540172925922473 7.3226741008232885 L-30.540172925922473 10.855669024681156 L-30.249623632070588 10.461783950452899 L-30.249623632070588 6.928789026595032 z"/>
<path fill="#000000" stroke="#000000" d="M-30.758665891184425 7.73922138659681 L-30.758665891184425 11.272216310454677 L-30.540172925922473 10.855669024681156 L-30.540172925922473 7.3226741008232885 z"/>
<path fill="#000000" stroke="#000000" d="M-30.96689049071642 8.61377199824692 L-30.96689049071642 12.146766922104788 L-30.901656763272886 11.704856608243526 L-30.901656763272886 8.171861684385659 z"/>
<path fill="#000000" stroke="#000000" d="M-30.901656763272886 8.171861684385659 L-30.901656763272886 11.704856608243528 L-30.758665891184425 11.272216310454677 L-30.758665891184425 7.739221386596809 z"/>
<path fill="#000000" stroke="#000000" d="M-30.86121391328147 9.497489630243226 L-30.86121391328147 13.030484554101092 L-30.953338298664498 12.590978062404444 L-30.953338298664498 9.057983138546575 z"/>
<path fill="#000000" stroke="#000000" d="M-30.691970191157264 9.925360193414363 L-30.691970191157264 13.45835511727223 L-30.86121391328147 13.030484554101092 L-30.86121391328147 9.497489630243225 z"/>
<path fill="#000000" stroke="#000000" d="M-29.7540237663164 11.073230022061326 L-29.7540237663164 14.606224945919195 L-30.133975160190516 14.252487282499882 L-30.13397516019052 10.719492358642013 z"/>
<path fill="#000000" stroke="#000000" d="M-30.448276206891077 10.334847053681292 L-30.448276206891077 13.867841977539161 L-30.691970191157264 13.45835511727223 L-30.691970191157264 9.925360193414363 z"/>
<path fill="#000000" stroke="#000000" d="M-30.13397516019052 10.719492358642013 L-30.13397516019052 14.25248728249988 L-30.448276206891077 13.86784197753916 L-30.448276206891077 10.334847053681292 z"/>
<path fill="#000000" stroke="#000000" d="M-29.314414085722078 11.390481389674472 L-29.314414085722078 14.92347631353234 L-29.7540237663164 14.606224945919195 L-29.7540237663164 11.073230022061326 z"/>
<path fill="#000000" stroke="#000000" d="M-28.82207902568062 11.66624321789741 L-28.82207902568062 15.199238141755277 L-29.314414085722078 14.92347631353234 L-29.314414085722078 11.39048138967447 z"/>
<path fill="#000000" stroke="#000000" d="M-28.28478300419558 11.896166577966934 L-28.28478300419558 15.429161501824801 L-28.822079025680615 15.199238141755279 L-28.822079025680615 11.666243217897412 z"/>
<path fill="#000000" stroke="#000000" d="M-30.953338298664498 9.057983138546575 L-30.953338298664498 12.590978062404442 L-30.96689049071642 12.146766922104788 L-30.96689049071642 8.613771998246921 z"/>
<path fill="#000000" stroke="#000000" d="M-27.710999500490875 12.076625441145188 L-27.710999500490875 15.609620365003055 L-28.28478300419558 15.429161501824801 L-28.28478300419558 11.896166577966934 z"/>
<path fill="#000000" stroke="#000000" d="M-27.109777423181576 12.20477386335895 L-27.109777423181576 15.737768787216817 L-27.710999500490875 15.609620365003055 L-27.710999500490875 12.076625441145188 z"/>
<path fill="#000000" stroke="#000000" d="M-26.490598403579504 12.278590867437757 L-26.490598403579504 15.811585791295625 L-27.109777423181576 15.737768787216819 L-27.109777423181576 12.20477386335895 z"/>
<path fill="#000000" stroke="#000000" d="M-25.86322726470341 12.296912315131141 L-25.86322726470341 15.82990723898901 L-26.490598403579508 15.811585791295624 L-26.490598403579508 12.278590867437757 z"/>
<path fill="#000000" stroke="#000000" d="M-25.237558024186722 12.259449266264278 L-25.237558024186722 15.792444190122147 L-25.863227264703415 15.82990723898901 L-25.863227264703415 12.296912315131141 z"/>
<path fill="#000000" stroke="#000000" d="M-24.623457859709067 12.16679253549714 L-24.623457859709067 15.699787459355006 L-25.237558024186722 15.792444190122145 L-25.237558024186722 12.259449266264278 z"/>
<path fill="#000000" stroke="#000000" d="M-24.03061149770992 12.020403374824367 L-24.03061149770992 15.553398298682236 L-24.623457859709067 15.699787459355006 L-24.623457859709067 12.16679253549714 z"/>
<path fill="#000000" stroke="#000000" d="M-23.468368479467255 11.82259042875842 L-23.468368479467255 15.355585352616288 L-24.03061149770992 15.553398298682234 L-24.03061149770992 12.020403374824367 z"/>
<path fill="#000000" stroke="#000000" d="M-22.945595713246462 11.576473325626484 L-22.945595713246462 15.109468249484351 L-23.46836847946726 15.355585352616288 L-23.46836847946726 11.82259042875842 z"/>
<path fill="#000000" stroke="#000000" d="M-22.470537637860158 11.28593347916818 L-22.470537637860158 14.818928403026048 L-22.945595713246465 15.10946824948435 L-22.945595713246465 11.576473325626484 z"/>
<path fill="#000000" stroke="#000000" d="M-22.050686202943115 10.955552876322246 L-22.050686202943115 14.488547800180115 L-22.470537637860158 14.81892840302605 L-22.470537637860158 11.28593347916818 z"/>
<path fill="#000000" stroke="#000000" d="M-21.692662716431073 10.590541816555369 L-21.692662716431073 14.123536740413236 L-22.050686202943115 14.488547800180113 L-22.050686202943115 10.955552876322246 z"/>
<path fill="#000000" stroke="#000000" d="M-21.402113422579188 10.19665674232711 L-21.402113422579188 13.729651666184978 L-21.692662716431073 14.123536740413236 L-21.692662716431073 10.590541816555369 z"/>
<path fill="#000000" stroke="#000000" d="M-21.183620457317236 9.780109456553589 L-21.183620457317236 13.313104380411454 L-21.402113422579188 13.72965166618498 L-21.402113422579188 10.19665674232711 z"/>
<path fill="#000000" stroke="#000000" d="M-20.97539585778524 8.905558844903478 L-20.97539585778524 12.438553768761345 L-21.040629585228775 12.880464082622607 L-21.040629585228775 9.347469158764738 z"/>
<path fill="#000000" stroke="#000000" d="M-20.988948049837163 8.461347704603822 L-20.988948049837163 11.99434262846169 L-20.97539585778524 12.438553768761345 L-20.97539585778524 8.905558844903478 z"/>
<path fill="#000000" stroke="#000000" d="M-21.081072435220193 8.021841212907173 L-21.081072435220193 11.55483613676504 L-20.988948049837163 11.994342628461691 L-20.988948049837163 8.461347704603822 z"/>
<path fill="#000000" stroke="#000000" d="M-21.040629585228775 9.347469158764738 L-21.040629585228775 12.880464082622606 L-21.183620457317236 13.313104380411454 L-21.183620457317236 9.780109456553589 z"/>
<path fill="#000000" stroke="#000000" d="M-21.2503161573444 7.593970649736034 L-21.2503161573444 11.126965573593903 L-21.081072435220193 11.55483613676504 L-21.081072435220193 8.021841212907171 z"/>
<path fill="#000000" stroke="#000000" d="M-21.494010141610588 7.184483789469104 L-21.494010141610588 10.71747871332697 L-21.2503161573444 11.126965573593903 L-21.2503161573444 7.593970649736034 z"/>
<path fill="#000000" stroke="#000000" d="M-22.627872262779587 6.128849453475927 L-22.62787226277959 9.661844377333793 L-22.188262582185267 9.979095744946937 L-22.188262582185263 6.446100821089071 z"/>
<path fill="#000000" stroke="#000000" d="M-22.188262582185263 6.446100821089071 L-22.188262582185263 9.979095744946939 L-21.808311188311144 10.33283340836625 L-21.808311188311144 6.799838484508384 z"/>
<path fill="#000000" stroke="#000000" d="M-21.808311188311144 6.799838484508384 L-21.808311188311144 10.332833408366252 L-21.494010141610588 10.717478713326972 L-21.494010141610588 7.184483789469104 z"/>
<path fill="#000000" stroke="#000000" d="M-24.231286848010786 5.442705402005216 L-24.231286848010786 8.975700325863082 L-23.65750334430608 9.156159189041336 L-23.65750334430608 5.623164265183469 z"/>
<path fill="#000000" stroke="#000000" d="M-23.65750334430608 5.623164265183469 L-23.65750334430608 9.156159189041336 L-23.12020732282105 9.386082549110858 L-23.12020732282105 5.853087625252991 z"/>
<path fill="#000000" stroke="#000000" d="M-23.12020732282105 5.853087625252988 L-23.12020732282105 9.386082549110855 L-22.627872262779587 9.661844377333795 L-22.627872262779587 6.128849453475927 z"/>
<path fill="#000000" stroke="#000000" d="M-24.832508925320088 5.314556979791452 L-24.832508925320088 8.847551903649318 L-24.23128684801079 8.975700325863082 L-24.23128684801079 5.442705402005215 z"/>
<path fill="#000000" stroke="#000000" d="M-25.45168794492216 5.240739975712645 L-25.45168794492216 8.773734899570513 L-24.832508925320088 8.847551903649318 L-24.832508925320088 5.314556979791451 z"/>
<path fill="#000000" stroke="#000000" d="M-27.3188284887926 5.352538307653265 L-27.3188284887926 8.88553323151113 L-26.70472832431495 8.792876500743992 L-26.70472832431495 5.259881576886124 z"/>
<path fill="#000000" stroke="#000000" d="M-27.911674850791744 5.498927468326035 L-27.911674850791744 9.031922392183903 L-27.318828488792605 8.885533231511133 L-27.318828488792605 5.352538307653265 z"/>
<path fill="#000000" stroke="#000000" d="M-26.079059083798256 5.2224185280192605 L-26.079059083798256 8.755413451877127 L-25.451687944922156 8.773734899570513 L-25.451687944922156 5.240739975712645 z"/>
<path fill="#000000" stroke="#000000" d="M-26.70472832431495 5.259881576886124 L-26.70472832431495 8.792876500743992 L-26.079059083798256 8.755413451877128 L-26.079059083798256 5.2224185280192605 z"/>
<path fill="#000000" stroke="#000000" d="M-29.471748710641503 6.233397363982221 L-28.9966906352552 5.942857517523916 L-28.473917869034405 5.69674041439198 L-27.911674850791748 5.498927468326036 L-27.318828488792605 5.352538307653265 L-26.70472832431495 5.259881576886124 L-26.079059083798256 5.22241852801926 L-25.45168794492216 5.2407399757126445 L-24.83250892532009 5.31455697979145 L-24.23128684801079 5.442705402005214 L-23.657503344306082 5.623164265183466 L-23.12020732282105 5.853087625252988 L-22.627872262779587 6.128849453475926 L-22.188262582185263 6.446100821089072 L-21.808311188311144 6.799838484508384 L-21.494010141610588 7.1844837894691045 L-21.2503161573444 7.593970649736034 L-21.081072435220193 8.021841212907173 L-20.988948049837163 8.461347704603822 L-20.97539585778524 8.905558844903478 L-21.040629585228775 9.34746915876474 L-21.183620457317236 9.780109456553587 L-21.402113422579188 10.19665674232711 L-21.692662716431073 10.590541816555369 L-22.050686202943115 10.955552876322246 L-22.470537637860158 11.28593347916818 L-22.945595713246465 11.576473325626484 L-23.46836847946726 11.82259042875842 L-24.030611497709923 12.020403374824367 L-24.623457859709067 12.166792535497137 L-25.237558024186722 12.259449266264278 L-25.863227264703415 12.29691231513114 L-26.49059840357951 12.278590867437755 L-27.10977742318158 12.204773863358948 L-27.71099950049088 12.076625441145186 L-28.28478300419558 11.896166577966932 L-28.82207902568062 11.666243217897408 L-29.314414085722078 11.39048138967447 L-29.7540237663164 11.073230022061326 L-30.133975160190516 10.719492358642013 L-30.448276206891077 10.334847053681292 L-30.691970191157264 9.925360193414363 L-30.86121391328147 9.497489630243225 L-30.953338298664498 9.057983138546575 L-30.96689049071642 8.61377199824692 L-30.901656763272886 8.171861684385659 L-30.758665891184425 7.73922138659681 L-30.540172925922473 7.3226741008232885 L-30.249623632070588 6.928789026595031 L-29.891600145558545 6.563777966828154 z"/>
<path fill="#000000" stroke="#000000" d="M-28.473917869034405 9.229735338249847 L-28.9966906352552 9.475852441381784 L-29.471748710641503 9.76639228784009 L-29.891600145558545 10.096772890686022 L-30.249623632070588 10.461783950452899 L-30.540172925922473 10.855669024681156 L-30.758665891184425 11.272216310454677 L-30.901656763272886 11.704856608243528 L-30.96689049071642 12.146766922104787 L-30.953338298664498 12.590978062404444 L-30.86121391328147 13.030484554101093 L-30.691970191157264 13.45835511727223 L-30.448276206891077 13.867841977539161 L-30.133975160190516 14.252487282499882 L-29.7540237663164 14.606224945919195 L-29.314414085722078 14.923476313532339 L-28.82207902568062 15.199238141755277 L-28.28478300419558 15.4291615018248 L-27.71099950049088 15.609620365003053 L-27.10977742318158 15.737768787216817 L-26.49059840357951 15.811585791295622 L-25.863227264703415 15.829907238989007 L-25.237558024186722 15.792444190122145 L-24.623457859709067 15.699787459355006 L-24.030611497709923 15.553398298682234 L-23.46836847946726 15.355585352616288 L-22.945595713246465 15.109468249484353 L-22.470537637860158 14.818928403026048 L-22.050686202943115 14.488547800180115 L-21.692662716431073 14.123536740413236 L-21.402113422579188 13.729651666184978 L-21.183620457317236 13.313104380411456 L-21.040629585228775 12.880464082622607 L-20.97539585778524 12.438553768761345 L-20.988948049837163 11.994342628461691 L-21.081072435220193 11.55483613676504 L-21.2503161573444 11.126965573593901 L-21.494010141610588 10.71747871332697 L-21.808311188311144 10.33283340836625 L-22.188262582185263 9.979095744946939 L-22.627872262779587 9.661844377333793 L-23.12020732282105 9.386082549110855 L-23.657503344306082 9.156159189041334 L-24.23128684801079 8.975700325863082 L-24.83250892532009 8.847551903649318 L-25.45168794492216 8.773734899570512 L-26.079059083798256 8.755413451877127 L-26.70472832431495 8.792876500743992 L-27.318828488792605 8.885533231511133 L-27.911674850791748 9.031922392183903 z"/>
<path fill="#000000" stroke="#000000" d="M-4.842915805643155 20.241980632930133 L-4.842915805643155 23.774975556788004 L-4.9605735065723895 23.33853094988656 L-4.9605735065723895 19.805536026028694 z"/>
<path fill="#000000" stroke="#000000" d="M-4.9605735065723895 19.805536026028694 L-4.9605735065723895 23.33853094988656 L-5 22.89509306260575 L-5 19.362098138747882 z"/>
<path fill="#000000" stroke="#000000" d="M-4.999999999999999 19.362098138747886 L-4.999999999999999 22.895093062605753 L-4.960573506572389 22.451655175324944 L-4.960573506572389 18.918660251467077 z"/>
<path fill="#000000" stroke="#000000" d="M-4.648882429441257 20.664548967282 L-4.648882429441257 24.197543891139865 L-4.842915805643155 23.774975556788004 L-4.842915805643155 20.241980632930137 z"/>
<path fill="#000000" stroke="#000000" d="M-4.381533400219319 21.066576874021465 L-4.381533400219318 24.59957179787933 L-4.648882429441257 24.197543891139865 L-4.648882429441257 20.664548967282 z"/>
<path fill="#000000" stroke="#000000" d="M-4.04508497187474 21.44172413289942 L-4.045084971874739 24.97471905675729 L-4.381533400219319 24.59957179787933 L-4.381533400219318 21.066576874021465 z"/>
<path fill="#000000" stroke="#000000" d="M-3.6448431371070593 21.784074447541265 L-3.6448431371070615 25.31706937139913 L-4.04508497187474 24.97471905675729 L-4.045084971874739 21.441724132899424 z"/>
<path fill="#000000" stroke="#000000" d="M-2.6791339748949894 22.34939034217379 L-2.679133974894988 25.88238526603166 L-3.187119948743451 25.621223672832784 L-3.1871199487434523 22.088228748974913 z"/>
<path fill="#000000" stroke="#000000" d="M-3.1871199487434536 22.08822874897491 L-3.187119948743452 25.62122367283278 L-3.644843137107059 25.317069371399132 L-3.64484313710706 21.784074447541265 z"/>
<path fill="#000000" stroke="#000000" d="M-1.5450849718747381 22.72700368117287 L-1.5450849718747381 26.259998605030738 L-2.128896457825364 26.096435476660655 L-2.128896457825364 22.563440552802785 z"/>
<path fill="#000000" stroke="#000000" d="M-0.9369065729286242 22.837500239041777 L-0.9369065729286242 26.37049516289964 L-1.5450849718747381 26.259998605030738 L-1.5450849718747381 22.72700368117287 z"/>
<path fill="#000000" stroke="#000000" d="M0.9369065729286218 22.837500239041777 L0.9369065729286218 26.37049516289964 L0.3139525976465654 26.42618255354233 L0.3139525976465654 22.893187629684462 z"/>
<path fill="#000000" stroke="#000000" d="M-0.31395259764656813 22.893187629684462 L-0.31395259764656813 26.42618255354233 L-0.9369065729286241 26.37049516289964 L-0.9369065729286241 22.837500239041777 z"/>
<path fill="#000000" stroke="#000000" d="M0.31395259764656547 22.893187629684462 L0.31395259764656547 26.42618255354233 L-0.3139525976465682 26.42618255354233 L-0.3139525976465682 22.893187629684462 z"/>
<path fill="#000000" stroke="#000000" d="M1.5450849718747357 22.72700368117287 L1.5450849718747357 26.259998605030738 L0.9369065729286218 26.37049516289964 L0.9369065729286218 22.837500239041773 z"/>
<path fill="#000000" stroke="#000000" d="M2.1288964578253617 22.56344055280279 L2.1288964578253617 26.096435476660655 L1.5450849718747357 26.259998605030738 L1.5450849718747357 22.72700368117287 z"/>
<path fill="#000000" stroke="#000000" d="M2.679133974894982 22.3493903421738 L2.679133974894982 25.882385266031665 L2.1288964578253617 26.096435476660655 L2.1288964578253617 22.56344055280279 z"/>
<path fill="#000000" stroke="#000000" d="M-2.128896457825364 22.563440552802785 L-2.128896457825364 26.096435476660652 L-2.679133974894984 25.882385266031662 L-2.679133974894984 22.349390342173795 z"/>
<path fill="#000000" stroke="#000000" d="M3.187119948743454 22.088228748974913 L3.1871199487434514 25.621223672832784 L2.6791339748949876 25.88238526603166 L2.679133974894984 22.349390342173795 z"/>
<path fill="#000000" stroke="#000000" d="M3.6448431371070584 21.784074447541265 L3.6448431371070584 25.317069371399132 L3.1871199487434487 25.621223672832784 L3.187119948743449 22.088228748974913 z"/>
<path fill="#000000" stroke="#000000" d="M4.045084971874737 21.441724132899424 L4.045084971874737 24.974719056757294 L3.644843137107058 25.317069371399132 L3.6448431371070593 21.784074447541265 z"/>
<path fill="#000000" stroke="#000000" d="M4.381533400219319 21.06657687402146 L4.381533400219319 24.59957179787933 L4.045084971874738 24.97471905675729 L4.045084971874738 21.441724132899424 z"/>
<path fill="#000000" stroke="#000000" d="M4.648882429441256 20.664548967282 L4.648882429441257 24.197543891139865 L4.381533400219318 24.59957179787933 L4.381533400219317 21.066576874021465 z"/>
<path fill="#000000" stroke="#000000" d="M4.842915805643155 20.241980632930137 L4.842915805643155 23.774975556788004 L4.648882429441257 24.197543891139865 L4.648882429441256 20.664548967282 z"/>
<path fill="#000000" stroke="#000000" d="M4.960573506572389 19.805536026028697 L4.960573506572389 23.338530949886565 L4.842915805643155 23.774975556788004 L4.842915805643155 20.241980632930137 z"/>
<path fill="#000000" stroke="#000000" d="M5 19.362098138747886 L5 22.895093062605753 L4.960573506572389 23.338530949886565 L4.960573506572389 19.805536026028697 z"/>
<path fill="#000000" stroke="#000000" d="M4.960573506572389 18.91866025146707 L4.960573506572389 22.45165517532494 L4.999999999999999 22.895093062605753 L4.999999999999999 19.362098138747886 z"/>
<path fill="#000000" stroke="#000000" d="M4.842915805643155 18.48221564456563 L4.842915805643155 22.0152105684235 L4.960573506572389 22.45165517532494 L4.960573506572389 18.918660251467074 z"/>
<path fill="#000000" stroke="#000000" d="M4.648882429441257 18.05964731021377 L4.648882429441257 21.592642234071636 L4.842915805643155 22.0152105684235 L4.842915805643155 18.48221564456563 z"/>
<path fill="#000000" stroke="#000000" d="M4.381533400219317 17.657619403474303 L4.381533400219317 21.19061432733217 L4.648882429441256 21.592642234071636 L4.648882429441257 18.05964731021377 z"/>
<path fill="#000000" stroke="#000000" d="M4.045084971874736 17.282472144596344 L4.045084971874736 20.815467068454208 L4.381533400219317 21.19061432733217 L4.381533400219317 17.657619403474303 z"/>
<path fill="#000000" stroke="#000000" d="M3.6448431371070558 16.940121829954503 L3.6448431371070553 20.47311675381237 L4.0450849718747355 20.81546706845421 L4.045084971874736 17.28247214459634 z"/>
<path fill="#000000" stroke="#000000" d="M2.6791339748949796 16.37480593532197 L2.6791339748949796 19.907800859179837 L3.187119948743446 20.168962452378718 L3.187119948743447 16.63596752852085 z"/>
<path fill="#000000" stroke="#000000" d="M2.128896457825362 16.160755724692983 L2.128896457825362 19.69375064855085 L2.6791339748949827 19.90780085917984 L2.6791339748949827 16.374805935321973 z"/>
<path fill="#000000" stroke="#000000" d="M1.5450849718747353 15.9971925963229 L1.5450849718747353 19.530187520180768 L2.128896457825362 19.69375064855085 L2.128896457825362 16.160755724692983 z"/>
<path fill="#000000" stroke="#000000" d="M3.187119948743447 16.63596752852085 L3.1871199487434465 20.168962452378718 L3.644843137107055 20.47311675381237 L3.6448431371070553 16.940121829954503 z"/>
<path fill="#000000" stroke="#000000" d="M0.9369065729286206 15.886696038453996 L0.9369065729286206 19.419690962311865 L1.545084971874735 19.530187520180768 L1.545084971874735 15.9971925963229 z"/>
<path fill="#000000" stroke="#000000" d="M0.3139525976465634 15.831008647811311 L0.3139525976465634 19.364003571669176 L0.9369065729286206 19.419690962311865 L0.9369065729286206 15.886696038453996 z"/>
<path fill="#000000" stroke="#000000" d="M-1.5450849718747404 15.997192596322902 L-1.5450849718747404 19.530187520180768 L-0.936906572928626 19.419690962311865 L-0.936906572928626 15.886696038453998 z"/>
<path fill="#000000" stroke="#000000" d="M-0.9369065729286259 15.886696038453998 L-0.9369065729286259 19.419690962311865 L-0.3139525976465689 19.364003571669176 L-0.3139525976465689 15.831008647811311 z"/>
<path fill="#000000" stroke="#000000" d="M-0.31395259764656896 15.831008647811311 L-0.31395259764656896 19.364003571669176 L0.31395259764656347 19.364003571669176 L0.31395259764656347 15.831008647811311 z"/>
<path fill="#000000" stroke="#000000" d="M-3.187119948743449 16.635967528520855 L-3.187119948743451 20.16896245237872 L-2.6791339748949836 19.90780085917984 L-2.679133974894986 16.374805935321973 z"/>
<path fill="#000000" stroke="#000000" d="M-2.679133974894987 16.374805935321977 L-2.679133974894987 19.907800859179844 L-2.128896457825367 19.693750648550854 L-2.128896457825367 16.160755724692986 z"/>
<path fill="#000000" stroke="#000000" d="M-2.128896457825367 16.160755724692983 L-2.128896457825367 19.693750648550854 L-1.5450849718747404 19.530187520180768 L-1.5450849718747404 15.997192596322902 z"/>
<path fill="#000000" stroke="#000000" d="M-3.6448431371070615 16.940121829954506 L-3.6448431371070624 20.473116753812374 L-3.187119948743452 20.16896245237872 L-3.187119948743451 16.635967528520855 z"/>
<path fill="#000000" stroke="#000000" d="M-4.04508497187474 17.282472144596344 L-4.04508497187474 20.815467068454215 L-3.644843137107061 20.473116753812374 L-3.644843137107061 16.940121829954506 z"/>
<path fill="#000000" stroke="#000000" d="M-4.842915805643157 18.48221564456564 L-4.842915805643156 22.015210568423505 L-4.64888242944126 21.592642234071644 L-4.648882429441259 18.059647310213773 z"/>
<path fill="#000000" stroke="#000000" d="M-4.960573506572389 18.918660251467077 L-4.960573506572389 22.451655175324944 L-4.842915805643157 22.015210568423505 L-4.842915805643157 18.482215644565635 z"/>
<path fill="#000000" stroke="#000000" d="M-4.381533400219322 17.657619403474307 L-4.381533400219322 21.190614327332177 L-4.045084971874741 20.815467068454215 L-4.045084971874741 17.282472144596348 z"/>
<path fill="#000000" stroke="#000000" d="M-4.64888242944126 18.059647310213776 L-4.648882429441259 21.592642234071644 L-4.381533400219321 21.190614327332174 L-4.381533400219322 17.657619403474307 z"/>
<path fill="#000000" stroke="#000000" d="M-4.842915805643155 20.241980632930137 L-4.9605735065723895 19.805536026028694 L-5 19.362098138747882 L-4.9605735065723895 18.918660251467074 L-4.842915805643158 18.48221564456564 L-4.648882429441261 18.059647310213773 L-4.381533400219323 17.657619403474307 L-4.045084971874742 17.282472144596344 L-3.644843137107063 16.940121829954506 L-3.187119948743453 16.635967528520858 L-2.6791339748949876 16.374805935321973 L-2.1288964578253675 16.160755724692983 L-1.5450849718747406 15.9971925963229 L-0.9369065729286261 15.886696038453996 L-0.31395259764656896 15.83100864781131 L0.31395259764656347 15.83100864781131 L0.9369065729286207 15.886696038453996 L1.5450849718747355 15.9971925963229 L2.1288964578253626 16.160755724692983 L2.679133974894983 16.374805935321973 L3.187119948743449 16.63596752852085 L3.644843137107057 16.940121829954503 L4.045084971874737 17.28247214459634 L4.381533400219318 17.657619403474303 L4.648882429441258 18.05964731021377 L4.842915805643156 18.48221564456563 L4.9605735065723895 18.91866025146707 L5 19.362098138747882 L4.960573506572389 19.805536026028697 L4.842915805643155 20.241980632930137 L4.648882429441256 20.664548967281995 L4.381533400219317 21.066576874021468 L4.045084971874736 21.441724132899424 L3.644843137107057 21.784074447541265 L3.1871199487434483 22.088228748974913 L2.6791339748949823 22.34939034217379 L2.128896457825362 22.563440552802785 L1.545084971874736 22.727003681172867 L0.9369065729286219 22.837500239041773 L0.31395259764656547 22.89318762968446 L-0.3139525976465682 22.89318762968446 L-0.9369065729286243 22.837500239041773 L-1.5450849718747384 22.727003681172867 L-2.1288964578253644 22.563440552802785 L-2.6791339748949845 22.34939034217379 L-3.18711994874345 22.08822874897491 L-3.644843137107059 21.784074447541265 L-4.045084971874738 21.441724132899424 L-4.381533400219318 21.06657687402146 L-4.648882429441257 20.664548967281995 z"/>
<path fill="#000000" stroke="#000000" d="M-5 22.89509306260575 L-4.9605735065723895 23.338530949886565 L-4.842915805643155 23.774975556788004 L-4.648882429441257 24.197543891139862 L-4.381533400219318 24.599571797879328 L-4.045084971874738 24.97471905675729 L-3.644843137107059 25.317069371399132 L-3.18711994874345 25.62122367283278 L-2.6791339748949845 25.88238526603166 L-2.1288964578253644 26.096435476660652 L-1.5450849718747384 26.259998605030734 L-0.9369065729286243 26.37049516289964 L-0.3139525976465682 26.426182553542326 L0.31395259764656547 26.426182553542326 L0.9369065729286219 26.37049516289964 L1.545084971874736 26.259998605030738 L2.128896457825362 26.096435476660652 L2.6791339748949823 25.88238526603166 L3.1871199487434483 25.62122367283278 L3.644843137107057 25.317069371399132 L4.045084971874736 24.97471905675729 L4.381533400219317 24.599571797879335 L4.648882429441256 24.197543891139865 L4.842915805643155 23.774975556788004 L4.960573506572389 23.338530949886565 L5 22.89509306260575 L4.9605735065723895 22.45165517532494 L4.842915805643156 22.015210568423498 L4.648882429441258 21.592642234071636 L4.381533400219318 21.19061432733217 L4.045084971874737 20.815467068454208 L3.644843137107057 20.47311675381237 L3.187119948743449 20.168962452378718 L2.679133974894983 19.907800859179837 L2.1288964578253626 19.69375064855085 L1.5450849718747355 19.530187520180764 L0.9369065729286207 19.41969096231186 L0.31395259764656347 19.364003571669176 L-0.31395259764656896 19.364003571669176 L-0.9369065729286261 19.41969096231186 L-1.5450849718747406 19.530187520180768 L-2.1288964578253675 19.69375064855085 L-2.6791339748949876 19.90780085917984 L-3.187119948743453 20.168962452378725 L-3.644843137107063 20.473116753812374 L-4.045084971874742 20.81546706845421 L-4.381533400219323 21.190614327332174 L-4.648882429441261 21.59264223407164 L-4.842915805643158 22.015210568423505 L-4.9605735065723895 22.45165517532494 z"/>
<path fill="#000000" stroke="#000000" d="M24.623457859709063 12.166792535497137 L24.623457859709063 15.699787459355006 L24.030611497709916 15.553398298682234 L24.030611497709916 12.020403374824367 z"/>
<path fill="#000000" stroke="#000000" d="M24.030611497709916 12.020403374824367 L24.030611497709916 15.553398298682234 L23.468368479467255 15.355585352616286 L23.468368479467255 11.822590428758419 z"/>
<path fill="#000000" stroke="#000000" d="M23.468368479467255 11.822590428758419 L23.468368479467255 15.355585352616288 L22.94559571324647 15.109468249484355 L22.94559571324647 11.576473325626486 z"/>
<path fill="#000000" stroke="#000000" d="M25.23755802418672 12.259449266264278 L25.23755802418672 15.792444190122145 L24.623457859709063 15.699787459355006 L24.623457859709063 12.166792535497137 z"/>
<path fill="#000000" stroke="#000000" d="M25.86322726470341 12.296912315131141 L25.86322726470341 15.829907238989009 L25.237558024186715 15.792444190122145 L25.237558024186715 12.259449266264278 z"/>
<path fill="#000000" stroke="#000000" d="M26.490598403579504 12.278590867437757 L26.490598403579504 15.811585791295625 L25.863227264703408 15.82990723898901 L25.863227264703408 12.296912315131141 z"/>
<path fill="#000000" stroke="#000000" d="M27.109777423181573 12.204773863358952 L27.109777423181573 15.737768787216819 L26.490598403579504 15.811585791295625 L26.490598403579504 12.278590867437757 z"/>
<path fill="#000000" stroke="#000000" d="M28.28478300419558 11.896166577966934 L28.28478300419558 15.429161501824801 L27.710999500490875 15.609620365003057 L27.710999500490875 12.076625441145188 z"/>
<path fill="#000000" stroke="#000000" d="M27.710999500490875 12.076625441145188 L27.710999500490875 15.609620365003057 L27.109777423181573 15.73776878721682 L27.109777423181573 12.204773863358952 z"/>
<path fill="#000000" stroke="#000000" d="M29.314414085722074 11.390481389674473 L29.314414085722078 14.923476313532339 L28.82207902568062 15.199238141755275 L28.822079025680615 11.66624321789741 z"/>
<path fill="#000000" stroke="#000000" d="M29.754023766316397 11.07323002206133 L29.7540237663164 14.606224945919195 L29.314414085722078 14.92347631353234 L29.314414085722078 11.390481389674473 z"/>
<path fill="#000000" stroke="#000000" d="M30.69197019115726 9.925360193414365 L30.691970191157264 13.45835511727223 L30.448276206891077 13.867841977539161 L30.448276206891077 10.334847053681294 z"/>
<path fill="#000000" stroke="#000000" d="M30.133975160190516 10.719492358642015 L30.133975160190516 14.252487282499883 L29.754023766316397 14.606224945919196 L29.754023766316397 11.073230022061328 z"/>
<path fill="#000000" stroke="#000000" d="M30.448276206891077 10.334847053681294 L30.448276206891077 13.867841977539163 L30.133975160190516 14.252487282499882 L30.133975160190516 10.719492358642015 z"/>
<path fill="#000000" stroke="#000000" d="M30.861213913281468 9.497489630243226 L30.861213913281468 13.030484554101095 L30.69197019115726 13.458355117272232 L30.69197019115726 9.925360193414363 z"/>
<path fill="#000000" stroke="#000000" d="M30.953338298664498 9.057983138546577 L30.953338298664498 12.590978062404444 L30.861213913281468 13.030484554101095 L30.861213913281468 9.497489630243228 z"/>
<path fill="#000000" stroke="#000000" d="M30.96689049071642 8.613771998246921 L30.96689049071642 12.14676692210479 L30.953338298664498 12.590978062404444 L30.953338298664498 9.057983138546577 z"/>
<path fill="#000000" stroke="#000000" d="M28.822079025680615 11.666243217897412 L28.822079025680615 15.199238141755279 L28.284783004195578 15.429161501824801 L28.284783004195578 11.896166577966934 z"/>
<path fill="#000000" stroke="#000000" d="M30.90165676327289 8.17186168438566 L30.90165676327289 11.70485660824353 L30.96689049071642 12.14676692210479 L30.96689049071642 8.613771998246921 z"/>
<path fill="#000000" stroke="#000000" d="M30.758665891184425 7.739221386596813 L30.758665891184425 11.272216310454679 L30.90165676327289 11.704856608243528 L30.90165676327289 8.17186168438566 z"/>
<path fill="#000000" stroke="#000000" d="M30.540172925922477 7.32267410082329 L30.540172925922477 10.85566902468116 L30.758665891184425 11.272216310454679 L30.758665891184425 7.739221386596811 z"/>
<path fill="#000000" stroke="#000000" d="M30.24962363207059 6.928789026595033 L30.249623632070588 10.461783950452899 L30.540172925922477 10.85566902468116 L30.540172925922477 7.32267410082329 z"/>
<path fill="#000000" stroke="#000000" d="M29.891600145558545 6.563777966828156 L29.891600145558545 10.096772890686024 L30.249623632070588 10.461783950452899 L30.249623632070588 6.928789026595032 z"/>
<path fill="#000000" stroke="#000000" d="M29.471748710641506 6.233397363982221 L29.471748710641506 9.766392287840091 L29.891600145558545 10.096772890686022 L29.891600145558545 6.563777966828157 z"/>
<path fill="#000000" stroke="#000000" d="M28.9966906352552 5.942857517523918 L28.9966906352552 9.475852441381784 L29.471748710641503 9.76639228784009 L29.471748710641506 6.233397363982223 z"/>
<path fill="#000000" stroke="#000000" d="M28.473917869034402 5.696740414391979 L28.473917869034402 9.229735338249844 L28.9966906352552 9.475852441381782 L28.9966906352552 5.942857517523917 z"/>
<path fill="#000000" stroke="#000000" d="M27.911674850791744 5.498927468326033 L27.911674850791744 9.031922392183901 L28.473917869034405 9.229735338249847 L28.473917869034405 5.6967404143919795 z"/>
<path fill="#000000" stroke="#000000" d="M27.318828488792597 5.352538307653262 L27.318828488792597 8.88553323151113 L27.911674850791744 9.031922392183901 L27.911674850791744 5.498927468326033 z"/>
<path fill="#000000" stroke="#000000" d="M26.704728324314942 5.259881576886123 L26.704728324314942 8.79287650074399 L27.318828488792594 8.88553323151113 L27.318828488792594 5.352538307653263 z"/>
<path fill="#000000" stroke="#000000" d="M26.079059083798246 5.2224185280192605 L26.079059083798246 8.755413451877127 L26.70472832431494 8.79287650074399 L26.70472832431494 5.259881576886123 z"/>
<path fill="#000000" stroke="#000000" d="M25.451687944922153 5.240739975712645 L25.451687944922153 8.773734899570513 L26.079059083798246 8.755413451877128 L26.079059083798246 5.2224185280192605 z"/>
<path fill="#000000" stroke="#000000" d="M24.83250892532008 5.314556979791453 L24.83250892532008 8.84755190364932 L25.451687944922153 8.773734899570513 L25.451687944922153 5.240739975712646 z"/>
<path fill="#000000" stroke="#000000" d="M23.657503344306075 5.623164265183471 L23.657503344306075 9.156159189041338 L24.231286848010782 8.975700325863084 L24.231286848010782 5.442705402005218 z"/>
<path fill="#000000" stroke="#000000" d="M23.12020732282104 5.853087625252993 L23.12020732282104 9.38608254911086 L23.65750334430608 9.156159189041338 L23.65750334430608 5.62316426518347 z"/>
<path fill="#000000" stroke="#000000" d="M22.627872262779583 6.1288494534759295 L22.627872262779583 9.661844377333795 L23.120207322821045 9.386082549110858 L23.120207322821045 5.85308762525299 z"/>
<path fill="#000000" stroke="#000000" d="M24.231286848010782 5.442705402005217 L24.231286848010782 8.975700325863084 L24.83250892532008 8.84755190364932 L24.83250892532008 5.314556979791454 z"/>
<path fill="#000000" stroke="#000000" d="M22.18826258218526 6.446100821089074 L22.18826258218526 9.979095744946942 L22.627872262779583 9.661844377333797 L22.627872262779583 6.128849453475929 z"/>
<path fill="#000000" stroke="#000000" d="M21.808311188311144 6.7998384845083875 L21.808311188311144 10.332833408366254 L22.18826258218526 9.979095744946942 L22.18826258218526 6.446100821089074 z"/>
<path fill="#000000" stroke="#000000" d="M21.081072435220193 8.021841212907177 L21.081072435220193 11.554836136765044 L21.250316157344397 11.126965573593907 L21.250316157344397 7.593970649736039 z"/>
<path fill="#000000" stroke="#000000" d="M21.250316157344397 7.593970649736039 L21.250316157344397 11.126965573593905 L21.494010141610584 10.717478713326974 L21.494010141610584 7.184483789469108 z"/>
<path fill="#000000" stroke="#000000" d="M21.494010141610584 7.184483789469108 L21.494010141610584 10.717478713326974 L21.808311188311144 10.332833408366255 L21.808311188311144 6.7998384845083875 z"/>
<path fill="#000000" stroke="#000000" d="M21.040629585228775 9.347469158764744 L21.040629585228775 12.88046408262261 L20.97539585778524 12.43855376876135 L20.97539585778524 8.905558844903481 z"/>
<path fill="#000000" stroke="#000000" d="M20.97539585778524 8.905558844903481 L20.97539585778524 12.438553768761349 L20.988948049837163 11.994342628461695 L20.988948049837163 8.461347704603826 z"/>
<path fill="#000000" stroke="#000000" d="M20.988948049837163 8.461347704603826 L20.988948049837163 11.994342628461695 L21.081072435220193 11.554836136765044 L21.081072435220193 8.021841212907177 z"/>
<path fill="#000000" stroke="#000000" d="M21.18362045731724 9.780109456553593 L21.18362045731724 13.313104380411461 L21.040629585228775 12.880464082622611 L21.040629585228775 9.347469158764744 z"/>
<path fill="#000000" stroke="#000000" d="M21.40211342257919 10.196656742327114 L21.40211342257919 13.729651666184983 L21.183620457317236 13.313104380411461 L21.18362045731724 9.780109456553594 z"/>
<path fill="#000000" stroke="#000000" d="M22.470537637860165 11.285933479168184 L22.470537637860165 14.818928403026051 L22.050686202943123 14.488547800180118 L22.050686202943123 10.955552876322251 z"/>
<path fill="#000000" stroke="#000000" d="M22.94559571324647 11.576473325626486 L22.94559571324647 15.109468249484351 L22.470537637860165 14.818928403026053 L22.470537637860165 11.285933479168184 z"/>
<path fill="#000000" stroke="#000000" d="M21.692662716431077 10.590541816555374 L21.692662716431077 14.123536740413241 L21.40211342257919 13.729651666184983 L21.402113422579188 10.196656742327114 z"/>
<path fill="#000000" stroke="#000000" d="M22.050686202943123 10.95555287632225 L22.050686202943123 14.488547800180118 L21.692662716431077 14.123536740413241 L21.692662716431077 10.590541816555373 z"/>
<path fill="#000000" stroke="#000000" d="M24.623457859709067 12.166792535497137 L24.03061149770992 12.020403374824365 L23.46836847946726 11.82259042875842 L22.94559571324647 11.576473325626486 L22.470537637860165 11.285933479168184 L22.050686202943123 10.95555287632225 L21.692662716431077 10.590541816555374 L21.40211342257919 10.196656742327114 L21.18362045731724 9.780109456553594 L21.040629585228775 9.347469158764744 L20.97539585778524 8.905558844903481 L20.988948049837163 8.461347704603826 L21.081072435220193 8.021841212907175 L21.250316157344397 7.593970649736038 L21.494010141610584 7.184483789469107 L21.80831118831114 6.799838484508388 L22.18826258218526 6.4461008210890745 L22.627872262779583 6.1288494534759295 L23.120207322821045 5.853087625252991 L23.65750334430608 5.623164265183468 L24.231286848010782 5.442705402005215 L24.832508925320084 5.314556979791452 L25.451687944922153 5.240739975712645 L26.07905908379825 5.2224185280192605 L26.704728324314942 5.259881576886123 L27.318828488792597 5.352538307653264 L27.911674850791744 5.498927468326034 L28.473917869034405 5.696740414391981 L28.9966906352552 5.942857517523918 L29.471748710641506 6.233397363982222 L29.891600145558545 6.563777966828156 L30.24962363207059 6.928789026595033 L30.540172925922477 7.32267410082329 L30.758665891184425 7.739221386596812 L30.90165676327289 8.17186168438566 L30.96689049071642 8.613771998246921 L30.953338298664498 9.057983138546577 L30.861213913281468 9.497489630243226 L30.69197019115726 9.925360193414363 L30.448276206891077 10.334847053681294 L30.133975160190516 10.719492358642015 L29.754023766316397 11.073230022061328 L29.314414085722074 11.390481389674472 L28.822079025680615 11.66624321789741 L28.28478300419558 11.896166577966932 L27.710999500490875 12.076625441145186 L27.109777423181576 12.20477386335895 L26.490598403579508 12.278590867437755 L25.86322726470341 12.29691231513114 L25.237558024186722 12.259449266264278 z"/>
<path fill="#000000" stroke="#000000" d="M23.46836847946726 15.355585352616288 L24.03061149770992 15.553398298682234 L24.623457859709067 15.699787459355004 L25.237558024186722 15.792444190122145 L25.86322726470341 15.829907238989007 L26.490598403579508 15.811585791295622 L27.109777423181576 15.737768787216817 L27.710999500490875 15.609620365003053 L28.28478300419558 15.429161501824801 L28.822079025680615 15.199238141755277 L29.314414085722074 14.923476313532342 L29.754023766316397 14.606224945919196 L30.133975160190516 14.252487282499883 L30.448276206891077 13.867841977539163 L30.69197019115726 13.458355117272232 L30.861213913281468 13.030484554101095 L30.953338298664498 12.590978062404446 L30.96689049071642 12.14676692210479 L30.90165676327289 11.70485660824353 L30.758665891184425 11.272216310454679 L30.540172925922477 10.855669024681157 L30.24962363207059 10.4617839504529 L29.891600145558545 10.096772890686024 L29.471748710641506 9.76639228784009 L28.9966906352552 9.475852441381786 L28.473917869034405 9.22973533824985 L27.911674850791744 9.031922392183901 L27.318828488792597 8.88553323151113 L26.704728324314942 8.79287650074399 L26.07905908379825 8.755413451877128 L25.451687944922153 8.773734899570513 L24.832508925320084 8.847551903649318 L24.231286848010782 8.975700325863082 L23.65750334430608 9.156159189041336 L23.120207322821045 9.386082549110856 L22.627872262779583 9.661844377333797 L22.18826258218526 9.979095744946942 L21.80831118831114 10.332833408366255 L21.494010141610584 10.717478713326976 L21.250316157344397 11.126965573593907 L21.081072435220193 11.554836136765042 L20.988948049837163 11.994342628461695 L20.97539585778524 12.438553768761349 L21.040629585228775 12.880464082622611 L21.18362045731724 13.313104380411461 L21.40211342257919 13.729651666184985 L21.692662716431077 14.123536740413241 L22.050686202943123 14.488547800180118 L22.470537637860165 14.818928403026051 L22.94559571324647 15.109468249484355 z"/>
</svg>