<?xml version="1.0" encoding="UTF-8"?>
<!-- Generated by jsxcad -->
<!DOCTYPE svg PUBLIC "-//W3C//DTD SVG 1.1 Tiny//EN" "http://www.w3.org/Graphics/SVG/1.1/DTD/svg11-tiny.dtd">
<svg baseProfile="tiny" height="40.00000000000003mm" width="40.00000000000003mm" viewBox="0 0 40.00000000000003 40.00000000000003" version="1.1" stroke="black" stroke-width=".1" fill="none" xmlns="http://www.w3.org/2000/svg">
<path fill="#000000" stroke="#000000" d="M49.02455 24.90393 L48.08658 24.6194 L47.22215 24.15735 L46.46447 23.53553 L45.84265 22.77785 L45.3806 21.91342 L45.09607 20.97545 L45 20 L45.09607 19.02455 L45.3806 18.08658 L45.84265 17.22215 L46.46447 16.46447 L47.22215 15.84265 L48.08658 15.3806 L49.02455 15.09607 L50 15 L50.97545 15.09607 L51.91342 15.3806 L52.77785 15.84265 L53.53553 16.46447 L54.15735 17.22215 L54.6194 18.08658 L54.90393 19.02455 L55 20 L54.90393 20.97545 L54.6194 21.91342 L54.15735 22.77785 L53.53553 23.53553 L52.77785 24.15735 L51.91342 24.6194 L50.97545 24.90393 L50 25 z"/>
<path fill="#000000" stroke="#000000" d="M50.97544966450271 24.903926593638868 L50.97544966450271 24.903926593638868 L50 25.000000000000014 L50 25.000000000000014 z"/>
<path fill="#000000" stroke="#000000" d="M49.02455033549728 24.903926593638865 L49.02455033549728 24.903926593638865 L49.99999999999999 25.00000000000001 L49.99999999999999 25.00000000000001 z"/>
<path fill="#000000" stroke="#000000" d="M52.77784951827945 24.157349413021812 L52.77784951827945 24.157349413021812 L53.535533487402205 23.53553424941189 L53.535533487402205 23.53553424941189 z"/>
<path fill="#000000" stroke="#000000" d="M51.91341911153364 24.619397071118936 L51.91341911153364 24.619397071118936 L50.9754491362074 24.903927152457413 L50.9754491362074 24.903927152457413 z"/>
<path fill="#000000" stroke="#000000" d="M51.913418397558736 24.61939700204325 L51.913418397558736 24.61939700204325 L52.777849453005494 24.15734897664526 L52.777849453005494 24.15734897664526 z"/>
<path fill="#000000" stroke="#000000" d="M54.15734941302181 22.77784951827945 L54.15734941302181 22.77784951827945 L53.53553424941189 23.53553348740221 L53.53553424941189 23.53553348740221 z"/>
<path fill="#000000" stroke="#000000" d="M54.61939700204325 21.913418397558733 L54.61939700204325 21.913418397558733 L54.15734897664526 22.777849453005494 L54.15734897664526 22.777849453005494 z"/>
<path fill="#000000" stroke="#000000" d="M54.61939707111893 21.913419111533642 L54.61939707111893 21.913419111533642 L54.90392715245741 20.975449136207395 L54.90392715245741 20.975449136207395 z"/>
<path fill="#000000" stroke="#000000" d="M55.000000000000014 20 L55.000000000000014 20 L54.903926593638865 20.975449664502708 L54.903926593638865 20.975449664502708 z"/>
<path fill="#000000" stroke="#000000" d="M55.00000000000001 19.999999999999996 L55.00000000000001 19.999999999999996 L54.903926593638865 19.02455033549729 L54.903926593638865 19.02455033549729 z"/>
<path fill="#000000" stroke="#000000" d="M54.619397071118925 18.086580888466358 L54.619397071118925 18.086580888466358 L54.903927152457406 19.0245508637926 L54.903927152457406 19.0245508637926 z"/>
<path fill="#000000" stroke="#000000" d="M54.619397002043236 18.08658160244127 L54.619397002043236 18.08658160244127 L54.157348976645245 17.222150546994506 L54.157348976645245 17.222150546994506 z"/>
<path fill="#000000" stroke="#000000" d="M53.535534249411874 16.4644665125978 L53.535534249411874 16.4644665125978 L54.1573494130218 17.222150481720558 L54.1573494130218 17.222150481720558 z"/>
<path fill="#000000" stroke="#000000" d="M50.97544913620739 15.096072847542612 L50.97544913620739 15.096072847542612 L51.913419111533635 15.380602928881087 L51.913419111533635 15.380602928881087 z"/>
<path fill="#000000" stroke="#000000" d="M52.77784945300548 15.842651023354758 L52.77784945300548 15.842651023354758 L51.91341839755872 15.380602997956768 L51.91341839755872 15.380602997956768 z"/>
<path fill="#000000" stroke="#000000" d="M52.77784951827944 15.842650586978202 L52.77784951827944 15.842650586978202 L53.53553348740219 16.464465750588126 L53.53553348740219 16.464465750588126 z"/>
<path fill="#000000" stroke="#000000" d="M48.08658160244128 15.38060299795678 L48.08658160244128 15.38060299795678 L47.22215054699452 15.84265102335477 L47.22215054699452 15.84265102335477 z"/>
<path fill="#000000" stroke="#000000" d="M50 15.000000000000014 L50 15.000000000000014 L49.02455033549729 15.09607340636116 L49.02455033549729 15.09607340636116 z"/>
<path fill="#000000" stroke="#000000" d="M49.024550863792605 15.096072847542619 L49.024550863792605 15.096072847542619 L48.086580888466365 15.380602928881096 L48.086580888466365 15.380602928881096 z"/>
<path fill="#000000" stroke="#000000" d="M49.99999999999999 15.000000000000012 L49.99999999999999 15.000000000000012 L50.975449664502705 15.096073406361159 L50.975449664502705 15.096073406361159 z"/>
<path fill="#000000" stroke="#000000" d="M46.46446651259781 16.46446575058814 L46.46446651259781 16.46446575058814 L47.22215048172057 15.842650586978216 L47.22215048172057 15.842650586978216 z"/>
<path fill="#000000" stroke="#000000" d="M46.46446575058814 16.464466512597813 L46.46446575058814 16.464466512597813 L45.84265058697821 17.222150481720572 L45.84265058697821 17.222150481720572 z"/>
<path fill="#000000" stroke="#000000" d="M45.38060299795678 18.08658160244128 L45.38060299795678 18.08658160244128 L45.84265102335477 17.22215054699452 L45.84265102335477 17.22215054699452 z"/>
<path fill="#000000" stroke="#000000" d="M45.38060292888109 18.086580888466365 L45.38060292888109 18.086580888466365 L45.096072847542615 19.024550863792612 L45.096072847542615 19.024550863792612 z"/>
<path fill="#000000" stroke="#000000" d="M45.000000000000014 20 L45.000000000000014 20 L45.09607340636116 19.024550335497292 L45.09607340636116 19.024550335497292 z"/>
<path fill="#000000" stroke="#000000" d="M45.09607340636116 20.975449664502705 L45.09607340636116 20.975449664502705 L45.00000000000001 19.999999999999996 L45.00000000000001 19.999999999999996 z"/>
<path fill="#000000" stroke="#000000" d="M45.09607284754261 20.975449136207388 L45.09607284754261 20.975449136207388 L45.38060292888108 21.91341911153363 L45.38060292888108 21.91341911153363 z"/>
<path fill="#000000" stroke="#000000" d="M45.842651023354755 22.777849453005484 L45.842651023354755 22.777849453005484 L45.380602997956764 21.91341839755872 L45.380602997956764 21.91341839755872 z"/>
<path fill="#000000" stroke="#000000" d="M46.464465750588126 23.535533487402198 L46.464465750588126 23.535533487402198 L45.842650586978195 22.77784951827944 L45.842650586978195 22.77784951827944 z"/>
<path fill="#000000" stroke="#000000" d="M46.464466512597795 23.535534249411874 L46.464466512597795 23.535534249411874 L47.222150481720554 24.157349413021798 L47.222150481720554 24.157349413021798 z"/>
<path fill="#000000" stroke="#000000" d="M48.086581602441264 24.61939700204324 L48.086581602441264 24.61939700204324 L47.222150546994506 24.15734897664525 L47.222150546994506 24.15734897664525 z"/>
<path fill="#000000" stroke="#000000" d="M48.08658088846635 24.61939707111893 L48.08658088846635 24.61939707111893 L49.0245508637926 24.903927152457403 L49.0245508637926 24.903927152457403 z"/>
<path fill="#000000" stroke="#000000" d="M48.08658 24.6194 L49.02455 24.90393 L50 25 L50.97545 24.90393 L51.91342 24.6194 L52.77785 24.15735 L53.53553 23.53553 L54.15735 22.77785 L54.6194 21.91342 L54.90393 20.97545 L55 20 L54.90393 19.02455 L54.6194 18.08658 L54.15735 17.22215 L53.53553 16.46447 L52.77785 15.84265 L51.91342 15.3806 L50.97545 15.09607 L50 15 L49.02455 15.09607 L48.08658 15.3806 L47.22215 15.84265 L46.46447 16.46447 L45.84265 17.22215 L45.3806 18.08658 L45.09607 19.02455 L45 20 L45.09607 20.97545 L45.3806 21.91342 L45.84265 22.77785 L46.46447 23.53553 L47.22215 24.15735 z"/>
<path fill="#000000" stroke="#000000" d="M42.67201 38.77373 L42.00243 38.05791 L41.48536 37.22522 L41.14069 36.30765 L40.98164 35.34047 L41.01434 34.36084 L41.23752 33.40642 L41.64262 32.51387 L42.21406 31.71751 L42.92988 31.04793 L43.76257 30.53087 L44.68014 30.18619 L45.64733 30.02714 L46.62695 30.05984 L47.58137 30.28303 L48.47392 30.68812 L49.27028 31.25956 L49.93986 31.97538 L50.45692 32.80808 L50.8016 33.72565 L50.96065 34.69283 L50.92795 35.67246 L50.70476 36.62688 L50.29967 37.51942 L49.72823 38.31579 L49.01241 38.98536 L48.17971 39.50243 L47.26214 39.84711 L46.29496 40.00615 L45.31534 39.97345 L44.36091 39.75027 L43.46837 39.34517 z"/>
<path fill="#000000" stroke="#000000" d="M44.36091112718008 39.750267516495896 L44.36091112718008 39.750267516495896 L43.4683689758992 39.34517225639057 L43.4683689758992 39.34517225639057 z"/>
<path fill="#000000" stroke="#000000" d="M42.67200678778041 38.773734476584714 L42.67200678778041 38.773734476584714 L43.468368521128795 39.34517206097125 L43.468368521128795 39.34517206097125 z"/>
<path fill="#000000" stroke="#000000" d="M46.294960244069195 40.00615148422338 L46.294960244069195 40.00615148422338 L47.262139385455846 39.84710626285984 L47.262139385455846 39.84710626285984 z"/>
<path fill="#000000" stroke="#000000" d="M45.31533904712351 39.973454074853116 L45.31533904712351 39.973454074853116 L44.36091058076621 39.750267516428345 L44.36091058076621 39.750267516428345 z"/>
<path fill="#000000" stroke="#000000" d="M45.31533988860566 39.97345333733616 L45.31533988860566 39.97345333733616 L46.2949599562991 40.00615130926386 L46.2949599562991 40.00615130926386 z"/>
<path fill="#000000" stroke="#000000" d="M48.17970969645215 39.502429191922126 L48.17970969645215 39.502429191922126 L47.26213893057275 39.847107153066666 L47.26213893057275 39.847107153066666 z"/>
<path fill="#000000" stroke="#000000" d="M49.012411441649114 38.98536232167719 L49.012411441649114 38.98536232167719 L48.17970981889462 39.502429708342184 L48.17970981889462 39.502429708342184 z"/>
<path fill="#000000" stroke="#000000" d="M49.01241119165701 38.98536127395474 L49.01241119165701 38.98536127395474 L49.72822725661409 38.3157870671515 L49.72822725661409 38.3157870671515 z"/>
<path fill="#000000" stroke="#000000" d="M50.29966940018808 37.51941956959876 L50.29966940018808 37.51941956959876 L49.728227079094665 38.31578790407421 L49.728227079094665 38.31578790407421 z"/>
<path fill="#000000" stroke="#000000" d="M50.299668620447775 37.519419373867024 L50.299668620447775 37.519419373867024 L50.70476217246088 36.62688098600789 L50.70476217246088 36.62688098600789 z"/>
<path fill="#000000" stroke="#000000" d="M50.92794741992036 35.67245939666605 L50.92794741992036 35.67245939666605 L50.7047625602107 36.626880598687734 L50.7047625602107 36.626880598687734 z"/>
<path fill="#000000" stroke="#000000" d="M50.92794805980844 35.672459935239864 L50.92794805980844 35.672459935239864 L50.96064636514687 34.69282987867508 L50.96064636514687 34.69282987867508 z"/>
<path fill="#000000" stroke="#000000" d="M50.801600921592836 33.7256498484511 L50.801600921592836 33.7256498484511 L50.96064640624949 34.69283059096482 L50.96064640624949 34.69283059096482 z"/>
<path fill="#000000" stroke="#000000" d="M49.27027906683495 31.2595608728824 L49.27027906683495 31.2595608728824 L49.93985794022747 31.97538192671082 L49.93985794022747 31.97538192671082 z"/>
<path fill="#000000" stroke="#000000" d="M50.45692271909468 32.80807831157386 L50.45692271909468 32.80807831157386 L49.93985811523993 31.97538117034474 L49.93985811523993 31.97538117034474 z"/>
<path fill="#000000" stroke="#000000" d="M50.45692313640865 32.80807882183371 L50.45692313640865 32.80807882183371 L50.80160109755319 33.72564958771311 L50.80160109755319 33.72564958771311 z"/>
<path fill="#000000" stroke="#000000" d="M46.626949896034894 30.05984311475894 L46.626949896034894 30.05984311475894 L45.647329828341455 30.027145142831237 L45.647329828341455 30.027145142831237 z"/>
<path fill="#000000" stroke="#000000" d="M48.47391801535922 30.688124372738287 L48.47391801535922 30.688124372738287 L47.5813713355923 30.28302705730344 L47.5813713355923 30.28302705730344 z"/>
<path fill="#000000" stroke="#000000" d="M47.581370560454765 30.28302760328764 L47.581370560454765 30.28302760328764 L46.62694935843308 30.05984274357799 L46.62694935843308 30.05984274357799 z"/>
<path fill="#000000" stroke="#000000" d="M48.473917235931324 30.688123852036654 L48.473917235931324 30.688123852036654 L49.27027896927971 31.259561436423187 L49.27027896927971 31.259561436423187 z"/>
<path fill="#000000" stroke="#000000" d="M44.68014019526749 30.186191187452515 L44.68014019526749 30.186191187452515 L45.647330674488096 30.027144101668796 L45.647330674488096 30.027144101668796 z"/>
<path fill="#000000" stroke="#000000" d="M44.680140648775975 30.186191727113243 L44.680140648775975 30.186191727113243 L43.76256988289658 30.530869688257784 L43.76256988289658 30.530869688257784 z"/>
<path fill="#000000" stroke="#000000" d="M42.929880382331376 31.047930615718517 L42.929880382331376 31.047930615718517 L43.762570306370755 30.53087049338913 L43.762570306370755 30.53087049338913 z"/>
<path fill="#000000" stroke="#000000" d="M42.92988026598748 31.047930284357 L42.92988026598748 31.047930284357 L42.21405921215906 31.71750915774951 L42.21405921215906 31.71750915774951 z"/>
<path fill="#000000" stroke="#000000" d="M41.64262119125348 32.51387085479623 L41.64262119125348 32.51387085479623 L42.21405877564002 31.717509121447854 L42.21405877564002 31.717509121447854 z"/>
<path fill="#000000" stroke="#000000" d="M41.23752171326842 33.40642077759567 L41.23752171326842 33.40642077759567 L41.64262073679549 32.51387033440702 L41.64262073679549 32.51387033440702 z"/>
<path fill="#000000" stroke="#000000" d="M41.23752264707 33.40642061899918 L41.23752264707 33.40642061899918 L41.014338305834976 34.36083960383112 L41.014338305834976 34.36083960383112 z"/>
<path fill="#000000" stroke="#000000" d="M40.98163986530353 35.34046999550407 L40.98163986530353 35.34046999550407 L41.01433817064195 34.360839938939286 L41.01433817064195 34.360839938939286 z"/>
<path fill="#000000" stroke="#000000" d="M41.14068610947862 36.30765063976652 L41.14068610947862 36.30765063976652 L40.98164062482197 35.3404698972528 L40.98164062482197 35.3404698972528 z"/>
<path fill="#000000" stroke="#000000" d="M41.14068690817802 36.30765116141766 L41.14068690817802 36.30765116141766 L41.4853636327443 37.22521863538928 L41.4853636327443 37.22521863538928 z"/>
<path fill="#000000" stroke="#000000" d="M42.002426409281256 38.05791222966246 L42.002426409281256 38.05791222966246 L41.485363504141624 37.225217824097726 L41.485363504141624 37.225217824097726 z"/>
<path fill="#000000" stroke="#000000" d="M42.002426950629726 38.05791285238035 L42.002426950629726 38.05791285238035 L42.67200582402224 38.77373390620877 L42.67200582402224 38.77373390620877 z"/>
<path fill="#000000" stroke="#000000" d="M42.00243 38.05791 L42.67201 38.77373 L43.46837 39.34517 L44.36091 39.75027 L45.31534 39.97345 L46.29496 40.00615 L47.26214 39.84711 L48.17971 39.50243 L49.01241 38.98536 L49.72823 38.31579 L50.29967 37.51942 L50.70476 36.62688 L50.92795 35.67246 L50.96065 34.69283 L50.8016 33.72565 L50.45692 32.80808 L49.93986 31.97538 L49.27028 31.25956 L48.47392 30.68812 L47.58137 30.28303 L46.62695 30.05984 L45.64733 30.02714 L44.68014 30.18619 L43.76257 30.53087 L42.92988 31.04793 L42.21406 31.71751 L41.64262 32.51387 L41.23752 33.40642 L41.01434 34.36084 L40.98164 35.34047 L41.14069 36.30765 L41.48536 37.22522 z"/>
<path fill="#000000" stroke="#000000" d="M30.28303 47.58137 L30.05984 46.62695 L30.02714 45.64733 L30.18619 44.68014 L30.53087 43.76257 L31.04793 42.92988 L31.71751 42.21406 L32.51387 41.64262 L33.40642 41.23752 L34.36084 41.01434 L35.34047 40.98164 L36.30765 41.14069 L37.22522 41.48536 L38.05791 42.00243 L38.77373 42.67201 L39.34517 43.46837 L39.75027 44.36091 L39.97345 45.31534 L40.00615 46.29496 L39.84711 47.26214 L39.50243 48.17971 L38.98536 49.01241 L38.31579 49.72823 L37.51942 50.29967 L36.62688 50.70476 L35.67246 50.92795 L34.69283 50.96065 L33.72565 50.8016 L32.80808 50.45692 L31.97538 49.93986 L31.25956 49.27028 L30.68812 48.47392 z"/>
<path fill="#000000" stroke="#000000" d="M31.259561436423187 49.27027896927971 L31.259561436423187 49.27027896927971 L30.688123852036654 48.473917235931324 L30.688123852036654 48.473917235931324 z"/>
<path fill="#000000" stroke="#000000" d="M30.28302705730344 47.5813713355923 L30.28302705730344 47.5813713355923 L30.688124372738287 48.47391801535922 L30.688124372738287 48.47391801535922 z"/>
<path fill="#000000" stroke="#000000" d="M32.80807882183371 50.45692313640865 L32.80807882183371 50.45692313640865 L33.72564958771311 50.80160109755319 L33.72564958771311 50.80160109755319 z"/>
<path fill="#000000" stroke="#000000" d="M31.97538192671082 49.93985794022747 L31.97538192671082 49.93985794022747 L31.2595608728824 49.27027906683495 L31.2595608728824 49.27027906683495 z"/>
<path fill="#000000" stroke="#000000" d="M31.97538117034474 49.93985811523993 L31.97538117034474 49.93985811523993 L32.80807831157386 50.45692271909468 L32.80807831157386 50.45692271909468 z"/>
<path fill="#000000" stroke="#000000" d="M34.69283059096482 50.96064640624949 L34.69283059096482 50.96064640624949 L33.7256498484511 50.801600921592836 L33.7256498484511 50.801600921592836 z"/>
<path fill="#000000" stroke="#000000" d="M35.672459935239864 50.92794805980844 L35.672459935239864 50.92794805980844 L34.69282987867508 50.96064636514687 L34.69282987867508 50.96064636514687 z"/>
<path fill="#000000" stroke="#000000" d="M35.67245939666605 50.92794741992036 L35.67245939666605 50.92794741992036 L36.626880598687734 50.7047625602107 L36.626880598687734 50.7047625602107 z"/>
<path fill="#000000" stroke="#000000" d="M37.519419373867024 50.299668620447775 L37.519419373867024 50.299668620447775 L36.62688098600789 50.70476217246088 L36.62688098600789 50.70476217246088 z"/>
<path fill="#000000" stroke="#000000" d="M37.51941956959876 50.29966940018808 L37.51941956959876 50.29966940018808 L38.31578790407421 49.728227079094665 L38.31578790407421 49.728227079094665 z"/>
<path fill="#000000" stroke="#000000" d="M38.98536127395474 49.01241119165701 L38.98536127395474 49.01241119165701 L38.3157870671515 49.72822725661409 L38.3157870671515 49.72822725661409 z"/>
<path fill="#000000" stroke="#000000" d="M38.98536232167719 49.012411441649114 L38.98536232167719 49.012411441649114 L39.502429708342184 48.17970981889462 L39.502429708342184 48.17970981889462 z"/>
<path fill="#000000" stroke="#000000" d="M39.847107153066666 47.26213893057275 L39.847107153066666 47.26213893057275 L39.502429191922126 48.17970969645215 L39.502429191922126 48.17970969645215 z"/>
<path fill="#000000" stroke="#000000" d="M39.750267516428345 44.36091058076621 L39.750267516428345 44.36091058076621 L39.973454074853116 45.31533904712351 L39.973454074853116 45.31533904712351 z"/>
<path fill="#000000" stroke="#000000" d="M40.00615130926386 46.2949599562991 L40.00615130926386 46.2949599562991 L39.97345333733616 45.31533988860566 L39.97345333733616 45.31533988860566 z"/>
<path fill="#000000" stroke="#000000" d="M40.00615148422338 46.294960244069195 L40.00615148422338 46.294960244069195 L39.84710626285984 47.262139385455846 L39.84710626285984 47.262139385455846 z"/>
<path fill="#000000" stroke="#000000" d="M38.05791222966246 42.002426409281256 L38.05791222966246 42.002426409281256 L37.225217824097726 41.485363504141624 L37.225217824097726 41.485363504141624 z"/>
<path fill="#000000" stroke="#000000" d="M39.34517206097125 43.468368521128795 L39.34517206097125 43.468368521128795 L38.773734476584714 42.67200678778041 L38.773734476584714 42.67200678778041 z"/>
<path fill="#000000" stroke="#000000" d="M38.77373390620877 42.67200582402224 L38.77373390620877 42.67200582402224 L38.05791285238035 42.002426950629726 L38.05791285238035 42.002426950629726 z"/>
<path fill="#000000" stroke="#000000" d="M39.34517225639057 43.4683689758992 L39.34517225639057 43.4683689758992 L39.750267516495896 44.36091112718008 L39.750267516495896 44.36091112718008 z"/>
<path fill="#000000" stroke="#000000" d="M36.30765116141766 41.14068690817802 L36.30765116141766 41.14068690817802 L37.22521863538928 41.4853636327443 L37.22521863538928 41.4853636327443 z"/>
<path fill="#000000" stroke="#000000" d="M36.30765063976652 41.14068610947862 L36.30765063976652 41.14068610947862 L35.3404698972528 40.98164062482197 L35.3404698972528 40.98164062482197 z"/>
<path fill="#000000" stroke="#000000" d="M34.360839938939286 41.01433817064195 L34.360839938939286 41.01433817064195 L35.34046999550407 40.98163986530353 L35.34046999550407 40.98163986530353 z"/>
<path fill="#000000" stroke="#000000" d="M34.36083960383112 41.014338305834976 L34.36083960383112 41.014338305834976 L33.40642061899918 41.23752264707 L33.40642061899918 41.23752264707 z"/>
<path fill="#000000" stroke="#000000" d="M32.51387033440702 41.64262073679549 L32.51387033440702 41.64262073679549 L33.40642077759567 41.23752171326842 L33.40642077759567 41.23752171326842 z"/>
<path fill="#000000" stroke="#000000" d="M31.71750912144785 42.21405877564002 L31.71750912144785 42.21405877564002 L32.51387085479623 41.64262119125348 L32.51387085479623 41.64262119125348 z"/>
<path fill="#000000" stroke="#000000" d="M31.71750915774951 42.21405921215906 L31.71750915774951 42.21405921215906 L31.047930284357 42.92988026598748 L31.047930284357 42.92988026598748 z"/>
<path fill="#000000" stroke="#000000" d="M30.53087049338913 43.762570306370755 L30.53087049338913 43.762570306370755 L31.047930615718517 42.929880382331376 L31.047930615718517 42.929880382331376 z"/>
<path fill="#000000" stroke="#000000" d="M30.18619172711324 44.680140648775975 L30.18619172711324 44.680140648775975 L30.530869688257784 43.76256988289658 L30.530869688257784 43.76256988289658 z"/>
<path fill="#000000" stroke="#000000" d="M30.186191187452515 44.68014019526749 L30.186191187452515 44.68014019526749 L30.027144101668796 45.647330674488096 L30.027144101668796 45.647330674488096 z"/>
<path fill="#000000" stroke="#000000" d="M30.059843114758944 46.626949896034894 L30.059843114758944 46.626949896034894 L30.027145142831237 45.647329828341455 L30.027145142831237 45.647329828341455 z"/>
<path fill="#000000" stroke="#000000" d="M30.05984274357799 46.62694935843308 L30.05984274357799 46.62694935843308 L30.28302760328764 47.581370560454765 L30.28302760328764 47.581370560454765 z"/>
<path fill="#000000" stroke="#000000" d="M30.05984 46.62695 L30.28303 47.58137 L30.68812 48.47392 L31.25956 49.27028 L31.97538 49.93986 L32.80808 50.45692 L33.72565 50.8016 L34.69283 50.96065 L35.67246 50.92795 L36.62688 50.70476 L37.51942 50.29967 L38.31579 49.72823 L38.98536 49.01241 L39.50243 48.17971 L39.84711 47.26214 L40.00615 46.29496 L39.97345 45.31534 L39.75027 44.36091 L39.34517 43.46837 L38.77373 42.67201 L38.05791 42.00243 L37.22522 41.48536 L36.30765 41.14069 L35.34047 40.98164 L34.36084 41.01434 L33.40642 41.23752 L32.51387 41.64262 L31.71751 42.21406 L31.04793 42.92988 L30.53087 43.76257 L30.18619 44.68014 L30.02714 45.64733 z"/>
<path fill="#000000" stroke="#000000" d="M15.09607 49.02455 L15.3806 48.08658 L15.84265 47.22215 L16.46447 46.46447 L17.22215 45.84265 L18.08658 45.3806 L19.02455 45.09607 L20 45 L20.97545 45.09607 L21.91342 45.3806 L22.77785 45.84265 L23.53553 46.46447 L24.15735 47.22215 L24.6194 48.08658 L24.90393 49.02455 L25 50 L24.90393 50.97545 L24.6194 51.91342 L24.15735 52.77785 L23.53553 53.53553 L22.77785 54.15735 L21.91342 54.6194 L20.97545 54.90393 L20 55 L19.02455 54.90393 L18.08658 54.6194 L17.22215 54.15735 L16.46447 53.53553 L15.84265 52.77785 L15.3806 51.91342 L15.09607 50.97545 L15 50 z"/>
<path fill="#000000" stroke="#000000" d="M15.096073406361159 50.975449664502705 L15.096073406361159 50.975449664502705 L15.000000000000012 49.99999999999999 L15.000000000000012 49.99999999999999 z"/>
<path fill="#000000" stroke="#000000" d="M15.096073406361162 49.02455033549729 L15.096073406361162 49.02455033549729 L15.000000000000014 50 L15.000000000000014 50 z"/>
<path fill="#000000" stroke="#000000" d="M15.842650586978202 52.77784951827944 L15.842650586978202 52.77784951827944 L16.464465750588126 53.53553348740219 L16.464465750588126 53.53553348740219 z"/>
<path fill="#000000" stroke="#000000" d="M15.380602928881087 51.913419111533635 L15.380602928881087 51.913419111533635 L15.096072847542612 50.97544913620739 L15.096072847542612 50.97544913620739 z"/>
<path fill="#000000" stroke="#000000" d="M15.380602997956768 51.91341839755872 L15.380602997956768 51.91341839755872 L15.842651023354758 52.77784945300548 L15.842651023354758 52.77784945300548 z"/>
<path fill="#000000" stroke="#000000" d="M17.222150481720558 54.1573494130218 L17.222150481720558 54.1573494130218 L16.4644665125978 53.535534249411874 L16.4644665125978 53.535534249411874 z"/>
<path fill="#000000" stroke="#000000" d="M18.08658160244127 54.619397002043236 L18.08658160244127 54.619397002043236 L17.222150546994506 54.157348976645245 L17.222150546994506 54.157348976645245 z"/>
<path fill="#000000" stroke="#000000" d="M18.086580888466358 54.619397071118925 L18.086580888466358 54.619397071118925 L19.0245508637926 54.903927152457406 L19.0245508637926 54.903927152457406 z"/>
<path fill="#000000" stroke="#000000" d="M19.999999999999996 55.00000000000001 L19.999999999999996 55.00000000000001 L19.02455033549729 54.903926593638865 L19.02455033549729 54.903926593638865 z"/>
<path fill="#000000" stroke="#000000" d="M20 55.000000000000014 L20 55.000000000000014 L20.975449664502708 54.903926593638865 L20.975449664502708 54.903926593638865 z"/>
<path fill="#000000" stroke="#000000" d="M21.913419111533642 54.61939707111893 L21.913419111533642 54.61939707111893 L20.975449136207395 54.90392715245741 L20.975449136207395 54.90392715245741 z"/>
<path fill="#000000" stroke="#000000" d="M21.913418397558733 54.61939700204325 L21.913418397558733 54.61939700204325 L22.777849453005494 54.15734897664526 L22.777849453005494 54.15734897664526 z"/>
<path fill="#000000" stroke="#000000" d="M23.53553348740221 53.53553424941189 L23.53553348740221 53.53553424941189 L22.77784951827945 54.15734941302181 L22.77784951827945 54.15734941302181 z"/>
<path fill="#000000" stroke="#000000" d="M24.903927152457413 50.9754491362074 L24.903927152457413 50.9754491362074 L24.619397071118936 51.91341911153364 L24.619397071118936 51.91341911153364 z"/>
<path fill="#000000" stroke="#000000" d="M24.15734897664526 52.777849453005494 L24.15734897664526 52.777849453005494 L24.61939700204325 51.913418397558736 L24.61939700204325 51.913418397558736 z"/>
<path fill="#000000" stroke="#000000" d="M24.157349413021812 52.77784951827945 L24.157349413021812 52.77784951827945 L23.53553424941189 53.535533487402205 L23.53553424941189 53.535533487402205 z"/>
<path fill="#000000" stroke="#000000" d="M24.61939700204324 48.086581602441264 L24.61939700204324 48.086581602441264 L24.15734897664525 47.222150546994506 L24.15734897664525 47.222150546994506 z"/>
<path fill="#000000" stroke="#000000" d="M25.00000000000001 49.99999999999999 L25.00000000000001 49.99999999999999 L24.903926593638865 49.02455033549728 L24.903926593638865 49.02455033549728 z"/>
<path fill="#000000" stroke="#000000" d="M24.903927152457403 49.0245508637926 L24.903927152457403 49.0245508637926 L24.61939707111893 48.08658088846635 L24.61939707111893 48.08658088846635 z"/>
<path fill="#000000" stroke="#000000" d="M25.000000000000014 50 L25.000000000000014 50 L24.903926593638868 50.97544966450271 L24.903926593638868 50.97544966450271 z"/>
<path fill="#000000" stroke="#000000" d="M23.535534249411874 46.464466512597795 L23.535534249411874 46.464466512597795 L24.157349413021798 47.222150481720554 L24.157349413021798 47.222150481720554 z"/>
<path fill="#000000" stroke="#000000" d="M23.535533487402194 46.464465750588126 L23.535533487402194 46.464465750588126 L22.77784951827944 45.8426505869782 L22.77784951827944 45.8426505869782 z"/>
<path fill="#000000" stroke="#000000" d="M21.91341839755872 45.380602997956764 L21.91341839755872 45.380602997956764 L22.777849453005484 45.842651023354755 L22.777849453005484 45.842651023354755 z"/>
<path fill="#000000" stroke="#000000" d="M21.91341911153363 45.38060292888108 L21.91341911153363 45.38060292888108 L20.975449136207388 45.09607284754261 L20.975449136207388 45.09607284754261 z"/>
<path fill="#000000" stroke="#000000" d="M19.999999999999996 45.00000000000001 L19.999999999999996 45.00000000000001 L20.975449664502705 45.09607340636116 L20.975449664502705 45.09607340636116 z"/>
<path fill="#000000" stroke="#000000" d="M19.024550335497292 45.09607340636116 L19.024550335497292 45.09607340636116 L20 45.000000000000014 L20 45.000000000000014 z"/>
<path fill="#000000" stroke="#000000" d="M19.02455086379261 45.096072847542615 L19.02455086379261 45.096072847542615 L18.086580888466365 45.38060292888109 L18.086580888466365 45.38060292888109 z"/>
<path fill="#000000" stroke="#000000" d="M17.22215054699452 45.84265102335477 L17.22215054699452 45.84265102335477 L18.08658160244128 45.38060299795678 L18.08658160244128 45.38060299795678 z"/>
<path fill="#000000" stroke="#000000" d="M16.464466512597813 46.46446575058814 L16.464466512597813 46.46446575058814 L17.222150481720572 45.84265058697821 L17.222150481720572 45.84265058697821 z"/>
<path fill="#000000" stroke="#000000" d="M16.46446575058814 46.46446651259781 L16.46446575058814 46.46446651259781 L15.842650586978216 47.22215048172057 L15.842650586978216 47.22215048172057 z"/>
<path fill="#000000" stroke="#000000" d="M15.38060299795678 48.08658160244128 L15.38060299795678 48.08658160244128 L15.84265102335477 47.22215054699452 L15.84265102335477 47.22215054699452 z"/>
<path fill="#000000" stroke="#000000" d="M15.380602928881096 48.086580888466365 L15.380602928881096 48.086580888466365 L15.09607284754262 49.024550863792605 L15.09607284754262 49.024550863792605 z"/>
<path fill="#000000" stroke="#000000" d="M15.3806 48.08658 L15.09607 49.02455 L15 50 L15.09607 50.97545 L15.3806 51.91342 L15.84265 52.77785 L16.46447 53.53553 L17.22215 54.15735 L18.08658 54.6194 L19.02455 54.90393 L20 55 L20.97545 54.90393 L21.91342 54.6194 L22.77785 54.15735 L23.53553 53.53553 L24.15735 52.77785 L24.6194 51.91342 L24.90393 50.97545 L25 50 L24.90393 49.02455 L24.6194 48.08658 L24.15735 47.22215 L23.53553 46.46447 L22.77785 45.84265 L21.91342 45.3806 L20.97545 45.09607 L20 45 L19.02455 45.09607 L18.08658 45.3806 L17.22215 45.84265 L16.46447 46.46447 L15.84265 47.22215 z"/>
</svg>