<?xml version="1.0" encoding="UTF-8"?>
<!-- Generated by jsxcad -->
<!DOCTYPE svg PUBLIC "-//W3C//DTD SVG 1.1 Tiny//EN" "http://www.w3.org/Graphics/SVG/1.1/DTD/svg11-tiny.dtd">
<svg baseProfile="tiny" height="61.92129270463739mm" width="70.00000000000006mm" viewBox="0 0 70.00000000000006 61.92129270463739" version="1.1" stroke="black" stroke-width=".1" fill="none" xmlns="http://www.w3.org/2000/svg">
<path fill="#000000" stroke="#000000" d="M64.02455 35.86457 L63.08658 35.58004 L62.22215 35.11799 L61.46447 34.49618 L60.84265 33.7385 L60.3806 32.87406 L60.09607 31.9361 L60 30.96065 L60.09607 29.98519 L60.3806 29.04723 L60.84265 28.1828 L61.46447 27.42511 L62.22215 26.8033 L63.08658 26.34125 L64.02455 26.05672 L65 25.96065 L65.97545 26.05672 L66.91342 26.34125 L67.77785 26.8033 L68.53553 27.42511 L69.15735 28.1828 L69.6194 29.04723 L69.90393 29.98519 L70 30.96065 L69.90393 31.9361 L69.6194 32.87406 L69.15735 33.7385 L68.53553 34.49618 L67.77785 35.11799 L66.91342 35.58004 L65.97545 35.86457 L65 35.96065 z"/>
<path fill="#000000" stroke="#000000" d="M65.97545028414065 35.864572884928535 L65.97545028414065 35.864572884928535 L64.99999964418633 35.96064638736328 L64.99999964418633 35.96064638736328 z"/>
<path fill="#000000" stroke="#000000" d="M64.02454971585934 35.86457288492853 L64.02454971585934 35.86457288492853 L65.00000035581365 35.960646387363276 L65.00000035581365 35.960646387363276 z"/>
<path fill="#000000" stroke="#000000" d="M67.77785263340978 35.11799320881911 L67.77785263340978 35.11799320881911 L68.53553169860614 34.49618206975757 L68.53553169860614 34.49618206975757 z"/>
<path fill="#000000" stroke="#000000" d="M66.91342087611322 35.58004288815825 L66.91342087611322 35.58004288815825 L65.97545090078697 35.86457296949673 L65.97545090078697 35.86457296949673 z"/>
<path fill="#000000" stroke="#000000" d="M66.91342103843871 35.58004194278218 L66.91342103843871 35.58004194278218 L67.77785209388547 35.11799391738419 L67.77785209388547 35.11799391738419 z"/>
<path fill="#000000" stroke="#000000" d="M69.15734762422574 33.73849805025246 L69.15734762422574 33.73849805025246 L68.53553246061581 34.49618201937522 L68.53553246061581 34.49618201937522 z"/>
<path fill="#000000" stroke="#000000" d="M69.61939964292323 32.874059809138494 L69.61939964292323 32.874059809138494 L69.15734746017718 33.738498642436426 L69.15734746017718 33.738498642436426 z"/>
<path fill="#000000" stroke="#000000" d="M69.61939883569853 32.87405964681301 L69.61939883569853 32.87405964681301 L69.90392613918584 31.936098828834826 L69.90392613918584 31.936098828834826 z"/>
<path fill="#000000" stroke="#000000" d="M69.99999964418636 30.960649964955415 L69.99999964418636 30.960649964955415 L69.90392623782522 31.936099629458123 L69.90392623782522 31.936099629458123 z"/>
<path fill="#000000" stroke="#000000" d="M70.00000035581368 30.960649964955408 L70.00000035581368 30.960649964955408 L69.90392597400093 29.985190396526296 L69.90392597400093 29.985190396526296 z"/>
<path fill="#000000" stroke="#000000" d="M69.61939808439051 29.04723058109378 L69.61939808439051 29.04723058109378 L69.90392538787783 29.98519139907196 L69.90392538787783 29.98519139907196 z"/>
<path fill="#000000" stroke="#000000" d="M69.61939851851133 29.047230791872185 L69.61939851851133 29.047230791872185 L69.15735049311334 28.18279973642542 L69.15735049311334 28.18279973642542 z"/>
<path fill="#000000" stroke="#000000" d="M68.53553113428154 27.42510906911918 L68.53553113428154 27.42510906911918 L69.15735120181787 28.182799013693547 L69.15735120181787 28.182799013693547 z"/>
<path fill="#000000" stroke="#000000" d="M65.97545014947896 26.056719507233858 L65.97545014947896 26.056719507233858 L66.91342012480521 26.341249588572335 L66.91342012480521 26.341249588572335 z"/>
<path fill="#000000" stroke="#000000" d="M67.77785096947356 26.80329818624251 L67.77785096947356 26.80329818624251 L66.9134199140268 26.34125016084452 L66.9134199140268 26.34125016084452 z"/>
<path fill="#000000" stroke="#000000" d="M67.77785130707551 26.803298407323872 L67.77785130707551 26.803298407323872 L68.53553037227186 27.425109546385404 L68.53553037227186 27.425109546385404 z"/>
<path fill="#000000" stroke="#000000" d="M63.086580085973196 26.341250160844545 L63.086580085973196 26.341250160844545 L62.22214903052643 26.803298186242536 L62.22214903052643 26.803298186242536 z"/>
<path fill="#000000" stroke="#000000" d="M64.99999964418633 25.960646387363283 L64.99999964418633 25.960646387363283 L64.02454997968363 26.056719793724426 L64.02454997968363 26.056719793724426 z"/>
<path fill="#000000" stroke="#000000" d="M64.02454985052103 26.056719507233872 L64.02454985052103 26.056719507233872 L63.08657987519478 26.341249588572353 L63.08657987519478 26.341249588572353 z"/>
<path fill="#000000" stroke="#000000" d="M65.00000035581365 25.960646387363276 L65.00000035581365 25.960646387363276 L65.97545002031636 26.056719793724422 L65.97545002031636 26.056719793724422 z"/>
<path fill="#000000" stroke="#000000" d="M61.46446962772814 27.425109546385436 L61.46446962772814 27.425109546385436 L62.2221486929245 26.8032984073239 L62.2221486929245 26.8032984073239 z"/>
<path fill="#000000" stroke="#000000" d="M61.46446886571847 27.425109069119213 L61.46446886571847 27.425109069119213 L60.84264879818215 28.18279901369358 L60.84264879818215 28.18279901369358 z"/>
<path fill="#000000" stroke="#000000" d="M60.3806014814887 29.047230791872206 L60.3806014814887 29.047230791872206 L60.842649506886694 28.182799736425448 L60.842649506886694 28.182799736425448 z"/>
<path fill="#000000" stroke="#000000" d="M60.380601915609525 29.047230581093796 L60.380601915609525 29.047230581093796 L60.096074612122216 29.985191399071976 L60.096074612122216 29.985191399071976 z"/>
<path fill="#000000" stroke="#000000" d="M59.99999964418637 30.960649964955415 L59.99999964418637 30.960649964955415 L60.09607402599912 29.985190396526303 L60.09607402599912 29.985190396526303 z"/>
<path fill="#000000" stroke="#000000" d="M60.09607376217483 31.93609962945812 L60.09607376217483 31.93609962945812 L60.00000035581368 30.960649964955408 L60.00000035581368 30.960649964955408 z"/>
<path fill="#000000" stroke="#000000" d="M60.0960738608142 31.93609882883481 L60.0960738608142 31.93609882883481 L60.38060116430152 32.874059646812995 L60.38060116430152 32.874059646812995 z"/>
<path fill="#000000" stroke="#000000" d="M60.84265253982285 33.7384986424364 L60.84265253982285 33.7384986424364 L60.3806003570768 32.874059809138465 L60.3806003570768 32.874059809138465 z"/>
<path fill="#000000" stroke="#000000" d="M61.46446753938421 34.49618201937519 L61.46446753938421 34.49618201937519 L60.84265237577428 33.73849805025243 L60.84265237577428 33.73849805025243 z"/>
<path fill="#000000" stroke="#000000" d="M61.46446830139388 34.496182069757545 L61.46446830139388 34.496182069757545 L62.22214736659023 35.11799320881908 L62.22214736659023 35.11799320881908 z"/>
<path fill="#000000" stroke="#000000" d="M63.086578961561294 35.58004194278215 L63.086578961561294 35.58004194278215 L62.222147906114536 35.11799391738416 L62.222147906114536 35.11799391738416 z"/>
<path fill="#000000" stroke="#000000" d="M63.08657912388677 35.58004288815824 L63.08657912388677 35.58004288815824 L64.02454909921302 35.86457296949671 L64.02454909921302 35.86457296949671 z"/>
<path fill="#000000" stroke="#000000" d="M63.08658 35.58004 L64.02455 35.86457 L65 35.96065 L65.97545 35.86457 L66.91342 35.58004 L67.77785 35.11799 L68.53553 34.49618 L69.15735 33.7385 L69.6194 32.87406 L69.90393 31.9361 L70 30.96065 L69.90393 29.98519 L69.6194 29.04723 L69.15735 28.1828 L68.53553 27.42511 L67.77785 26.8033 L66.91342 26.34125 L65.97545 26.05672 L65 25.96065 L64.02455 26.05672 L63.08658 26.34125 L62.22215 26.8033 L61.46447 27.42511 L60.84265 28.1828 L60.3806 29.04723 L60.09607 29.98519 L60 30.96065 L60.09607 31.9361 L60.3806 32.87406 L60.84265 33.7385 L61.46447 34.49618 L62.22215 35.11799 z"/>
<path fill="#000000" stroke="#000000" d="M45.28303 58.54202 L45.05984 57.5876 L45.02714 56.60797 L45.18619 55.64079 L45.53087 54.72322 L46.04793 53.89053 L46.71751 53.1747 L47.51387 52.60327 L48.40642 52.19817 L49.36084 51.97498 L50.34047 51.94229 L51.30765 52.10133 L52.22522 52.44601 L53.05791 52.96307 L53.77373 53.63265 L54.34517 54.42901 L54.75027 55.32156 L54.97345 56.27598 L55.00615 57.25561 L54.84711 58.22279 L54.50243 59.14036 L53.98536 59.97305 L53.31579 60.68887 L52.51942 61.26031 L51.62688 61.66541 L50.67246 61.88859 L49.69283 61.92129 L48.72565 61.76225 L47.80808 61.41757 L46.97538 60.90051 L46.25956 60.23093 L45.68812 59.43456 z"/>
<path fill="#000000" stroke="#000000" d="M46.25956316422292 60.23092772947917 L46.25956316422292 60.23092772947917 L45.6881208431295 59.43455939500372 L45.6881208431295 59.43455939500372 z"/>
<path fill="#000000" stroke="#000000" d="M45.28302843007977 58.542020712534686 L45.28302843007977 58.542020712534686 L45.68812198209287 59.43455910039382 L45.68812198209287 59.43455910039382 z"/>
<path fill="#000000" stroke="#000000" d="M47.808080022616764 61.41756993979166 L47.808080022616764 61.41756993979166 L48.72565078849616 61.76224790093621 L48.72565078849616 61.76224790093621 z"/>
<path fill="#000000" stroke="#000000" d="M46.975383746492106 60.90050599476919 L46.975383746492106 60.90050599476919 L46.259562692663685 60.23092712137668 L46.259562692663685 60.23092712137668 z"/>
<path fill="#000000" stroke="#000000" d="M46.975382805062374 60.9005054826391 L46.975382805062374 60.9005054826391 L47.8080799462915 61.417570086493846 L47.8080799462915 61.417570086493846 z"/>
<path fill="#000000" stroke="#000000" d="M49.69282957387788 61.92129259131599 L49.69282957387788 61.92129259131599 L48.72565043249123 61.76224736995245 L48.72565043249123 61.76224736995245 z"/>
<path fill="#000000" stroke="#000000" d="M50.67246014703298 61.88859440505785 L50.67246014703298 61.88859440505785 L49.69283009046819 61.92129271039628 L49.69283009046819 61.92129271039628 z"/>
<path fill="#000000" stroke="#000000" d="M50.67246080509564 61.888593442887434 L50.67246080509564 61.888593442887434 L51.62687978992757 61.665409101652415 L51.62687978992757 61.665409101652415 z"/>
<path fill="#000000" stroke="#000000" d="M52.51942176451245 61.26031388773185 L52.51942176451245 61.26031388773185 L51.62687961323157 61.665409147837174 L51.62687961323157 61.665409147837174 z"/>
<path fill="#000000" stroke="#000000" d="M52.51942257850593 61.26031359343437 L52.51942257850593 61.26031359343437 L53.31579091298138 60.68887127234095 L53.31579091298138 60.68887127234095 z"/>
<path fill="#000000" stroke="#000000" d="M53.98536444304481 59.97305415602324 L53.98536444304481 59.97305415602324 L53.31579023624157 60.68887022098032 L53.31579023624157 60.68887022098032 z"/>
<path fill="#000000" stroke="#000000" d="M53.985365168484925 59.97305320937887 L53.985365168484925 59.97305320937887 L54.50242807362456 59.14035880381413 L54.50242807362456 59.14035880381413 z"/>
<path fill="#000000" stroke="#000000" d="M54.84710595228363 58.22278847950842 L54.84710595228363 58.22278847950842 L54.502427991139086 59.14035924538781 L54.502427991139086 59.14035924538781 z"/>
<path fill="#000000" stroke="#000000" d="M54.75026832518852 55.32156039164318 L54.75026832518852 55.32156039164318 L54.97345266642355 56.275979376475114 L54.97345266642355 56.275979376475114 z"/>
<path fill="#000000" stroke="#000000" d="M55.00615143088148 57.25560995223972 L55.00615143088148 57.25560995223972 L54.97345312554305 56.275979895674936 L54.97345312554305 56.275979895674936 z"/>
<path fill="#000000" stroke="#000000" d="M55.006150900183265 57.25561014802825 L55.006150900183265 57.25561014802825 L54.84710567881972 58.22278928941491 L54.84710567881972 58.22278928941491 z"/>
<path fill="#000000" stroke="#000000" d="M53.05790938285474 52.963070993870176 L53.05790938285474 52.963070993870176 L52.22521945881537 52.44601087154079 L52.22521945881537 52.44601087154079 z"/>
<path fill="#000000" stroke="#000000" d="M54.345169052064094 54.42901068020119 L54.345169052064094 54.42901068020119 L53.773731467677564 53.632648946852804 L53.773731467677564 53.632648946852804 z"/>
<path fill="#000000" stroke="#000000" d="M53.77373073711871 53.63264921197469 L53.77373073711871 53.63264921197469 L53.0579096832903 52.96307033858218 L53.0579096832903 52.96307033858218 z"/>
<path fill="#000000" stroke="#000000" d="M54.34516986574516 54.42901006093381 L54.34516986574516 54.42901006093381 L54.75026888927223 55.321560504122466 L54.75026888927223 55.321560504122466 z"/>
<path fill="#000000" stroke="#000000" d="M51.30764907029294 52.101332474982776 L51.30764907029294 52.101332474982776 L52.22521983617233 52.446010436127324 L52.22521983617233 52.446010436127324 z"/>
<path fill="#000000" stroke="#000000" d="M51.307649622679584 52.101332294545124 L51.307649622679584 52.101332294545124 L50.34047048129293 51.94228707318158 L50.34047048129293 51.94228707318158 z"/>
<path fill="#000000" stroke="#000000" d="M49.36084015073241 51.97498451589136 L49.36084015073241 51.97498451589136 L50.34046987388646 51.942286221681584 L50.34046987388646 51.942286221681584 z"/>
<path fill="#000000" stroke="#000000" d="M49.36084101226071 51.97498432880205 L49.36084101226071 51.97498432880205 L48.406419810239015 52.198169188511706 L48.406419810239015 52.198169188511706 z"/>
<path fill="#000000" stroke="#000000" d="M47.5138689616307 52.603267712171785 L47.5138689616307 52.603267712171785 L48.40641940481935 52.198168688644714 L48.40641940481935 52.198168688644714 z"/>
<path fill="#000000" stroke="#000000" d="M46.71751213035502 53.1747029688863 L46.71751213035502 53.1747029688863 L47.51386912699652 52.603268783372705 L47.51386912699652 52.603268783372705 z"/>
<path fill="#000000" stroke="#000000" d="M46.71751232683958 53.17470217652529 L46.71751232683958 53.17470217652529 L46.047928464575726 53.89052856376443 L46.047928464575726 53.89052856376443 z"/>
<path fill="#000000" stroke="#000000" d="M45.530868858671504 54.72321929129026 L45.530868858671504 54.72321929129026 L46.04792898100089 53.89052936725089 L46.04792898100089 53.89052936725089 z"/>
<path fill="#000000" stroke="#000000" d="M45.1861905263302 55.64079019771164 L45.1861905263302 55.64079019771164 L45.53086848747475 54.72321943183224 L45.53086848747475 54.72321943183224 z"/>
<path fill="#000000" stroke="#000000" d="M45.1861906034124 55.64079009922656 L45.1861906034124 55.64079009922656 L45.02714511875575 56.607970841740276 L45.02714511875575 56.607970841740276 z"/>
<path fill="#000000" stroke="#000000" d="M45.059843236376565 57.587599891975515 L45.059843236376565 57.587599891975515 L45.02714493103814 56.607969835410735 L45.02714493103814 56.607969835410735 z"/>
<path fill="#000000" stroke="#000000" d="M45.059843552338165 57.58759916931005 L45.059843552338165 57.58759916931005 L45.28302841204782 58.54202037133174 L45.28302841204782 58.54202037133174 z"/>
<path fill="#000000" stroke="#000000" d="M45.05984 57.5876 L45.28303 58.54202 L45.68812 59.43456 L46.25956 60.23093 L46.97538 60.90051 L47.80808 61.41757 L48.72565 61.76225 L49.69283 61.92129 L50.67246 61.88859 L51.62688 61.66541 L52.51942 61.26031 L53.31579 60.68887 L53.98536 59.97305 L54.50243 59.14036 L54.84711 58.22279 L55.00615 57.25561 L54.97345 56.27598 L54.75027 55.32156 L54.34517 54.42901 L53.77373 53.63265 L53.05791 52.96307 L52.22522 52.44601 L51.30765 52.10133 L50.34047 51.94229 L49.36084 51.97498 L48.40642 52.19817 L47.51387 52.60327 L46.71751 53.1747 L46.04793 53.89053 L45.53087 54.72322 L45.18619 55.64079 L45.02714 56.60797 z"/>
<path fill="#000000" stroke="#000000" d="M16.22627 53.63265 L16.94209 52.96307 L17.77478 52.44601 L18.69235 52.10133 L19.65953 51.94229 L20.63916 51.97498 L21.59358 52.19817 L22.48613 52.60327 L23.28249 53.1747 L23.95207 53.89053 L24.46913 54.72322 L24.81381 55.64079 L24.97286 56.60797 L24.94016 57.5876 L24.71697 58.54202 L24.31188 59.43456 L23.74044 60.23093 L23.02462 60.90051 L22.19192 61.41757 L21.27435 61.76225 L20.30717 61.92129 L19.32754 61.88859 L18.37312 61.66541 L17.48058 61.26031 L16.68421 60.68887 L16.01464 59.97305 L15.49757 59.14036 L15.15289 58.22279 L14.99385 57.25561 L15.02655 56.27598 L15.24973 55.32156 L15.65483 54.42901 z"/>
<path fill="#000000" stroke="#000000" d="M15.249731110727813 55.32156050412249 L15.249731110727813 55.32156050412249 L15.654830134254883 54.429010060933834 L15.654830134254883 54.429010060933834 z"/>
<path fill="#000000" stroke="#000000" d="M16.22626853232247 53.63264894685283 L16.22626853232247 53.63264894685283 L15.654830947935938 54.429010680201216 L15.654830947935938 54.429010680201216 z"/>
<path fill="#000000" stroke="#000000" d="M14.993849099816787 57.255610148028246 L14.993849099816787 57.255610148028246 L15.152894321180325 58.222789289414905 L15.152894321180325 58.222789289414905 z"/>
<path fill="#000000" stroke="#000000" d="M15.026547333576506 56.27597937647513 L15.026547333576506 56.27597937647513 L15.249731674811525 55.321560391643196 L15.249731674811525 55.321560391643196 z"/>
<path fill="#000000" stroke="#000000" d="M15.026546874456997 56.275979895674936 L15.026546874456997 56.275979895674936 L14.993848569118569 57.25560995223972 L14.993848569118569 57.25560995223972 z"/>
<path fill="#000000" stroke="#000000" d="M15.497572008860956 59.14035924538779 L15.497572008860956 59.14035924538779 L15.152894047716416 58.2227884795084 L15.152894047716416 58.2227884795084 z"/>
<path fill="#000000" stroke="#000000" d="M16.01463483151511 59.97305320937885 L16.01463483151511 59.97305320937885 L15.497571926375475 59.1403588038141 L15.497571926375475 59.1403588038141 z"/>
<path fill="#000000" stroke="#000000" d="M16.01463555695522 59.97305415602321 L16.01463555695522 59.97305415602321 L16.684209763758457 60.68887022098029 L16.684209763758457 60.68887022098029 z"/>
<path fill="#000000" stroke="#000000" d="M17.480577421494083 61.26031359343434 L17.480577421494083 61.26031359343434 L16.684209087018633 60.68887127234092 L16.684209087018633 60.68887127234092 z"/>
<path fill="#000000" stroke="#000000" d="M17.48057823548755 61.260313887731826 L17.48057823548755 61.260313887731826 L18.37312038676843 61.66540914783715 L18.37312038676843 61.66540914783715 z"/>
<path fill="#000000" stroke="#000000" d="M19.32753919490436 61.88859344288742 L19.32753919490436 61.88859344288742 L18.37312021007243 61.6654091016524 L18.37312021007243 61.6654091016524 z"/>
<path fill="#000000" stroke="#000000" d="M19.327539852967018 61.88859440505785 L19.327539852967018 61.88859440505785 L20.3071699095318 61.92129271039627 L20.3071699095318 61.92129271039627 z"/>
<path fill="#000000" stroke="#000000" d="M21.27434956750877 61.76224736995246 L21.27434956750877 61.76224736995246 L20.30717042612212 61.921292591315996 L20.30717042612212 61.921292591315996 z"/>
<path fill="#000000" stroke="#000000" d="M23.740437307336336 60.23092712137671 L23.740437307336336 60.23092712137671 L23.024616253507915 60.90050599476922 L23.024616253507915 60.90050599476922 z"/>
<path fill="#000000" stroke="#000000" d="M22.19192005370851 61.417570086493875 L22.19192005370851 61.417570086493875 L23.024617194937637 60.900505482639126 L23.024617194937637 60.900505482639126 z"/>
<path fill="#000000" stroke="#000000" d="M22.191919977383236 61.41756993979168 L22.191919977383236 61.41756993979168 L21.27434921150384 61.762247900936224 L21.27434921150384 61.762247900936224 z"/>
<path fill="#000000" stroke="#000000" d="M24.94015676362349 57.58759989197552 L24.94015676362349 57.58759989197552 L24.972855068961916 56.607969835410735 L24.972855068961916 56.607969835410735 z"/>
<path fill="#000000" stroke="#000000" d="M24.31187801790717 59.43455910039384 L24.31187801790717 59.43455910039384 L24.716971569920272 58.54202071253471 L24.716971569920272 58.54202071253471 z"/>
<path fill="#000000" stroke="#000000" d="M24.716971587952234 58.54202037133175 L24.716971587952234 58.54202037133175 L24.940156447661884 57.58759916931007 L24.940156447661884 57.58759916931007 z"/>
<path fill="#000000" stroke="#000000" d="M24.311879156870535 59.434559395003745 L24.311879156870535 59.434559395003745 L23.740436835777114 60.2309277294792 L23.740436835777114 60.2309277294792 z"/>
<path fill="#000000" stroke="#000000" d="M24.81380939658765 55.64079009922655 L24.81380939658765 55.64079009922655 L24.972854881244302 56.60797084174027 L24.972854881244302 56.60797084174027 z"/>
<path fill="#000000" stroke="#000000" d="M24.813809473669842 55.640790197711624 L24.813809473669842 55.640790197711624 L24.469131512525298 54.72321943183222 L24.469131512525298 54.72321943183222 z"/>
<path fill="#000000" stroke="#000000" d="M23.952071018999145 53.89052936725086 L23.952071018999145 53.89052936725086 L24.469131141328536 54.72321929129024 L24.469131141328536 54.72321929129024 z"/>
<path fill="#000000" stroke="#000000" d="M23.952071535424302 53.8905285637644 L23.952071535424302 53.8905285637644 L23.282487673160443 53.17470217652526 L23.282487673160443 53.17470217652526 z"/>
<path fill="#000000" stroke="#000000" d="M22.486130873003496 52.60326878337268 L22.486130873003496 52.60326878337268 L23.282487869644996 53.17470296888627 L23.282487869644996 53.17470296888627 z"/>
<path fill="#000000" stroke="#000000" d="M21.593580595180647 52.19816868864469 L21.593580595180647 52.19816868864469 L22.486131038369304 52.603267712171764 L22.486131038369304 52.603267712171764 z"/>
<path fill="#000000" stroke="#000000" d="M21.593580189760978 52.19816918851169 L21.593580189760978 52.19816918851169 L20.639158987739297 51.97498432880204 L20.639158987739297 51.97498432880204 z"/>
<path fill="#000000" stroke="#000000" d="M19.659530126113534 51.942286221681584 L19.659530126113534 51.942286221681584 L20.639159849267593 51.97498451589136 L20.639159849267593 51.97498451589136 z"/>
<path fill="#000000" stroke="#000000" d="M18.69235037732042 52.10133229454513 L18.69235037732042 52.10133229454513 L19.65952951870707 51.942287073181596 L19.65952951870707 51.942287073181596 z"/>
<path fill="#000000" stroke="#000000" d="M18.692350929707068 52.1013324749828 L18.692350929707068 52.1013324749828 L17.77478016382767 52.44601043612734 L17.77478016382767 52.44601043612734 z"/>
<path fill="#000000" stroke="#000000" d="M16.942090617145272 52.963070993870204 L16.942090617145272 52.963070993870204 L17.774780541184644 52.446010871540814 L17.774780541184644 52.446010871540814 z"/>
<path fill="#000000" stroke="#000000" d="M16.942090316709727 52.963070338582206 L16.942090316709727 52.963070338582206 L16.226269262881306 53.632649211974716 L16.226269262881306 53.632649211974716 z"/>
<path fill="#000000" stroke="#000000" d="M16.94209 52.96307 L16.22627 53.63265 L15.65483 54.42901 L15.24973 55.32156 L15.02655 56.27598 L14.99385 57.25561 L15.15289 58.22279 L15.49757 59.14036 L16.01464 59.97305 L16.68421 60.68887 L17.48058 61.26031 L18.37312 61.66541 L19.32754 61.88859 L20.30717 61.92129 L21.27435 61.76225 L22.19192 61.41757 L23.02462 60.90051 L23.74044 60.23093 L24.31188 59.43456 L24.71697 58.54202 L24.94016 57.5876 L24.97286 56.60797 L24.81381 55.64079 L24.46913 54.72322 L23.95207 53.89053 L23.28249 53.1747 L22.48613 52.60327 L21.59358 52.19817 L20.63916 51.97498 L19.65953 51.94229 L18.69235 52.10133 L17.77478 52.44601 z"/>
<path fill="#000000" stroke="#000000" d="M5.97545 26.05672 L6.91342 26.34125 L7.77785 26.8033 L8.53553 27.42511 L9.15735 28.1828 L9.6194 29.04723 L9.90393 29.98519 L10 30.96065 L9.90393 31.9361 L9.6194 32.87406 L9.15735 33.7385 L8.53553 34.49618 L7.77785 35.11799 L6.91342 35.58004 L5.97545 35.86457 L5 35.96065 L4.02455 35.86457 L3.08658 35.58004 L2.22215 35.11799 L1.46447 34.49618 L0.84265 33.7385 L0.3806 32.87406 L0.09607 31.9361 L0 30.96065 L0.09607 29.98519 L0.3806 29.04723 L0.84265 28.1828 L1.46447 27.42511 L2.22215 26.8033 L3.08658 26.34125 L4.02455 26.05672 L5 25.96065 z"/>
<path fill="#000000" stroke="#000000" d="M4.024549979683629 26.05671979372443 L4.024549979683629 26.05671979372443 L4.99999964418634 25.960646387363283 L4.99999964418634 25.960646387363283 z"/>
<path fill="#000000" stroke="#000000" d="M5.97545002031637 26.056719793724422 L5.97545002031637 26.056719793724422 L5.00000035581366 25.960646387363276 L5.00000035581366 25.960646387363276 z"/>
<path fill="#000000" stroke="#000000" d="M2.2221486929245047 26.8032984073239 L2.2221486929245047 26.8032984073239 L1.4644696277281484 27.425109546385436 L1.4644696277281484 27.425109546385436 z"/>
<path fill="#000000" stroke="#000000" d="M3.086579875194788 26.341249588572353 L3.086579875194788 26.341249588572353 L4.02454985052103 26.056719507233876 L4.02454985052103 26.056719507233876 z"/>
<path fill="#000000" stroke="#000000" d="M3.086580085973201 26.34125016084454 L3.086580085973201 26.34125016084454 L2.2221490305264373 26.803298186242536 L2.2221490305264373 26.803298186242536 z"/>
<path fill="#000000" stroke="#000000" d="M0.8426487981821509 28.18279901369358 L0.8426487981821509 28.18279901369358 L1.4644688657184783 27.425109069119213 L1.4644688657184783 27.425109069119213 z"/>
<path fill="#000000" stroke="#000000" d="M0.380601481488705 29.04723079187221 L0.380601481488705 29.04723079187221 L0.8426495068866956 28.182799736425444 L0.8426495068866956 28.182799736425444 z"/>
<path fill="#000000" stroke="#000000" d="M0.3806019156095289 29.047230581093796 L0.3806019156095289 29.047230581093796 L0.09607461212221763 29.985191399071976 L0.09607461212221763 29.985191399071976 z"/>
<path fill="#000000" stroke="#000000" d="M-3.558136322710455e-7 30.960649964955415 L-3.558136322710455e-7 30.960649964955415 L0.09607402599912507 29.985190396526303 L0.09607402599912507 29.985190396526303 z"/>
<path fill="#000000" stroke="#000000" d="M3.558136885683492e-7 30.960649964955408 L3.558136885683492e-7 30.960649964955408 L0.09607376217483551 31.93609962945812 L0.09607376217483551 31.93609962945812 z"/>
<path fill="#000000" stroke="#000000" d="M0.38060116430151675 32.874059646812995 L0.38060116430151675 32.874059646812995 L0.09607386081420549 31.93609882883481 L0.09607386081420549 31.93609882883481 z"/>
<path fill="#000000" stroke="#000000" d="M0.38060035707680445 32.874059809138465 L0.38060035707680445 32.874059809138465 L0.8426525398228579 33.7384986424364 L0.8426525398228579 33.7384986424364 z"/>
<path fill="#000000" stroke="#000000" d="M1.4644675393842101 34.49618201937519 L1.4644675393842101 34.49618201937519 L0.8426523757742846 33.73849805025243 L0.8426523757742846 33.73849805025243 z"/>
<path fill="#000000" stroke="#000000" d="M4.024549099213019 35.86457296949671 L4.024549099213019 35.86457296949671 L3.086579123886775 35.58004288815824 L3.086579123886775 35.58004288815824 z"/>
<path fill="#000000" stroke="#000000" d="M2.222147906114537 35.11799391738417 L2.222147906114537 35.11799391738417 L3.086578961561299 35.58004194278216 L3.086578961561299 35.58004194278216 z"/>
<path fill="#000000" stroke="#000000" d="M2.2221473665902347 35.11799320881908 L2.2221473665902347 35.11799320881908 L1.4644683013938802 34.496182069757545 L1.4644683013938802 34.496182069757545 z"/>
<path fill="#000000" stroke="#000000" d="M6.913421038438713 35.58004194278218 L6.913421038438713 35.58004194278218 L7.777852093885475 35.11799391738419 L7.777852093885475 35.11799391738419 z"/>
<path fill="#000000" stroke="#000000" d="M4.99999964418634 35.96064638736328 L4.99999964418634 35.96064638736328 L5.975450284140661 35.864572884928535 L5.975450284140661 35.864572884928535 z"/>
<path fill="#000000" stroke="#000000" d="M5.975450900786986 35.86457296949673 L5.975450900786986 35.86457296949673 L6.913420876113229 35.58004288815825 L6.913420876113229 35.58004288815825 z"/>
<path fill="#000000" stroke="#000000" d="M5.00000035581366 35.960646387363276 L5.00000035581366 35.960646387363276 L4.024549715859339 35.86457288492853 L4.024549715859339 35.86457288492853 z"/>
<path fill="#000000" stroke="#000000" d="M8.53553169860614 34.49618206975757 L8.53553169860614 34.49618206975757 L7.777852633409787 35.11799320881911 L7.777852633409787 35.11799320881911 z"/>
<path fill="#000000" stroke="#000000" d="M8.535532460615823 34.49618201937522 L8.535532460615823 34.49618201937522 L9.157347624225748 33.73849805025246 L9.157347624225748 33.73849805025246 z"/>
<path fill="#000000" stroke="#000000" d="M9.61939964292324 32.874059809138494 L9.61939964292324 32.874059809138494 L9.157347460177185 33.73849864243642 L9.157347460177185 33.73849864243642 z"/>
<path fill="#000000" stroke="#000000" d="M9.619398835698535 32.87405964681301 L9.619398835698535 32.87405964681301 L9.903926139185845 31.93609882883483 L9.903926139185845 31.93609882883483 z"/>
<path fill="#000000" stroke="#000000" d="M9.999999644186367 30.960649964955415 L9.999999644186367 30.960649964955415 L9.90392623782522 31.936099629458123 L9.90392623782522 31.936099629458123 z"/>
<path fill="#000000" stroke="#000000" d="M9.90392597400093 29.985190396526296 L9.90392597400093 29.985190396526296 L10.000000355813688 30.960649964955408 L10.000000355813688 30.960649964955408 z"/>
<path fill="#000000" stroke="#000000" d="M9.903925387877834 29.98519139907196 L9.903925387877834 29.98519139907196 L9.619398084390522 29.04723058109378 L9.619398084390522 29.04723058109378 z"/>
<path fill="#000000" stroke="#000000" d="M9.157350493113348 28.182799736425423 L9.157350493113348 28.182799736425423 L9.619398518511337 29.047230791872185 L9.619398518511337 29.047230791872185 z"/>
<path fill="#000000" stroke="#000000" d="M8.535531134281555 27.42510906911918 L8.535531134281555 27.42510906911918 L9.157351201817882 28.18279901369355 L9.157351201817882 28.18279901369355 z"/>
<path fill="#000000" stroke="#000000" d="M8.535530372271873 27.425109546385407 L8.535530372271873 27.425109546385407 L7.777851307075518 26.803298407323872 L7.777851307075518 26.803298407323872 z"/>
<path fill="#000000" stroke="#000000" d="M6.913419914026811 26.34125016084452 L6.913419914026811 26.34125016084452 L7.777850969473574 26.80329818624251 L7.777850969473574 26.80329818624251 z"/>
<path fill="#000000" stroke="#000000" d="M6.913420124805216 26.341249588572335 L6.913420124805216 26.341249588572335 L5.975450149478974 26.05671950723386 L5.975450149478974 26.05671950723386 z"/>
<path fill="#000000" stroke="#000000" d="M6.91342 26.34125 L5.97545 26.05672 L5 25.96065 L4.02455 26.05672 L3.08658 26.34125 L2.22215 26.8033 L1.46447 27.42511 L0.84265 28.1828 L0.3806 29.04723 L0.09607 29.98519 L0 30.96065 L0.09607 31.9361 L0.3806 32.87406 L0.84265 33.7385 L1.46447 34.49618 L2.22215 35.11799 L3.08658 35.58004 L4.02455 35.86457 L5 35.96065 L5.97545 35.86457 L6.91342 35.58004 L7.77785 35.11799 L8.53553 34.49618 L9.15735 33.7385 L9.6194 32.87406 L9.90393 31.9361 L10 30.96065 L9.90393 29.98519 L9.6194 29.04723 L9.15735 28.1828 L8.53553 27.42511 L7.77785 26.8033 z"/>
<path fill="#000000" stroke="#000000" d="M24.71697 3.37927 L24.94016 4.3337 L24.97286 5.31332 L24.81381 6.2805 L24.46913 7.19807 L23.95207 8.03077 L23.28249 8.74659 L22.48613 9.31803 L21.59358 9.72312 L20.63916 9.94631 L19.65953 9.97901 L18.69235 9.81996 L17.77478 9.47528 L16.94209 8.95822 L16.22627 8.28864 L15.65483 7.49228 L15.24973 6.59973 L15.02655 5.64531 L14.99385 4.66569 L15.15289 3.6985 L15.49757 2.78093 L16.01464 1.94824 L16.68421 1.23242 L17.48058 0.66098 L18.37312 0.25588 L19.32754 0.0327 L20.30717 0 L21.27435 0.15905 L22.19192 0.50372 L23.02462 1.02079 L23.74044 1.69037 L24.31188 2.48673 z"/>
<path fill="#000000" stroke="#000000" d="M23.740440291376544 1.6903697909197495 L23.740440291376544 1.6903697909197495 L24.31187787576308 2.486731524268133 L24.31187787576308 2.486731524268133 z"/>
<path fill="#000000" stroke="#000000" d="M24.71697055205116 3.3792697494423 L24.71697055205116 3.3792697494423 L24.311877000038052 2.4867313615831605 L24.311877000038052 2.4867313615831605 z"/>
<path fill="#000000" stroke="#000000" d="M22.19191908704155 0.5037224303961216 L22.19191908704155 0.5037224303961216 L21.274351613069932 0.15904570582983887 L21.274351613069932 0.15904570582983887 z"/>
<path fill="#000000" stroke="#000000" d="M23.02461989307046 1.0207901143142575 L23.02461989307046 1.0207901143142575 L23.740440946898882 1.690368987706773 L23.740440946898882 1.690368987706773 z"/>
<path fill="#000000" stroke="#000000" d="M23.024620464372894 1.020789252159243 L23.024620464372894 1.020789252159243 L22.191918841618403 0.5037218654942429 L22.191918841618403 0.5037218654942429 z"/>
<path fill="#000000" stroke="#000000" d="M20.307169993075306 4.2110148068435893e-8 L20.307169993075306 4.2110148068435893e-8 L21.274350735589024 0.1590455267668001 L21.274350735589024 0.1590455267668001 z"/>
<path fill="#000000" stroke="#000000" d="M19.32753994314253 0.032698296569638186 L19.32753994314253 0.032698296569638186 L20.307169999707313 -8.768789047699338e-9 L20.307169999707313 -8.768789047699338e-9 z"/>
<path fill="#000000" stroke="#000000" d="M19.327539794573788 0.03269912152137611 L19.327539794573788 0.03269912152137611 L18.37312080974186 0.2558834627563958 L18.37312080974186 0.2558834627563958 z"/>
<path fill="#000000" stroke="#000000" d="M17.480579253356666 0.6609783549285507 L17.480579253356666 0.6609783549285507 L18.373121404637544 0.2558830948232213 L18.373121404637544 0.2558830948232213 z"/>
<path fill="#000000" stroke="#000000" d="M17.480578702601537 0.6609781919311651 L17.480578702601537 0.6609781919311651 L16.684210368126084 1.2324205130245844 L16.684210368126084 1.2324205130245844 z"/>
<path fill="#000000" stroke="#000000" d="M16.014636906264016 1.9482371061199673 L16.014636906264016 1.9482371061199673 L16.684211113067253 1.232421041162891 L16.684211113067253 1.232421041162891 z"/>
<path fill="#000000" stroke="#000000" d="M16.014636043605215 1.9482375432704155 L16.014636043605215 1.9482375432704155 L15.497573138465581 2.7809319488351556 L15.497573138465581 2.7809319488351556 z"/>
<path fill="#000000" stroke="#000000" d="M15.1528949380581 3.698501854941179 L15.1528949380581 3.698501854941179 L15.497572899202641 2.7809310890617844 L15.497572899202641 2.7809310890617844 z"/>
<path fill="#000000" stroke="#000000" d="M15.249731075142094 6.599729748585386 L15.249731075142094 6.599729748585386 L15.026546733907075 5.645310763753455 L15.026546733907075 5.645310763753455 z"/>
<path fill="#000000" stroke="#000000" d="M14.99384881235378 4.665690039641514 L14.99384881235378 4.665690039641514 L15.026546784281486 5.645310107334953 L15.026546784281486 5.645310107334953 z"/>
<path fill="#000000" stroke="#000000" d="M14.993847931736532 4.665689659889872 L14.993847931736532 4.665689659889872 L15.152894754227137 3.6985007817963345 L15.152894754227137 3.6985007817963345 z"/>
<path fill="#000000" stroke="#000000" d="M16.942089405055167 8.958220958117916 L16.942089405055167 8.958220958117916 L17.77477932909454 9.475281080447303 L17.77477932909454 9.475281080447303 z"/>
<path fill="#000000" stroke="#000000" d="M15.654829666828483 7.492280239070661 L15.654829666828483 7.492280239070661 L16.226267251215017 8.288641972419043 L16.226267251215017 8.288641972419043 z"/>
<path fill="#000000" stroke="#000000" d="M16.22626791357251 8.288642230519482 L16.22626791357251 8.288642230519482 L16.94208896740093 8.958221103911997 L16.94208896740093 8.958221103911997 z"/>
<path fill="#000000" stroke="#000000" d="M15.654829116385768 7.492280401043173 L15.654829116385768 7.492280401043173 L15.249730092858698 6.599729957854518 L15.249730092858698 6.599729957854518 z"/>
<path fill="#000000" stroke="#000000" d="M18.692350039365383 9.819959895205008 L18.692350039365383 9.819959895205008 L17.774779273485986 9.475281934060465 L17.774779273485986 9.475281934060465 z"/>
<path fill="#000000" stroke="#000000" d="M18.692349944273605 9.819960338881012 L18.692349944273605 9.819960338881012 L19.659530686787324 9.979005823537666 L19.659530686787324 9.979005823537666 z"/>
<path fill="#000000" stroke="#000000" d="M20.639159939443104 9.946308185736132 L20.639159939443104 9.946308185736132 L19.65952988287832 9.979006491074559 L19.65952988287832 9.979006491074559 z"/>
<path fill="#000000" stroke="#000000" d="M20.639159587408727 9.946308235606757 L20.639159587408727 9.946308235606757 L21.59358078943041 9.723123375897103 L21.59358078943041 9.723123375897103 z"/>
<path fill="#000000" stroke="#000000" d="M22.486128292816677 9.318026238580837 L22.486128292816677 9.318026238580837 L21.593581613049764 9.723123554015682 L21.593581613049764 9.723123554015682 z"/>
<path fill="#000000" stroke="#000000" d="M23.282489150752447 8.746588816479228 L23.282489150752447 8.746588816479228 L22.486127417404063 9.318026400865762 L22.486127417404063 9.318026400865762 z"/>
<path fill="#000000" stroke="#000000" d="M23.28248902246924 8.74658908561792 L23.28248902246924 8.74658908561792 L23.952067895861752 8.0307680317895 L23.952067895861752 8.0307680317895 z"/>
<path fill="#000000" stroke="#000000" d="M24.46913235341864 7.19807146135902 L24.46913235341864 7.19807146135902 L23.952067749563888 8.030768602588147 L23.952067749563888 8.030768602588147 z"/>
<path fill="#000000" stroke="#000000" d="M24.813810364011527 6.280500136737956 L24.813810364011527 6.280500136737956 L24.469132402866986 7.198070902617351 L24.469132402866986 7.198070902617351 z"/>
<path fill="#000000" stroke="#000000" d="M24.813809829634465 6.280499971984689 L24.813809829634465 6.280499971984689 L24.972855314291117 5.313319229470969 L24.972855314291117 5.313319229470969 z"/>
<path fill="#000000" stroke="#000000" d="M24.9401570068587 4.333700099905721 L24.9401570068587 4.333700099905721 L24.972854978786405 5.31332016759916 L24.972854978786405 5.31332016759916 z"/>
<path fill="#000000" stroke="#000000" d="M24.940158065182207 4.333700452443885 L24.940158065182207 4.333700452443885 L24.716970988282803 3.3792697688968367 L24.716970988282803 3.3792697688968367 z"/>
<path fill="#000000" stroke="#000000" d="M24.94016 4.3337 L24.71697 3.37927 L24.31188 2.48673 L23.74044 1.69037 L23.02462 1.02079 L22.19192 0.50372 L21.27435 0.15905 L20.30717 0 L19.32754 0.0327 L18.37312 0.25588 L17.48058 0.66098 L16.68421 1.23242 L16.01464 1.94824 L15.49757 2.78093 L15.15289 3.6985 L14.99385 4.66569 L15.02655 5.64531 L15.24973 6.59973 L15.65483 7.49228 L16.22627 8.28864 L16.94209 8.95822 L17.77478 9.47528 L18.69235 9.81996 L19.65953 9.97901 L20.63916 9.94631 L21.59358 9.72312 L22.48613 9.31803 L23.28249 8.74659 L23.95207 8.03077 L24.46913 7.19807 L24.81381 6.2805 L24.97286 5.31332 z"/>
</svg>