<?xml version="1.0" encoding="UTF-8"?>
<!-- Generated by jsxcad -->
<!DOCTYPE svg PUBLIC "-//W3C//DTD SVG 1.1 Tiny//EN" "http://www.w3.org/Graphics/SVG/1.1/DTD/svg11-tiny.dtd">
<svg viewBox="-250 -250 500 500" width="500" height="500" xmlns="http://www.w3.org/2000/svg"><path d="M19.763411884358515,-89.3240559692045L-37.67174491685015,-95.99479801102758L-46.337217811688305,-83.76975340601774zM9.638364695621627,-85.27597316373515L-61.53647014325146,-83.36075845735246L-67.87102397422412,-70.88764692626118zM30.58149197321555,-93.64920216166763L-12.723784476943836,-106.05808410884134L-23.554756920384293,-94.3551906525749zM-2.7126188862291554e-14,-81.42247689127399L-83.83061155155718,-68.4104144438288L-87.69337698038615,-55.96821500597464zM42.35148823000556,-98.35494807863795L12.804308226209372,-113.32073110435144L-3.411715801117918e-14,-102.41216092719999zM-104.07640308282211,-51.426335403051816L-105.35139045539053,-39.302134004124646L-9.324383465558395,-77.69451822430047zM55.41232618539554,-103.57678304676674L38.38648023931977,-117.57679434612263L23.832213045415337,-107.7350442535505zM-67.87102397422412,-70.88764692626118L-2.7126188862291554e-14,-81.42247689127399L9.638364695621627,-85.27597316373515zM-46.337217811688305,-83.76975340601774L9.638364695621627,-85.27597316373515L19.763411884358515,-89.3240559692045zM-87.69337698038615,-55.96821500597464L-9.324383465558395,-77.69451822430047L-2.7126188862291554e-14,-81.42247689127399zM-23.554756920384293,-94.3551906525749L19.763411884358515,-89.3240559692045L30.58149197321555,-93.64920216166763zM-3.411715801117918e-14,-102.41216092719999L30.58149197321555,-93.64920216166763L42.35148823000556,-98.35494807863795zM23.832213045415337,-107.7350442535505L42.35148823000556,-98.35494807863795L55.41232618539554,-103.57678304676674zM70.22682512585344,-109.49974124273068L63.466794487772425,-118.64731686190194L47.42332614612576,-110.14597979510233zM-119.16252948667154,-11.040511272381842L-120.40100729767042,-21.216821563096293L-136.5385797040864,-12.665608289859437zM47.42332614612576,-110.14597979510233L55.41232618539554,-103.57678304676674L70.22682512585344,-109.49974124273068zM-136.5385797040864,-12.665608289859437L-132.40932546630106,-2.0828950812802L-119.16252948667154,-11.040511272381842zM-118.04350051992701,-1.845607272521443L-119.16252948667154,-11.040511272381842L-147.82850633874088,8.343716467060332zM-147.82850633874088,8.343716467060332L-140.96181424683306,17.6795342677666L-118.04350051992701,-1.845607272521443zM-117.01248312097188,6.6261274234070395L-118.04350051992701,-1.845607272521443L-155.23054679357074,29.835705044152384zM-155.23054679357074,29.835705044152384L-145.67483522745317,37.59585616540529L-117.01248312097188,6.6261274234070395zM-116.04537215043528,14.572913613514093L-117.01248312097188,6.6261274234070395L-158.3386995710256,51.27918866200346zM-158.3386995710256,51.27918866200346L-146.21469658710149,57.13512769937818L-116.04537215043528,14.572913613514093zM-115.12275485260582,22.153812433050817L-116.04537215043528,14.572913613514093L-156.8060997203463,72.07722164640559zM91.66646779356724,-105.69229967641675L118.27878315898319,-38.12359476731271L109.72045534111577,-110.69741617874882zM87.45416222294921,-116.38736412338612L-121.80157150901672,-32.72522416710974L-101.3727942343944,135.1356531961639zM129.6038599734264,-101.53939649630667L111.1384197753926,-98.67321496415539L118.27878315898319,-38.12359476731271zM-114.22840420685769,29.50261731996761L-115.12275485260582,22.153812433050817L-150.37732194370992,91.57210659164416zM-156.8060997203463,72.07722164640559L-142.32327514832724,75.7132027942918L-115.12275485260582,22.153812433050817zM-113.34783289568962,36.73817560747628L-114.22840420685769,29.50261731996761L-138.92750482214316,109.0598523846233zM146.41969703297465,-88.9565907747346L128.01928253773556,-88.46146156461786L121.06339752373192,-31.05344586608089zM-150.37732194370992,91.57210659164416L-133.84946149179862,92.70312880550507L-114.22840420685769,29.50261731996761zM118.27878315898319,-38.12359476731271L121.06339752373192,-31.05344586608089L129.6038599734264,-101.53939649630667zM159.48098331423145,-73.09671269365269L141.6815291503745,-75.16401100921512L123.98226555870927,-23.64242636074362zM121.06339752373192,-31.05344586608089L123.98226555870927,-23.64242636074362L146.41969703297465,-88.9565907747346zM-138.92750482214316,109.0598523846233L-120.78441487480312,107.45462514801324L-113.34783289568962,36.73817560747628zM123.98226555870927,-23.64242636074362L127.09383567815097,-15.742194299811961L159.48098331423145,-73.09671269365269zM168.1300725994108,-54.23549472305622L151.51825814175797,-58.995515183257105L127.09383567815097,-15.742194299811961zM-122.50500831600314,123.81620240329416L-103.2970804196066,119.32398273056694L-113.34783289568962,36.73817560747628zM87.45416222294921,-116.38736412338612L-101.3727942343944,135.1356531961639L149.17038320143308,40.310245213162155zM127.09383567815097,-15.742194299811961L130.47080922351407,-7.167997226119164L168.1300725994108,-54.23549472305622zM171.78233522957953,-32.79763244935381L156.97728286462254,-40.296454900403866L130.47080922351407,-7.167997226119164zM130.47080922351407,-7.167997226119164L134.20805225633364,2.3208642529079953L171.78233522957953,-32.79763244935381zM169.97991995607512,-9.370114786309184L157.6043475411108,-19.546293715765398L134.20805225633364,2.3208642529079953zM134.20805225633364,2.3208642529079953L138.4342424695551,13.05115807413142L169.97991995607512,-9.370114786309184zM162.45149000762356,15.297372543225606L153.09240809051508,2.632786098668048L138.4342424695551,13.05115807413142zM-56.78676673884022,132.12244327690897L-64.7621294418847,121.27928133126828L-81.76393400303931,127.71411461501556zM138.4342424695551,13.05115807413142L143.33168024568357,25.485715572917425L162.45149000762356,15.297372543225606zM-81.76393400303931,127.71411461501556L-76.04060822684194,142.38219316739213L-56.78676673884022,132.12244327690897zM-29.191087325809242,132.19185844692308L-49.66479334356056,115.56524363379172L-64.7621294418847,121.27928133126828zM4.254468137077561e-14,127.75732658887232L-35.97189239825852,110.38275687184715L-49.66479334356056,115.56524363379172zM29.61841738037591,118.87995632834874L-23.312435234920162,105.59142709344783L-35.97189239825852,110.38275687184715zM108.85466785696998,69.70729949810692L11.082717993705122,92.57357129299753L3.222321008862552e-14,96.76814377540137zM58.42663592150455,105.86078397756107L-11.399218035098839,101.08251119134549L-23.312435234920162,105.59142709344783zM85.20735444828459,89.22937855353385L3.222321008862552e-14,96.76814377540137L-11.399218035098839,101.08251119134549zM-64.7621294418847,121.27928133126828L-47.27951607718732,145.04832216310956L-29.191087325809242,132.19185844692308zM11.082717993705122,92.57357129299753L130.4005981302334,64.66827611085961L128.4528329072409,48.151401202656984zM-49.66479334356056,115.56524363379172L-16.110314168134096,142.81470730772855L4.254468137077561e-14,127.75732658887232zM3.222321008862552e-14,96.76814377540137L106.71989058097247,87.32602933011152L108.85466785696998,69.70729949810692zM-35.97189239825852,110.38275687184715L16.239623998836134,135.60112111750965L29.61841738037591,118.87995632834874zM-11.399218035098839,101.08251119134549L79.01008018066346,107.26932593165697L85.20735444828459,89.22937855353385zM-23.312435234920162,105.59142709344783L48.410786353618576,123.59787571668133L58.42663592150455,105.86078397756107z" style="fill:rgb(83,212,212)"/></svg>
